<svg width="166" height="185" viewBox="0 0 166 185" fill="none" xmlns="http://www.w3.org/2000/svg">
<g clip-path="url(#clip0_6_33)">
<path d="M0 35.3566L5.01615 29.8232C6.07347 28.6576 7.16768 28.0196 8.28648 27.9215C9.40527 27.8233 10.4257 28.1791 11.3355 29.0134C11.9625 29.5778 12.3682 30.2403 12.5772 31.001C12.7863 31.7617 12.6756 32.5347 12.2576 33.3322L12.3437 33.4058C13.1551 32.8046 13.9788 32.5469 14.8394 32.6451C15.7 32.7433 16.4746 33.0868 17.1508 33.7002C18.2204 34.6695 18.7245 35.786 18.6507 37.0374C18.577 38.2889 17.9622 39.5649 16.7943 40.8531L11.9748 46.1779L0 35.3566ZM9.92164 34.7554C10.561 34.056 10.856 33.3812 10.8314 32.731C10.8068 32.0807 10.5118 31.5041 9.97082 31.0133C9.35609 30.4612 8.70449 30.2403 8.016 30.3508C7.32751 30.4612 6.6636 30.8538 6.04888 31.5286L2.99985 34.8903L6.73737 38.2644L9.90935 34.7554H9.92164ZM15.2329 39.7244C15.9951 38.8901 16.3639 38.0926 16.3394 37.3442C16.3148 36.5958 16.0074 35.9578 15.405 35.4179C14.7657 34.8413 14.0895 34.5959 13.3764 34.694C12.6756 34.7922 11.9994 35.1971 11.3478 35.9087L8.10206 39.4913L12.1346 43.1352L15.2206 39.7244H15.2329Z" fill="#181818"/>
<path d="M23.6915 33.1727C22.3391 33.3444 21.0236 33.1236 19.7695 32.5101C18.5155 31.8967 17.3721 30.9151 16.3762 29.541C15.3681 28.1669 14.7657 26.7805 14.569 25.394C14.3722 24.0076 14.569 22.7071 15.1345 21.4679C15.7 20.2287 16.6221 19.1491 17.913 18.2043C19.2163 17.2596 20.5318 16.6952 21.8842 16.5357C23.2366 16.364 24.5398 16.5848 25.8061 17.186C27.0724 17.7872 28.2035 18.781 29.2117 20.1551C30.2198 21.5293 30.8222 22.9157 31.019 24.3021C31.2157 25.6885 31.019 27.0013 30.4534 28.2405C29.8879 29.4797 28.9535 30.5716 27.6626 31.5041C26.3716 32.4488 25.0561 33.0009 23.7037 33.1727H23.6915ZM28.6953 26.167C28.8551 24.707 28.3511 23.1979 27.2077 21.6274C26.052 20.0447 24.7488 19.1123 23.3226 18.8301C21.8842 18.5479 20.4949 18.9037 19.1302 19.8852C17.7778 20.879 17.0156 22.0937 16.868 23.5414C16.7082 24.9892 17.2123 26.4983 18.3679 28.081C19.5236 29.6637 20.8268 30.5962 22.253 30.8783C23.6915 31.1605 25.0807 30.817 26.4208 29.8355C27.7732 28.8417 28.5355 27.6148 28.6953 26.167Z" fill="#181818"/>
<path d="M38.1989 23.7991C36.8342 23.6641 35.6048 23.1611 34.5106 22.29C33.4164 21.4189 32.5312 20.2042 31.855 18.646C31.1788 17.0756 30.896 15.6033 31.019 14.2046C31.1419 12.8059 31.6091 11.579 32.4328 10.4993C33.2566 9.41965 34.3999 8.56081 35.863 7.93509C37.3383 7.29709 38.7522 7.05171 40.1046 7.18667C41.457 7.32163 42.6864 7.82466 43.7806 8.6835C44.8748 9.54234 45.7723 10.7693 46.4485 12.3274C47.1247 13.8979 47.4075 15.3702 47.2845 16.7689C47.1616 18.1675 46.6944 19.3944 45.8584 20.4741C45.0224 21.5538 43.879 22.4126 42.4159 23.0506C40.9529 23.6764 39.539 23.934 38.1866 23.7991H38.1989ZM44.6289 18.0694C45.1084 16.683 44.9609 15.1003 44.1863 13.3212C43.4118 11.5299 42.3422 10.3276 41.0144 9.73865C39.6743 9.14973 38.2358 9.18654 36.699 9.84907C35.1622 10.5116 34.1541 11.5422 33.6746 12.9164C33.1951 14.2905 33.3549 15.8732 34.1418 17.6768C34.9163 19.4681 35.9859 20.6704 37.3137 21.2594C38.6415 21.8483 40.08 21.8237 41.6168 21.1612C43.1536 20.4987 44.174 19.4681 44.6412 18.0816L44.6289 18.0694Z" fill="#181818"/>
<path d="M48.4525 3.53047L50.8131 3.05198L52.5097 11.3214L58.3127 1.51834L61.1773 0.929419L56.4316 8.73258L64.5214 16.683L61.7306 17.2596L55.1776 10.7815L53.0875 14.1433L54.0465 18.8423L51.686 19.3208L48.4402 3.55501L48.4525 3.53047Z" fill="#181818"/>
<path d="M75.525 0.5L78.9059 0.659499L83.8975 17.002L81.3771 16.8915L80.2214 13.0758L73.0783 12.7446L71.5784 16.4376L69.0581 16.3272L75.525 0.5ZM79.7051 11.1741L78.1683 6.13153L77.197 2.79433H77.0618L75.7831 6.0211L73.7422 10.9042L79.7051 11.1741Z" fill="#181818"/>
<path d="M92.5774 18.1921C91.643 17.1983 91.0529 16.0082 90.7947 14.6463C90.5365 13.2844 90.6718 11.7876 91.1758 10.1681C91.6922 8.53627 92.4422 7.23575 93.438 6.26649C94.4339 5.29723 95.6018 4.65923 96.9296 4.38931C98.2574 4.11939 99.6836 4.21754 101.184 4.68377C102.45 5.07638 103.507 5.65303 104.368 6.40145C105.216 7.14986 105.831 8.02097 106.212 9.0025C106.593 9.9963 106.679 11.0514 106.495 12.1802L104.171 11.4563C104.269 10.4012 104.011 9.44419 103.372 8.56081C102.733 7.67744 101.798 7.05171 100.557 6.6591C98.9705 6.15606 97.5444 6.26649 96.3026 7.00263C95.0486 7.72651 94.1265 9.02704 93.5364 10.9165C92.9462 12.7814 92.9585 14.3764 93.561 15.6892C94.1634 17.002 95.2576 17.9099 96.8559 18.4129C98.1099 18.8055 99.2533 18.8178 100.286 18.462C101.319 18.1062 102.093 17.4314 102.597 16.4744L104.909 17.2228C104.442 18.2657 103.765 19.0877 102.88 19.7012C101.995 20.3146 100.987 20.6827 99.8434 20.8054C98.7 20.9281 97.4952 20.8054 96.2288 20.4005C94.7289 19.922 93.4995 19.1859 92.5774 18.1921Z" fill="#181818"/>
<path d="M115.74 10.8797L118.715 12.4869L116.048 29.3692L113.835 28.1669L114.462 24.2407L108.179 20.8299L105.216 23.4923L103.003 22.29L115.74 10.8797ZM114.83 22.3022L115.654 17.0879L116.232 13.6648L116.121 13.6034L113.552 15.9591L109.581 19.4558L114.83 22.3022Z" fill="#181818"/>
<path d="M126.977 17.6768L128.871 19.1613L120.252 30.1177L126.313 34.8658L124.973 36.5712L117.019 30.3385L126.977 17.6768Z" fill="#181818"/>
<path d="M137.796 26.7068L139.444 28.4613L129.264 38.0067L134.538 43.6137L132.952 45.0983L126.031 37.7368L137.784 26.7191L137.796 26.7068Z" fill="#181818"/>
<path d="M153.263 46.5705L154.406 48.4355L135.547 51.9812L134.391 50.1041L153.251 46.5828L153.263 46.5705Z" fill="#181818"/>
<path d="M145.517 65.5386C145.788 64.2013 146.403 63.0357 147.374 62.0296C148.345 61.0236 149.636 60.2629 151.247 59.7353C152.869 59.2077 154.369 59.0605 155.746 59.3059C157.123 59.5513 158.304 60.1279 159.312 61.0481C160.308 61.9683 161.058 63.1829 161.549 64.6798C161.955 65.9435 162.115 67.1336 162.004 68.2624C161.894 69.3911 161.537 70.3972 160.959 71.2806C160.369 72.1639 159.558 72.851 158.537 73.3663L157.787 71.0597C158.697 70.5321 159.336 69.7592 159.681 68.7409C160.025 67.7225 160 66.5938 159.595 65.3423C159.078 63.7596 158.156 62.6799 156.841 62.0787C155.525 61.4898 153.927 61.5021 152.046 62.1032C150.177 62.7167 148.886 63.6369 148.161 64.9006C147.435 66.1643 147.337 67.5753 147.853 69.158C148.259 70.4094 148.911 71.3419 149.808 71.9676C150.706 72.5934 151.689 72.8387 152.783 72.6792L153.521 74.9981C152.402 75.2189 151.333 75.1576 150.325 74.8018C149.316 74.446 148.419 73.8325 147.657 72.9737C146.882 72.1149 146.292 71.0597 145.886 69.796C145.394 68.2992 145.284 66.8759 145.554 65.5509L145.517 65.5386Z" fill="#181818"/>
<path d="M149.759 81.6112C150.3 80.3597 151.161 79.3536 152.341 78.5807C153.509 77.8077 154.947 77.3415 156.632 77.182C158.341 77.0225 159.828 77.2065 161.119 77.7464C162.41 78.2862 163.443 79.1205 164.217 80.237C164.992 81.3535 165.459 82.7031 165.607 84.2858C165.754 85.8808 165.557 87.304 165.016 88.5432C164.463 89.7824 163.615 90.8007 162.447 91.5737C161.279 92.3466 159.853 92.8251 158.144 92.9846C156.435 93.1441 154.947 92.9601 153.656 92.4202C152.365 91.8804 151.333 91.0461 150.558 89.9174C149.784 88.7886 149.316 87.439 149.169 85.8563C149.021 84.2736 149.218 82.8503 149.759 81.6112ZM153.238 89.4879C154.406 90.3713 155.968 90.7148 157.91 90.5308C159.865 90.3468 161.328 89.7088 162.312 88.6291C163.283 87.5494 163.701 86.163 163.541 84.4944C163.381 82.8258 162.717 81.5498 161.549 80.6787C160.381 79.8076 158.82 79.4641 156.865 79.6481C154.91 79.8321 153.447 80.4701 152.464 81.5498C151.48 82.6295 151.074 84.0036 151.234 85.66C151.394 87.3286 152.058 88.6046 153.238 89.4879Z" fill="#181818"/>
<path d="M166 97.6592L165.643 100.591L151.812 107.315L151.788 107.462L157.16 107.977L164.635 108.873L164.353 111.192L148.333 109.266L148.665 106.456L162.336 99.7081V99.5732L157.357 99.0578L149.673 98.1377L149.968 95.7084L165.988 97.6346L166 97.6592Z" fill="#181818"/>
<path d="M159.816 119.78L161.365 114.959L163.369 115.597L159.533 127.559L157.529 126.921L159.09 122.062L145.726 117.793L146.464 115.498L159.828 119.768L159.816 119.78Z" fill="#181818"/>
<path d="M156.951 132.97L155.439 136L138.436 133.963L139.555 131.706L143.513 132.184L146.698 125.792L143.919 122.934L145.038 120.676L156.939 132.957L156.951 132.97ZM145.481 132.491L150.73 133.117L154.185 133.571L154.246 133.448L151.8 130.97L148.148 127.142L145.493 132.479L145.481 132.491Z" fill="#181818"/>
<path d="M136.985 137.166C138.239 136.626 139.555 136.479 140.932 136.7C142.309 136.92 143.673 137.546 145.026 138.577C146.39 139.607 147.362 140.761 147.939 142.037C148.517 143.313 148.714 144.613 148.517 145.95C148.321 147.288 147.755 148.588 146.796 149.84C145.985 150.895 145.087 151.692 144.091 152.244C143.095 152.797 142.063 153.079 141.005 153.091C139.948 153.103 138.915 152.833 137.907 152.281L139.382 150.355C140.341 150.809 141.337 150.883 142.37 150.588C143.415 150.294 144.325 149.631 145.124 148.588C146.132 147.263 146.513 145.889 146.255 144.478C145.997 143.055 145.075 141.754 143.513 140.552C141.952 139.362 140.452 138.834 139.001 138.957C137.551 139.08 136.321 139.804 135.313 141.116C134.514 142.159 134.108 143.227 134.108 144.319C134.108 145.411 134.465 146.368 135.202 147.165L133.702 149.079C132.879 148.282 132.325 147.374 132.055 146.343C131.784 145.312 131.772 144.233 132.055 143.116C132.325 142 132.866 140.908 133.666 139.853C134.625 138.601 135.731 137.706 136.985 137.166Z" fill="#181818"/>
<path d="M135.252 159.226L138.989 155.803L140.415 157.348L131.145 165.851L129.719 164.305L133.481 160.857L123.99 150.551L125.76 148.92L135.252 159.238V159.226Z" fill="#181818"/>
<path d="M122.723 172.022L119.441 173.715L109.79 164.808L109.716 164.845L111.376 177.85L108.105 179.531L100.716 165.213L102.806 164.146L106.261 170.844L108.966 176.231L109.101 176.157L107.146 161.913L108.855 161.029L119.342 170.894L119.478 170.82L116.662 165.458L113.22 158.784L115.322 157.704L122.711 172.022H122.723Z" fill="#181818"/>
<path d="M101.835 181.604L90.9053 184.5L90.3767 182.488L98.9705 180.218L97.7288 175.544L90.18 177.543L89.6759 175.666L97.2247 173.666L95.8969 168.697L87.2785 170.979L86.7375 168.955L97.6919 166.06L101.823 181.617L101.835 181.604Z" fill="#181818"/>
</g>
<defs>
<clipPath id="clip0_6_33">
<rect width="166" height="184" fill="white" transform="translate(0 0.5)"/>
</clipPath>
</defs>
</svg>
