<svg width="556" height="418" viewBox="0 0 556 418" fill="none" xmlns="http://www.w3.org/2000/svg">
<g clip-path="url(#clip0_6_19)">
<path d="M197.949 293.966L112.514 244.565L95.743 254.248C92.9807 255.842 92.9807 259.833 95.743 261.442L107.02 267.968C107.369 268.165 107.445 268.651 107.157 268.939C103.241 272.84 104.182 277.909 109.949 281.248C115.489 284.45 123.791 285.073 130.424 283.13C131.608 282.781 132.898 282.933 133.96 283.54L172.967 306.093C178.036 309.022 184.289 309.022 189.359 306.093L197.934 301.145C200.697 299.551 200.697 295.56 197.934 293.951L197.949 293.966Z" fill="black"/>
<path d="M304.057 287.454L147.249 377.837L147.62 378.481L304.428 288.098L304.057 287.454Z" fill="#181818"/>
<path d="M306.058 288.525L149.25 378.908L149.621 379.553L306.429 289.169L306.058 288.525Z" fill="#181818"/>
<path d="M307.871 289.617L151.079 380.028L151.45 380.672L308.242 290.261L307.871 289.617Z" fill="#181818"/>
<path d="M309.927 290.7L153.135 381.111L153.506 381.755L310.298 291.344L309.927 290.7Z" fill="#181818"/>
<path d="M311.612 291.903L154.804 382.286L155.175 382.931L311.984 292.547L311.612 291.903Z" fill="#181818"/>
<path d="M313.634 292.953L156.825 383.337L157.197 383.981L314.005 293.598L313.634 292.953Z" fill="#181818"/>
<path d="M315.448 294.074L158.656 384.485L159.027 385.129L315.819 294.718L315.448 294.074Z" fill="#181818"/>
<path d="M317.503 295.081L160.711 385.492L161.082 386.136L317.875 295.726L317.503 295.081Z" fill="#181818"/>
<path d="M319.313 296.284L162.505 386.668L162.877 387.312L319.685 296.929L319.313 296.284Z" fill="#181818"/>
<path d="M321.356 297.356L164.548 387.739L164.919 388.383L321.727 298L321.356 297.356Z" fill="#181818"/>
<path d="M323.17 298.49L166.378 388.901L166.75 389.545L323.542 299.135L323.17 298.49Z" fill="#181818"/>
<path d="M325.225 299.482L168.433 389.892L168.804 390.537L325.597 300.126L325.225 299.482Z" fill="#181818"/>
<path d="M326.918 300.72L170.11 391.104L170.481 391.748L327.289 301.364L326.918 300.72Z" fill="#181818"/>
<path d="M328.906 301.786L172.113 392.197L172.485 392.841L329.277 302.43L328.906 301.786Z" fill="#181818"/>
<path d="M330.747 302.931L173.939 393.314L174.31 393.958L331.118 303.575L330.747 302.931Z" fill="#181818"/>
<path d="M332.789 303.916L175.996 394.327L176.368 394.971L333.16 304.56L332.789 303.916Z" fill="#181818"/>
<path d="M273.389 269.793L116.612 360.231L116.984 360.876L273.76 270.438L273.389 269.793Z" fill="#181818"/>
<path d="M275.394 270.917L118.585 361.3L118.957 361.944L275.765 271.561L275.394 270.917Z" fill="#181818"/>
<path d="M277.207 272.015L120.414 362.425L120.786 363.07L277.578 272.659L277.207 272.015Z" fill="#181818"/>
<path d="M279.261 273.093L122.453 363.476L122.824 364.121L279.632 273.737L279.261 273.093Z" fill="#181818"/>
<path d="M280.963 274.294L124.154 364.678L124.526 365.322L281.334 274.938L280.963 274.294Z" fill="#181818"/>
<path d="M282.971 275.303L126.178 365.713L126.55 366.358L283.342 275.947L282.971 275.303Z" fill="#181818"/>
<path d="M284.804 276.497L127.996 366.881L128.367 367.525L285.175 277.142L284.804 276.497Z" fill="#181818"/>
<path d="M286.831 277.537L130.039 367.948L130.41 368.592L287.203 278.182L286.831 277.537Z" fill="#181818"/>
<path d="M288.672 278.689L131.864 369.072L132.236 369.717L289.044 279.333L288.672 278.689Z" fill="#181818"/>
<path d="M290.694 279.703L133.901 370.114L134.273 370.758L291.065 280.348L290.694 279.703Z" fill="#181818"/>
<path d="M292.519 280.886L135.711 371.27L136.082 371.914L292.89 281.531L292.519 280.886Z" fill="#181818"/>
<path d="M294.561 281.91L137.769 372.321L138.14 372.965L294.933 282.554L294.561 281.91Z" fill="#181818"/>
<path d="M296.261 283.125L139.453 373.508L139.824 374.153L296.632 283.769L296.261 283.125Z" fill="#181818"/>
<path d="M298.256 284.138L141.464 374.549L141.835 375.193L298.628 284.782L298.256 284.138Z" fill="#181818"/>
<path d="M300.069 285.307L143.277 375.718L143.648 376.362L300.441 285.951L300.069 285.307Z" fill="#181818"/>
<path d="M302.122 286.375L145.314 376.758L145.685 377.403L302.494 287.019L302.122 286.375Z" fill="#181818"/>
<path d="M303.95 287.514L147.142 377.897L147.513 378.542L304.321 288.158L303.95 287.514Z" fill="#181818"/>
<path d="M245.078 253.108L88.286 343.519L88.6575 344.163L245.45 253.752L245.078 253.108Z" fill="#181818"/>
<path d="M246.904 254.267L90.0955 344.65L90.4669 345.294L247.275 254.911L246.904 254.267Z" fill="#181818"/>
<path d="M248.948 255.261L92.1558 345.672L92.5273 346.316L249.32 255.906L248.948 255.261Z" fill="#181818"/>
<path d="M250.64 256.426L93.8477 346.837L94.2193 347.481L251.012 257.071L250.64 256.426Z" fill="#181818"/>
<path d="M252.655 257.563L95.8466 347.947L96.2179 348.591L253.026 258.208L252.655 257.563Z" fill="#181818"/>
<path d="M254.467 258.703L97.6591 349.086L98.0305 349.73L254.839 259.347L254.467 258.703Z" fill="#181818"/>
<path d="M256.509 259.734L99.7169 350.145L100.088 350.789L256.881 260.378L256.509 259.734Z" fill="#181818"/>
<path d="M258.323 260.821L101.546 351.259L101.918 351.903L258.695 261.465L258.323 260.821Z" fill="#181818"/>
<path d="M260.37 261.953L103.562 352.336L103.933 352.98L260.741 262.597L260.37 261.953Z" fill="#181818"/>
<path d="M262.205 263.105L105.397 353.488L105.768 354.133L262.576 263.749L262.205 263.105Z" fill="#181818"/>
<path d="M264.232 264.135L107.44 354.545L107.812 355.19L264.604 264.779L264.232 264.135Z" fill="#181818"/>
<path d="M265.926 265.277L109.134 355.687L109.505 356.332L266.298 265.921L265.926 265.277Z" fill="#181818"/>
<path d="M267.94 266.37L111.147 356.781L111.519 357.425L268.311 267.015L267.94 266.37Z" fill="#181818"/>
<path d="M269.754 267.47L112.977 357.908L113.349 358.552L270.126 268.114L269.754 267.47Z" fill="#181818"/>
<path d="M271.808 268.578L114.999 358.961L115.371 359.606L272.179 269.222L271.808 268.578Z" fill="#181818"/>
<path d="M216.296 236.554L59.5037 326.965L59.8752 327.609L216.668 237.198L216.296 236.554Z" fill="#181818"/>
<path d="M218.31 237.669L61.5019 328.053L61.8733 328.697L218.681 238.314L218.31 237.669Z" fill="#181818"/>
<path d="M220.123 238.808L63.315 329.192L63.6864 329.836L220.495 239.452L220.123 238.808Z" fill="#181818"/>
<path d="M222.179 239.861L65.3705 330.245L65.7419 330.889L222.55 240.506L222.179 239.861Z" fill="#181818"/>
<path d="M223.844 240.989L67.0515 331.399L67.423 332.044L224.215 241.633L223.844 240.989Z" fill="#181818"/>
<path d="M225.86 242.105L69.0673 332.516L69.4389 333.16L226.231 242.749L225.86 242.105Z" fill="#181818"/>
<path d="M227.685 243.191L70.8926 333.601L71.2642 334.246L228.057 243.835L227.685 243.191Z" fill="#181818"/>
<path d="M229.726 244.297L72.9176 334.68L73.289 335.325L230.097 244.941L229.726 244.297Z" fill="#181818"/>
<path d="M231.54 245.389L74.7472 335.8L75.1187 336.444L231.911 246.034L231.54 245.389Z" fill="#181818"/>
<path d="M233.601 246.487L76.7929 336.87L77.1643 337.514L233.972 247.131L233.601 246.487Z" fill="#181818"/>
<path d="M235.409 247.589L78.6328 338.027L79.0044 338.671L235.781 248.233L235.409 247.589Z" fill="#181818"/>
<path d="M237.476 248.692L80.6681 339.075L81.0395 339.719L237.848 249.336L237.476 248.692Z" fill="#181818"/>
<path d="M239.142 249.847L82.3491 340.257L82.7207 340.902L239.513 250.491L239.142 249.847Z" fill="#181818"/>
<path d="M241.158 250.902L84.3656 341.313L84.7371 341.957L241.53 251.547L241.158 250.902Z" fill="#181818"/>
<path d="M242.984 252.075L86.1757 342.458L86.5471 343.102L243.355 252.719L242.984 252.075Z" fill="#181818"/>
<path d="M185.631 218.989L28.8225 309.373L29.1939 310.017L186.002 219.634L185.631 218.989Z" fill="#181818"/>
<path d="M187.646 220.076L30.8378 310.459L31.2092 311.104L188.017 220.72L187.646 220.076Z" fill="#181818"/>
<path d="M189.46 221.161L32.6673 311.572L33.0389 312.216L189.831 221.806L189.46 221.161Z" fill="#181818"/>
<path d="M191.514 222.253L34.7057 312.636L35.0771 313.28L191.885 222.897L191.514 222.253Z" fill="#181818"/>
<path d="M193.2 223.438L36.3922 313.822L36.7636 314.466L193.572 224.083L193.2 223.438Z" fill="#181818"/>
<path d="M195.195 224.488L38.4026 314.898L38.7741 315.543L195.566 225.132L195.195 224.488Z" fill="#181818"/>
<path d="M197.009 225.586L40.2328 316.024L40.6044 316.669L197.381 226.23L197.009 225.586Z" fill="#181818"/>
<path d="M199.076 226.688L42.2681 317.072L42.6395 317.716L199.448 227.333L199.076 226.688Z" fill="#181818"/>
<path d="M200.889 227.827L44.0806 318.211L44.452 318.855L201.26 228.472L200.889 227.827Z" fill="#181818"/>
<path d="M202.944 228.907L46.1355 319.29L46.5069 319.934L203.315 229.551L202.944 228.907Z" fill="#181818"/>
<path d="M204.758 229.989L47.9656 320.4L48.3371 321.044L205.13 230.633L204.758 229.989Z" fill="#181818"/>
<path d="M206.812 231.083L50.0034 321.466L50.3748 322.111L207.183 231.727L206.812 231.083Z" fill="#181818"/>
<path d="M208.491 232.256L51.6826 322.639L52.054 323.283L208.862 232.9L208.491 232.256Z" fill="#181818"/>
<path d="M210.507 233.342L53.6984 323.726L54.0698 324.37L210.878 233.987L210.507 233.342Z" fill="#181818"/>
<path d="M212.319 234.466L55.5109 324.849L55.8824 325.494L212.691 235.11L212.319 234.466Z" fill="#181818"/>
<path d="M214.361 235.475L57.5688 325.886L57.9403 326.53L214.733 236.12L214.361 235.475Z" fill="#181818"/>
<path d="M216.186 236.658L59.3783 327.041L59.7497 327.686L216.558 237.302L216.186 236.658Z" fill="#181818"/>
<path d="M157.308 202.266L0.5 292.65L0.871407 293.294L157.68 202.91L157.308 202.266Z" fill="#181818"/>
<path d="M159.144 203.418L2.33626 293.802L2.70765 294.446L159.516 204.063L159.144 203.418Z" fill="#181818"/>
<path d="M161.186 204.423L4.39352 294.834L4.76504 295.478L161.557 205.067L161.186 204.423Z" fill="#181818"/>
<path d="M162.879 205.644L6.07087 296.027L6.44228 296.672L163.25 206.288L162.879 205.644Z" fill="#181818"/>
<path d="M164.88 206.656L8.10378 297.094L8.4754 297.739L165.252 207.3L164.88 206.656Z" fill="#181818"/>
<path d="M166.706 207.843L9.91385 298.254L10.2854 298.898L167.078 208.488L166.706 207.843Z" fill="#181818"/>
<path d="M168.762 208.85L11.9699 299.261L12.3414 299.905L169.134 209.494L168.762 208.85Z" fill="#181818"/>
<path d="M170.588 210.038L13.78 300.422L14.1514 301.066L170.96 210.683L170.588 210.038Z" fill="#181818"/>
<path d="M172.608 211.062L15.8159 301.473L16.1874 302.117L172.98 211.706L172.608 211.062Z" fill="#181818"/>
<path d="M174.434 212.236L17.626 302.619L17.9974 303.263L174.806 212.88L174.434 212.236Z" fill="#181818"/>
<path d="M176.476 213.238L19.6839 303.648L20.0554 304.293L176.848 213.882L176.476 213.238Z" fill="#181818"/>
<path d="M178.163 214.423L21.3704 304.834L21.7419 305.478L178.534 215.067L178.163 214.423Z" fill="#181818"/>
<path d="M180.169 215.533L23.3613 305.916L23.7327 306.56L180.541 216.177L180.169 215.533Z" fill="#181818"/>
<path d="M181.984 216.635L25.1914 307.046L25.5629 307.69L182.355 217.279L181.984 216.635Z" fill="#181818"/>
<path d="M184.045 217.738L27.2371 308.121L27.6085 308.765L184.417 218.382L184.045 217.738Z" fill="#181818"/>
<path d="M105.826 45.0889L82.0123 31.3385C80.9346 30.7163 80.0695 31.3841 80.0695 32.8107V43.723C80.0695 45.1496 80.9346 46.8191 82.0123 47.4413L84.7594 49.0197C85.0023 50.2187 85.9281 53.4362 88.9636 55.1816C89.1154 55.2726 89.2368 55.1361 89.1609 54.9388C88.9029 54.2103 88.4931 52.7077 88.827 51.3722L105.826 61.1917C106.904 61.8139 107.769 61.1613 107.769 59.7195V48.8073C107.769 47.3806 106.904 45.7111 105.826 45.0889Z" fill="#181818"/>
<path d="M106.6 61.905C106.266 61.905 105.932 61.7987 105.583 61.6014L89.2063 52.1462C89.1304 53.2238 89.4644 54.3013 89.6313 54.7566C89.7376 55.0602 89.6769 55.3637 89.4644 55.5458C89.2671 55.7128 88.9787 55.728 88.7358 55.5914C85.7155 53.8612 84.6682 50.7803 84.3343 49.3233L81.7845 47.8511C80.5551 47.1378 79.5989 45.3317 79.5989 43.7078V32.7955C79.5989 31.8697 79.9328 31.1412 80.5095 30.7922C81.0256 30.5038 81.6479 30.5341 82.2702 30.8984L106.084 44.6487C107.313 45.3621 108.269 47.1681 108.269 48.7921V59.7043C108.269 60.6301 107.936 61.3586 107.359 61.7077C107.131 61.8443 106.873 61.905 106.615 61.905H106.6ZM88.5082 50.6133L106.069 60.7515C106.281 60.873 106.6 60.9944 106.843 60.8578C107.116 60.706 107.268 60.2811 107.268 59.7043V48.7921C107.268 47.5476 106.494 46.0299 105.568 45.4987L81.7541 31.7483C81.5416 31.6269 81.2229 31.5055 80.98 31.6421C80.7068 31.7938 80.5551 32.2188 80.5551 32.7955V43.7078C80.5551 44.9523 81.3291 46.47 82.255 47.0012L85.1843 48.701L85.2298 48.9135C85.4575 50.0062 86.2012 52.556 88.4323 54.2406C88.235 53.4362 88.068 52.298 88.3412 51.2356L88.493 50.5981L88.5082 50.6133Z" fill="#FBFBFB"/>
<path d="M86.0434 39.4968L85.5501 40.3511L101.796 49.7305L102.29 48.8762L86.0434 39.4968Z" fill="#FBFBFB"/>
<path d="M86.0458 43.2077L85.5526 44.062L101.799 53.4414L102.292 52.587L86.0458 43.2077Z" fill="#FBFBFB"/>
<path d="M118.24 31.7179L103.866 23.5678C102.789 22.9456 101.924 23.6134 101.924 25.04V29.7904C101.924 31.217 102.789 32.8865 103.866 33.5087L107.281 35.4818C107.539 36.7111 108.48 39.8831 111.485 41.5981C111.637 41.6892 111.759 41.5526 111.683 41.3553C111.425 40.6268 111.03 39.1546 111.349 37.819L118.255 41.6588C119.332 42.2811 120.197 41.6133 120.197 40.1866V35.4362C120.197 34.0096 119.332 32.3401 118.255 31.7179H118.24Z" fill="#B9FF66"/>
<path d="M119.013 42.3721C118.695 42.3721 118.346 42.2658 117.997 42.0685L111.713 38.5778C111.652 39.6402 111.971 40.7026 112.138 41.1731C112.244 41.4766 112.184 41.7802 111.971 41.9623C111.774 42.1292 111.485 42.1444 111.243 42.0078C108.253 40.2928 107.19 37.2271 106.856 35.7853L103.623 33.9185C102.394 33.2052 101.438 31.3991 101.438 29.7752V25.0248C101.438 24.099 101.772 23.3705 102.348 23.0214C102.864 22.733 103.487 22.7634 104.109 23.1276L118.482 31.2777C119.712 31.991 120.668 33.7971 120.668 35.421V40.1714C120.668 41.0972 120.334 41.8257 119.757 42.1748C119.53 42.3114 119.271 42.3721 119.013 42.3721ZM111 37.0753L118.467 41.2186C118.695 41.3552 118.998 41.4766 119.256 41.3249C119.529 41.1731 119.681 40.7481 119.681 40.1714V35.421C119.681 34.1765 118.907 32.674 117.981 32.1276L103.608 23.9776C103.38 23.8561 103.077 23.7347 102.819 23.8713C102.546 24.0231 102.394 24.448 102.394 25.0248V29.7752C102.394 31.0197 103.168 32.5374 104.094 33.0686L107.691 35.1478L107.736 35.3603C107.964 36.453 108.723 38.9724 110.924 40.6419C110.726 39.8375 110.575 38.7296 110.818 37.6824L110.969 37.0601L111 37.0753Z" fill="#FBFBFB"/>
<path d="M121.777 78.8424L97.9635 65.0921C96.8859 64.4698 96.0208 65.1376 96.0208 66.5642V86.8711C96.0208 88.2977 96.8859 89.9672 97.9635 90.5894L112.731 99.1189C113.08 100.879 112.671 101.911 112.413 102.352C112.337 102.473 112.443 102.731 112.61 102.822C115.691 104.613 116.602 102.367 116.829 101.471L121.777 104.325C122.855 104.947 123.72 104.279 123.72 102.852V82.5456C123.72 81.119 122.855 79.4495 121.777 78.8273V78.8424Z" fill="#181818"/>
<path d="M122.551 105.053C122.233 105.053 121.883 104.947 121.534 104.75L117.103 102.185C116.86 102.777 116.404 103.46 115.63 103.778C114.735 104.158 113.642 103.96 112.367 103.232C112.155 103.11 112.003 102.898 111.927 102.64C111.881 102.443 111.897 102.245 111.988 102.078C112.17 101.775 112.549 100.94 112.291 99.4073L97.7206 90.9992C96.4912 90.2859 95.5351 88.4798 95.5351 86.8559V66.5491C95.5351 65.6233 95.869 64.8948 96.4457 64.5457C96.9617 64.2573 97.584 64.2877 98.2063 64.6519L122.02 78.4023C123.249 79.1156 124.206 80.9217 124.206 82.5456V102.852C124.206 103.778 123.872 104.507 123.295 104.856C123.067 104.992 122.809 105.053 122.551 105.053ZM116.511 100.728L122.02 103.915C122.233 104.036 122.551 104.158 122.794 104.021C123.067 103.869 123.219 103.444 123.219 102.868V82.5608C123.219 81.3163 122.445 79.7986 121.519 79.2674L97.7055 65.517C97.493 65.3956 97.1742 65.2742 96.9314 65.4108C96.6582 65.5626 96.5064 65.9875 96.5064 66.5642V86.8711C96.5064 88.1156 97.2805 89.6333 98.2063 90.1645L113.171 98.8002L113.217 99.0127C113.581 100.788 113.187 101.911 112.929 102.427C113.87 102.974 114.659 103.126 115.251 102.883C115.934 102.594 116.237 101.79 116.359 101.35L116.526 100.728H116.511Z" fill="#FBFBFB"/>
<path d="M101.99 74.029L101.497 74.8834L117.743 84.2627L118.236 83.4084L101.99 74.029Z" fill="#FBFBFB"/>
<path d="M102.006 77.7474L101.512 78.6018L117.759 87.9811L118.252 87.1268L102.006 77.7474Z" fill="#FBFBFB"/>
<path d="M101.992 81.4734L101.499 82.3278L117.745 91.7072L118.239 90.8528L101.992 81.4734Z" fill="#FBFBFB"/>
<path d="M101.995 85.1995L101.501 86.0538L117.748 95.4332L118.241 94.5788L101.995 85.1995Z" fill="#FBFBFB"/>
<path d="M295.564 404.053C297.014 401.131 297.849 397.353 297.849 392.827V111.188C297.849 95.9413 288.578 78.2564 277.154 71.6439L170.315 9.97754C165.482 7.18751 161.044 6.85798 157.529 8.5276C151.377 10.6805 145.929 15.953 145.929 15.953L149.817 21.9066H149.839C149.707 23.0929 149.62 24.3231 149.62 25.6413V307.281C149.62 322.527 158.891 340.212 170.315 346.825L277.154 408.491L280.845 415.741C280.845 415.741 290.006 414.027 295.169 404.888C295.191 404.844 295.213 404.8 295.235 404.734C295.345 404.536 295.433 404.339 295.542 404.119V404.053H295.564Z" fill="#181818"/>
<path d="M280.318 416.773L276.429 409.15L169.832 347.615C158.166 340.871 148.675 322.791 148.675 307.281V25.6192C148.675 24.5208 148.741 23.4223 148.873 22.1481L144.721 15.7992L145.27 15.2719C145.49 15.0522 150.938 9.84564 157.2 7.62679L157.331 7.58285C161.264 5.82535 165.9 6.37457 170.755 9.1646L277.594 70.8309C289.26 77.5753 298.75 95.6556 298.75 111.166V392.849C298.75 397.375 297.96 401.285 296.378 404.47L296.268 404.668C296.18 404.844 296.092 404.998 296.004 405.174L295.916 405.327C290.622 414.73 281.35 416.553 280.955 416.641L280.274 416.773H280.318ZM150.894 20.6982L150.784 21.9944C150.631 23.3345 150.565 24.4988 150.565 25.6192V307.281C150.565 322.197 159.638 339.575 170.799 346.012L277.857 407.832L281.35 414.664C283.481 414.071 290.292 411.676 294.378 404.427L295.257 404.734L294.444 404.295C294.51 404.163 294.598 404.009 294.664 403.877L294.73 403.724L295.587 404.075L294.752 403.658C296.202 400.714 296.927 397.089 296.927 392.849V111.188C296.927 96.2707 287.853 78.8935 276.693 72.4566L169.854 10.7683C165.46 8.21995 161.33 7.73663 157.925 9.34035L157.463 9.56004L157.397 9.5161C152.784 11.2516 148.587 14.7666 147.115 16.0848L150.235 20.852L150.872 20.6982H150.894Z" fill="#181818"/>
<path d="M268.083 414.225L161.244 352.558C149.82 345.968 140.549 328.261 140.549 313.015V31.3532C140.549 16.1069 149.82 9.12084 161.244 15.7115L268.083 77.3778C279.507 83.9684 288.778 101.675 288.778 116.922V398.583C288.778 413.829 279.507 420.815 268.083 414.225Z" fill="#FBFBFB"/>
<path d="M276.321 417.63C273.574 417.63 270.63 416.751 267.621 415.016L160.782 353.349C149.116 346.627 139.625 328.525 139.625 313.015V31.3532C139.625 23.0051 142.393 16.6122 147.248 13.8221C151.313 11.4715 156.432 11.8669 161.705 14.9206L268.543 76.5869C280.209 83.3313 289.7 101.412 289.7 116.922V398.583C289.7 406.931 286.932 413.324 282.077 416.114C280.319 417.125 278.386 417.63 276.299 417.63H276.321ZM153.048 14.1736C151.291 14.1736 149.643 14.591 148.193 15.4258C143.931 17.8863 141.492 23.6861 141.492 31.3532V313.015C141.492 327.931 150.566 345.309 161.727 351.746L268.565 413.412C273.245 416.114 277.727 416.509 281.176 414.51C285.438 412.05 287.877 406.25 287.877 398.583V116.922C287.877 102.005 278.803 84.6274 267.643 78.1906L160.804 16.5243C158.101 14.9645 155.465 14.1736 153.048 14.1736Z" fill="#181818"/>
<path d="M261.624 82.5622L223.902 61.0109C223.396 60.7253 222.759 61.0768 222.759 61.6699V64.0645C222.759 67.9969 218.475 70.4355 215.092 68.4143L212.873 67.0743C209.116 64.8115 206.809 60.7473 206.809 56.3755V52.3552C206.809 51.3886 206.282 50.4878 205.447 50.0045L158.981 23.2905C153.225 19.9732 148.524 22.6974 148.524 29.3319V314.091C148.524 326.284 157.18 341.266 167.747 347.374L270.39 406.623C276.146 409.941 280.847 407.217 280.847 400.582V115.845C280.847 103.652 272.191 88.6696 261.624 82.5622Z" fill="#B9FF66"/>
<path d="M275.025 408.974C273.443 408.974 271.685 408.447 269.906 407.436L167.263 348.187C156.41 341.926 147.578 326.635 147.578 314.113V29.354C147.578 25.795 148.83 23.1148 151.115 21.7967C153.4 20.4786 156.344 20.7422 159.42 22.5217L205.886 49.2357C207.006 49.8728 207.709 51.103 207.709 52.3992V56.4195C207.709 60.4617 209.862 64.2623 213.312 66.3274L215.531 67.6675C216.827 68.4364 218.387 68.4584 219.705 67.7114C221.023 66.9645 221.814 65.6244 221.814 64.1085V61.7139C221.814 61.0988 222.121 60.5716 222.649 60.264C223.176 59.9564 223.791 59.9564 224.318 60.264L262.04 81.8154C272.893 88.0765 281.725 103.367 281.725 115.889V400.604C281.725 404.163 280.473 406.843 278.188 408.161C277.222 408.711 276.145 408.996 274.981 408.996L275.025 408.974ZM154.345 22.8073C153.51 22.8073 152.741 23.005 152.06 23.3785C150.368 24.3451 149.446 26.4541 149.446 29.332V314.091C149.446 326.02 157.86 340.607 168.186 346.561L270.828 405.811C273.311 407.239 275.596 407.502 277.287 406.536C278.979 405.569 279.902 403.46 279.902 400.582V115.845C279.902 103.916 271.487 89.3506 261.162 83.3751L223.703 61.9776V64.0866C223.703 66.2834 222.561 68.2167 220.671 69.2932C218.76 70.3696 216.519 70.3477 214.63 69.2273L212.411 67.8872C208.39 65.4706 205.908 61.0769 205.908 56.3975V52.3772C205.908 51.7401 205.556 51.147 205.007 50.8174L158.541 24.1034C157.047 23.2466 155.619 22.8073 154.367 22.8073H154.345Z" fill="#181818"/>
<path d="M217.31 62.4168C217.31 64.0865 216.123 64.7675 214.673 63.9327C213.223 63.0979 212.037 61.0548 212.037 59.3632C212.037 57.6716 213.223 57.0125 214.673 57.8473C216.123 58.6821 217.31 60.7252 217.31 62.4168Z" fill="#181818"/>
<path d="M284.361 95.0625L283.834 94.1398L291.919 89.5923L292.424 90.515L284.361 95.0625Z" fill="#B9FF66"/>
<path d="M160.606 15.2281L159.815 14.5032C159.968 14.3494 163.396 10.6586 168.668 9.45036L168.91 10.4829C163.967 11.6253 160.649 15.1842 160.606 15.2281Z" fill="#B9FF66"/>
<path d="M164.911 17.6885L164.12 16.9635C164.274 16.8097 167.701 13.119 172.974 11.9107L173.216 12.9432C168.273 14.0856 164.955 17.6446 164.911 17.6885Z" fill="#B9FF66"/>
<path d="M296.107 100.735L287.805 104.86L288.284 105.824L296.586 101.699L296.107 100.735Z" fill="#B9FF66"/>
<path d="M289.765 384.896L289.282 383.952C289.282 383.952 294.598 381.162 297.498 378.459L298.223 379.25C295.213 382.062 290.007 384.786 289.787 384.896H289.765Z" fill="#B9FF66"/>
<path d="M289.765 398.165L289.282 397.221C289.282 397.221 294.598 394.431 297.498 391.728L298.223 392.519C295.213 395.331 290.007 398.055 289.787 398.165H289.765Z" fill="#B9FF66"/>
<path d="M289.765 403.57L289.282 402.625C289.282 402.625 294.598 399.835 297.498 397.133L298.223 397.924C295.213 400.736 290.007 403.46 289.787 403.57H289.765Z" fill="#B9FF66"/>
<path d="M292.249 235.904C291.941 235.904 291.656 235.838 291.392 235.685C290.711 235.289 290.337 234.454 290.337 233.356V214.265C290.337 212.376 291.458 210.245 292.908 209.41L293.259 209.212C293.984 208.795 294.709 208.751 295.303 209.08C295.984 209.476 296.357 210.311 296.357 211.409V230.5C296.357 232.389 295.237 234.52 293.787 235.355L293.435 235.553C293.04 235.794 292.622 235.904 292.249 235.904ZM294.424 209.915C294.204 209.915 293.962 210.025 293.787 210.113L293.435 210.311C292.337 210.948 291.392 212.749 291.392 214.243V233.334C291.392 234.015 291.59 234.542 291.919 234.74C292.227 234.916 292.622 234.784 292.886 234.608L293.237 234.41C294.336 233.773 295.281 231.972 295.281 230.478V211.387C295.281 210.706 295.083 210.179 294.753 209.981C294.643 209.915 294.534 209.893 294.424 209.893V209.915Z" fill="#B9FF66"/>
<path d="M292.249 205.28C291.941 205.28 291.656 205.214 291.392 205.06C290.711 204.665 290.337 203.83 290.337 202.731V183.641C290.337 181.751 291.458 179.62 292.908 178.785L293.259 178.588C293.984 178.17 294.709 178.126 295.303 178.456C295.984 178.851 296.357 179.686 296.357 180.785V199.875C296.357 201.765 295.237 203.896 293.787 204.731L293.435 204.928C293.04 205.17 292.622 205.28 292.249 205.28ZM294.424 179.291C294.204 179.291 293.962 179.401 293.787 179.488L293.435 179.686C292.337 180.323 291.392 182.125 291.392 183.619V202.709C291.392 203.39 291.59 203.918 291.919 204.115C292.227 204.291 292.622 204.159 292.886 203.984L293.237 203.786C294.336 203.149 295.281 201.347 295.281 199.853V180.763C295.281 180.082 295.083 179.554 294.753 179.357C294.643 179.291 294.534 179.269 294.424 179.269V179.291Z" fill="#B9FF66"/>
<path d="M292.249 170.327C291.941 170.327 291.656 170.261 291.392 170.108C290.711 169.712 290.337 168.877 290.337 167.779V157.036C290.337 155.147 291.458 153.016 292.908 152.181L293.259 151.983C293.984 151.566 294.709 151.522 295.303 151.852C295.984 152.247 296.357 153.082 296.357 154.18V164.923C296.357 166.812 295.237 168.943 293.787 169.778L293.435 169.976C293.04 170.217 292.622 170.327 292.249 170.327ZM294.424 152.686C294.204 152.686 293.962 152.796 293.787 152.884L293.435 153.082C292.337 153.719 291.392 155.52 291.392 157.014V167.757C291.392 168.438 291.59 168.965 291.919 169.163C292.227 169.339 292.622 169.207 292.886 169.031L293.237 168.833C294.336 168.196 295.281 166.395 295.281 164.901V154.158C295.281 153.477 295.083 152.95 294.753 152.752C294.643 152.686 294.534 152.664 294.424 152.664V152.686Z" fill="#B9FF66"/>
<path d="M293.503 160.969L293.152 161.167C291.877 161.892 290.845 161.123 290.845 159.431V157.059C290.845 155.367 291.877 153.39 293.152 152.665L293.503 152.467C294.777 151.742 295.81 152.511 295.81 154.203V156.575C295.81 158.267 294.777 160.244 293.503 160.969Z" fill="#B9FF66"/>
<path d="M292.249 161.957C291.941 161.957 291.656 161.892 291.392 161.738C290.711 161.342 290.338 160.507 290.338 159.409L290.337 157.036C290.337 155.147 291.458 153.016 292.908 152.181L293.259 151.983C293.984 151.566 294.709 151.522 295.303 151.852C295.984 152.247 296.357 153.082 296.357 154.18L296.357 156.553C296.357 158.442 295.237 160.573 293.787 161.408L293.435 161.606C293.04 161.848 292.622 161.957 292.249 161.957ZM294.424 152.686C294.204 152.686 293.962 152.796 293.787 152.884L293.435 153.082C292.337 153.719 291.392 155.52 291.392 157.014L291.392 159.387C291.392 160.068 291.59 160.595 291.919 160.793C292.227 160.969 292.623 160.837 292.886 160.661L293.238 160.464C294.336 159.826 295.281 158.025 295.281 156.531L295.281 154.158C295.281 153.477 295.083 152.95 294.753 152.752C294.643 152.686 294.534 152.664 294.424 152.664V152.686Z" fill="#B9FF66"/>
<path d="M289.566 84.8892L281.331 89.7808L281.881 90.7063L290.116 85.8147L289.566 84.8892Z" fill="#B9FF66"/>
<path d="M205.243 308.356C205.199 308.49 205.132 308.623 204.999 308.689C203.289 309.777 191.277 318.014 200.136 329.937C206.065 337.93 204.954 341.837 203.289 343.658C202.889 344.08 203.289 344.768 203.844 344.613C207.952 343.503 214.746 339.861 210.994 327.983C206.198 312.775 217.699 318.325 217.277 325.052C217.233 325.608 217.899 325.896 218.276 325.497C220.807 322.766 225.182 316.105 217.299 308.556C207.885 299.542 205.576 306.935 205.243 308.334V308.356Z" fill="#FBFBFB"/>
<path d="M203.711 345.589C203.2 345.589 202.712 345.323 202.423 344.857C202.068 344.28 202.134 343.547 202.601 343.036C204.776 340.683 203.644 336.22 199.381 330.492C196.561 326.673 195.473 322.832 196.184 319.08C197.338 312.908 202.934 308.911 204.377 307.979C204.643 306.935 205.598 304.182 208.196 303.427C210.771 302.672 214.057 304.182 217.943 307.89C226.513 316.105 221.518 323.387 218.964 326.14C218.52 326.607 217.876 326.762 217.277 326.496C216.677 326.229 216.322 325.652 216.367 324.986C216.522 322.61 214.879 320.323 213.214 319.48C212.77 319.258 211.97 318.969 211.46 319.413C210.638 320.123 210.327 322.655 211.904 327.694C213.48 332.712 213.414 336.842 211.682 339.995C209.839 343.347 206.553 344.835 204.11 345.501C203.977 345.545 203.844 345.545 203.711 345.545V345.589ZM209.572 305.115C209.284 305.115 208.995 305.159 208.729 305.226C206.975 305.736 206.308 307.934 206.153 308.578C206.064 308.956 205.82 309.289 205.509 309.489C204.443 310.155 199.07 313.818 198.027 319.435C197.427 322.677 198.382 326.029 200.891 329.404C206.331 336.731 206.153 340.994 204.665 343.414C206.575 342.748 208.751 341.482 210.039 339.151C211.504 336.464 211.526 332.823 210.105 328.316C208.018 321.7 209.017 319.08 210.216 318.059C211.193 317.215 212.592 317.148 214.013 317.881C215.989 318.858 217.965 321.345 218.187 324.209C220.718 321.1 223.205 315.572 216.633 309.289C213.791 306.558 211.349 305.137 209.55 305.137L209.572 305.115Z" fill="#181818"/>
<path d="M217.455 315.86C216.167 313.085 216.501 311.531 217.122 310.71C217.611 310.043 217.477 309.089 216.789 308.622C214.258 306.846 210.328 304.16 209.395 304.182C211.127 312.153 205.31 312.908 204.378 317.925C203.356 323.276 211.061 329.359 211.283 329.47C211.172 329.004 211.039 328.538 210.883 328.027C206.998 315.772 213.747 316.993 216.278 321.455C216.945 319.968 218.743 318.614 217.455 315.883V315.86Z" fill="#181818"/>
<path d="M212.683 331.224L210.84 330.27C210.84 330.27 202.291 323.853 203.446 317.726C203.846 315.572 205.045 314.151 206.177 312.774C207.864 310.754 209.463 308.845 208.486 304.36L208.242 303.227H209.397C210.218 303.161 211.794 303.96 217.323 307.823C217.856 308.201 218.211 308.756 218.322 309.4C218.433 310.044 218.278 310.71 217.878 311.242C217.279 312.064 217.434 313.551 218.322 315.461C219.521 318.036 218.455 319.702 217.678 320.9C217.478 321.211 217.279 321.5 217.145 321.811L216.391 323.476L215.48 321.877C214.37 319.901 212.505 318.88 211.572 319.28C210.573 319.702 210.04 322.166 211.794 327.694C211.928 328.138 212.039 328.538 212.15 328.96L212.727 331.202L212.683 331.224ZM210.573 305.67C211.017 309.888 209.219 312.042 207.598 313.973C206.555 315.217 205.578 316.393 205.267 318.081C204.712 321.011 207.376 324.453 209.485 326.629C207.842 320.412 209.241 318.281 210.795 317.614C212.416 316.904 214.614 317.814 216.191 319.724C216.857 318.68 217.301 317.814 216.59 316.282C215.369 313.662 215.303 311.62 216.346 310.177C216.435 310.043 216.479 309.888 216.457 309.733C216.457 309.644 216.391 309.488 216.235 309.4C213.304 307.357 211.572 306.247 210.573 305.692V305.67Z" fill="#181818"/>
<path d="M226.048 299.986C226.048 299.986 223.783 282.269 210.062 282.246C196.34 282.246 194.075 299.986 194.075 299.986C193.498 302.717 195.03 305.581 198.671 307.668C204.955 311.309 215.168 311.309 221.452 307.668C225.093 305.559 226.603 302.717 226.048 299.986Z" fill="#B9FF66"/>
<path d="M210.084 311.309C205.799 311.309 201.491 310.377 198.227 308.489C194.786 306.513 192.965 303.805 193.054 300.918V300.785C193.076 300.519 193.121 300.252 193.165 299.964V299.853C193.209 299.675 195.696 281.314 210.084 281.314C224.472 281.314 226.981 299.675 227.003 299.853V299.964C227.047 300.186 227.092 300.408 227.092 300.63L227.136 300.896C227.225 303.76 225.404 306.469 221.963 308.467C218.699 310.354 214.391 311.287 210.106 311.287L210.084 311.309ZM195.208 299.053H195.252L195.03 300.186C194.519 302.628 196.029 305.07 199.16 306.869C205.177 310.332 214.991 310.332 221.008 306.869C224.139 305.048 225.648 302.606 225.138 300.186L224.916 299.053H224.982C224.272 295.323 221.119 283.201 210.084 283.201C199.227 283.201 195.963 295.368 195.208 299.053Z" fill="#181818"/>
<path d="M226.315 299.986C226.315 299.986 224.05 282.269 210.328 282.246C209.685 282.246 208.352 282.602 207.731 282.69C219.787 284.222 222.562 299.986 222.562 299.986C223.14 302.717 221.608 305.581 217.966 307.668C215.302 309.2 211.927 310.088 208.441 310.332C213.17 310.643 218.077 309.777 221.697 307.668C225.338 305.559 226.848 302.717 226.293 299.986H226.315Z" fill="#181818"/>
<path d="M202.713 283.023C202.69 284.134 203.401 285.244 204.866 286.087C207.753 287.753 212.415 287.753 215.302 286.087C216.745 285.266 217.456 284.178 217.456 283.068V255.715L202.713 255.781V283.023Z" fill="#181818"/>
<path d="M210.084 288.285C208.041 288.285 205.999 287.819 204.4 286.909C202.69 285.932 201.736 284.511 201.78 283.001V254.871L218.388 254.782V283.09C218.388 284.578 217.456 285.932 215.768 286.909C214.17 287.819 212.127 288.285 210.084 288.285ZM203.645 256.736V283.024C203.645 283.845 204.245 284.644 205.333 285.288C207.908 286.776 212.26 286.776 214.813 285.288C215.901 284.667 216.501 283.867 216.501 283.09V256.669L203.623 256.736H203.645Z" fill="#181818"/>
<path d="M172.116 238.175C172.116 238.175 177.556 280.226 210.15 280.182C242.745 280.137 248.029 238.042 248.029 238.042H248.007C249.339 231.536 245.72 224.787 237.083 219.814C222.14 211.221 197.939 211.266 183.018 219.902C174.403 224.898 170.806 231.692 172.161 238.175H172.116Z" fill="#FBFBFB"/>
<path d="M210.107 281.136C177.112 281.136 171.251 238.73 171.206 238.308L171.162 237.997C169.874 230.915 174.004 224.054 182.53 219.103C197.673 210.311 222.363 210.289 237.528 219.014C246.12 223.943 250.272 230.826 248.962 237.931V238.175C248.873 238.597 243.167 281.092 210.129 281.136H210.084H210.107ZM173.227 239.13C174.359 245.568 181.62 279.271 210.107 279.271H210.151C238.704 279.227 245.832 245.435 246.942 238.996H246.875L247.075 237.864C248.385 231.492 244.566 225.209 236.595 220.635C221.941 212.198 198.095 212.243 183.463 220.724C175.514 225.342 171.717 231.625 173.049 237.997L173.294 239.13H173.205H173.227Z" fill="#181818"/>
<path d="M237.283 218.881C224.493 211.532 204.955 210.511 190.234 215.795C204.355 211.998 221.674 213.397 233.33 220.124C241.967 225.098 245.587 231.869 244.254 238.353H244.277C244.277 238.353 240.302 269.791 218.188 278.361C243.788 272.255 248.229 237.131 248.229 237.131H248.207C249.539 230.626 245.92 223.877 237.283 218.903V218.881Z" fill="#181818"/>
<path d="M210.062 257.535C231.178 257.535 248.296 247.655 248.296 235.466C248.296 223.278 231.178 213.397 210.062 213.397C188.946 213.397 171.828 223.278 171.828 235.466C171.828 247.655 188.946 257.535 210.062 257.535Z" fill="#B9FF66"/>
<path d="M210.063 258.445C200.094 258.445 190.147 256.247 182.553 251.874C175.026 247.522 170.896 241.705 170.896 235.466C170.896 229.227 175.048 223.388 182.553 219.059C197.718 210.311 222.386 210.311 237.551 219.059C245.078 223.41 249.207 229.227 249.207 235.466C249.207 241.705 245.055 247.544 237.551 251.874C229.979 256.247 220.01 258.445 210.041 258.445H210.063ZM210.063 214.33C200.449 214.33 190.813 216.439 183.486 220.679C176.558 224.676 172.762 229.938 172.762 235.488C172.762 241.039 176.581 246.301 183.486 250.297C198.14 258.756 221.964 258.756 236.618 250.297C243.545 246.301 247.342 241.039 247.342 235.488C247.342 229.938 243.523 224.676 236.618 220.679C229.291 216.461 219.677 214.33 210.041 214.33H210.063Z" fill="#181818"/>
<path d="M192.255 225.52C205.755 217.727 226.826 216.994 241.769 223.299C240.37 222.078 238.749 220.924 236.906 219.858C221.986 211.244 197.762 211.244 182.841 219.858C167.921 228.472 167.921 242.46 182.841 251.074C184.262 251.896 185.817 252.629 187.393 253.295C177.557 244.725 179.178 233.068 192.255 225.52Z" fill="#181818"/>
<path d="M236.483 220.058C221.563 211.443 197.339 211.443 182.418 220.058C179.665 221.657 177.4 223.433 175.669 225.32C187.703 223.988 200.647 226.008 209.973 231.381C222.14 238.397 224.383 248.988 216.722 257.336C223.961 256.536 230.888 254.516 236.483 251.274C251.404 242.66 251.404 228.672 236.483 220.058Z" fill="#181818"/>
<path d="M272.476 213.73C272.476 212.176 272.276 210.622 271.943 209.068C270.411 197.856 264.971 168.104 247.564 138.997L210.085 142.15L172.606 138.997C155.198 168.104 149.758 197.856 148.226 209.068C145.828 219.769 151.734 230.981 165.967 239.196C190.324 253.272 229.845 253.272 254.202 239.196C266.392 232.158 272.476 222.944 272.476 213.73Z" fill="#FBFBFB"/>
<path d="M210.063 250.652C193.921 250.652 177.779 247.1 165.479 239.995C151.313 231.825 144.696 220.457 147.294 208.845C148.849 197.478 154.355 167.66 171.784 138.486L172.073 137.976L210.063 141.173L248.053 137.976L248.341 138.486C265.771 167.66 271.277 197.456 272.854 208.912C273.209 210.488 273.409 212.109 273.409 213.708C273.409 223.677 266.748 233.002 254.669 239.995C242.369 247.1 226.227 250.652 210.085 250.652H210.063ZM173.094 139.974C156.065 168.682 150.669 197.922 149.137 209.201C146.695 220.035 153.001 230.648 166.411 238.397C190.48 252.295 229.646 252.295 253.714 238.397C265.194 231.758 271.521 223.011 271.521 213.73C271.521 212.287 271.344 210.799 271.011 209.267C269.457 197.922 264.061 168.682 247.031 139.974L210.063 143.082H209.974L173.072 139.974H173.094Z" fill="#181818"/>
<path d="M272.121 209.068C270.589 197.856 265.149 168.105 247.742 138.997L244.522 139.264C261.797 168.282 267.214 197.9 268.746 209.068C269.101 210.622 269.279 212.176 269.279 213.73C269.279 222.944 263.195 232.158 251.006 239.196C239.26 245.99 223.962 249.476 208.575 249.72C225.095 249.987 241.769 246.479 254.381 239.196C266.57 232.158 272.654 222.944 272.654 213.73C272.654 212.176 272.476 210.622 272.121 209.068Z" fill="#181818"/>
<path d="M210.063 165.418C231.179 165.418 248.297 155.538 248.297 143.349C248.297 131.161 231.179 121.28 210.063 121.28C188.947 121.28 171.829 131.161 171.829 143.349C171.829 155.538 188.947 165.418 210.063 165.418Z" fill="#B9FF66"/>
<path d="M210.064 166.328C200.094 166.328 190.147 164.13 182.554 159.757C175.027 155.405 170.897 149.588 170.897 143.349C170.897 137.11 175.049 131.271 182.554 126.942C197.719 118.194 222.387 118.194 237.551 126.942C245.078 131.293 249.208 137.11 249.208 143.349C249.208 149.588 245.056 155.427 237.551 159.757C229.958 164.13 220.011 166.328 210.042 166.328H210.064ZM210.064 122.212C200.45 122.212 190.813 124.322 183.486 128.562C176.559 132.559 172.762 137.821 172.762 143.371C172.762 148.922 176.581 154.184 183.486 158.18C198.141 166.639 221.965 166.639 236.619 158.18C243.546 154.184 247.343 148.922 247.343 143.371C247.343 137.821 243.524 132.559 236.619 128.562C229.292 124.344 219.678 122.212 210.042 122.212H210.064Z" fill="#181818"/>
<path d="M191.523 134.224C206.266 125.72 230.023 125.631 244.988 133.913C243.167 131.67 240.658 129.583 237.461 127.741C222.541 119.126 198.317 119.126 183.396 127.741C168.476 136.355 168.476 150.343 183.396 158.957C183.596 159.068 183.796 159.157 183.996 159.268C177.29 151.075 179.799 140.995 191.523 134.224Z" fill="#181818"/>
<path d="M236.507 127.741C221.587 119.126 197.363 119.126 182.442 127.741C179.667 129.339 177.402 131.138 175.648 133.047C189.969 128.917 207.798 130.294 219.722 137.177C231.867 144.192 234.132 154.761 226.516 163.087C230.113 162.043 233.51 160.689 236.507 158.957C251.428 150.343 251.428 136.355 236.507 127.741Z" fill="#181818"/>
<path d="M248.007 134.734H248.03C248.03 134.734 242.679 92.6611 210.084 92.6611C177.49 92.6611 172.139 134.734 172.139 134.734H172.161C170.807 141.24 174.426 148.011 183.041 152.985C197.961 161.599 222.185 161.599 237.106 152.985C245.743 147.989 249.34 141.218 248.007 134.734Z" fill="#FBFBFB"/>
<path d="M210.062 160.356C200.093 160.356 190.146 158.158 182.552 153.784C173.96 148.833 169.83 141.95 171.162 134.845V134.601C171.251 134.179 177.046 91.7064 210.04 91.7064C243.078 91.7064 248.851 134.179 248.918 134.601L248.962 134.934C250.228 141.995 246.098 148.855 237.55 153.784C229.956 158.158 220.009 160.356 210.04 160.356H210.062ZM173.205 133.802H173.249L173.049 134.934C171.717 141.306 175.536 147.59 183.485 152.185C198.139 160.644 221.963 160.644 236.617 152.185C244.588 147.59 248.385 141.306 247.053 134.934L246.831 133.802H246.919C245.809 127.363 238.593 93.5936 210.062 93.5936C181.553 93.5936 174.337 127.363 173.227 133.802H173.205Z" fill="#181818"/>
<path d="M248.033 134.734H248.055C248.055 134.734 242.704 92.6611 210.109 92.6611C202.472 92.6611 196.343 94.9923 191.414 98.5225C195.855 95.9692 201.139 94.3706 207.467 94.3706C240.062 94.3706 245.413 136.444 245.413 136.444L245.501 137.043C246.7 142.794 243.903 148.122 237.308 152.874C245.812 147.9 249.365 141.173 248.033 134.712V134.734Z" fill="#181818"/>
<path d="M237.773 153.695L236.752 152.141C243.058 147.612 245.7 142.594 244.59 137.243L244.501 136.577C244.457 136.155 238.861 95.3253 207.488 95.3031C201.782 95.3031 196.542 96.6574 191.924 99.3439L190.902 97.7676C196.475 93.7711 202.937 91.7285 210.13 91.7285C243.169 91.7285 248.942 134.201 249.008 134.623L249.053 134.934C250.318 141.95 246.255 148.766 237.818 153.695H237.773ZM211.063 93.5935C240.926 96.5464 246.299 135.911 246.344 136.311L246.433 136.91C246.788 138.598 246.81 140.241 246.521 141.861C247.387 139.619 247.609 137.265 247.099 134.912L246.877 133.78H246.943C245.833 127.408 238.773 94.3484 211.063 93.5713V93.5935Z" fill="#181818"/>
<path d="M213.592 99.0774C216.323 100.654 216.323 103.229 213.592 104.806C210.861 106.382 206.42 106.382 203.667 104.806C200.936 103.229 200.936 100.654 203.667 99.0774C206.398 97.5011 210.839 97.5011 213.592 99.0774Z" fill="#B9FF66"/>
<path d="M208.641 106.937C206.687 106.937 204.733 106.493 203.223 105.627C201.602 104.695 200.692 103.385 200.692 101.964C200.692 100.543 201.58 99.2331 203.223 98.3006C206.265 96.5466 211.039 96.5466 214.08 98.3006C215.701 99.2331 216.612 100.543 216.612 101.964C216.612 103.385 215.723 104.695 214.08 105.627C212.548 106.515 210.617 106.937 208.663 106.937H208.641ZM208.641 98.8334C206.998 98.8334 205.355 99.1887 204.156 99.8991C203.156 100.476 202.579 101.231 202.579 101.964C202.579 102.697 203.156 103.429 204.156 104.029C206.598 105.427 210.706 105.427 213.148 104.029C214.147 103.451 214.724 102.697 214.724 101.964C214.724 101.231 214.147 100.499 213.148 99.8991C211.927 99.1887 210.284 98.8334 208.663 98.8334H208.641Z" fill="#181818"/>
<path d="M190.902 121.413C184.352 117.639 181.798 112.266 183.33 107.27C183.397 107.026 183.086 106.848 182.931 107.07C178.623 113.021 175.914 119.77 174.316 125.099C172.917 131.249 176.447 137.821 184.618 142.528C191.434 146.457 200.338 148.456 209.286 148.544C212.794 148.567 216.036 146.679 217.745 143.615L217.834 143.46C220.232 139.153 220.054 133.913 217.39 129.806C215.858 127.452 213.26 125.942 210.44 125.965C203.38 126.009 196.297 124.499 190.924 121.391L190.902 121.413Z" fill="#B9FF66"/>
<path d="M209.286 149.499C199.805 149.41 190.88 147.234 184.174 143.349C175.892 138.575 171.874 131.671 173.428 124.899C174.915 119.97 177.602 112.843 182.198 106.515C182.531 106.049 183.153 105.894 183.641 106.16C184.152 106.427 184.396 107.004 184.241 107.559C182.798 112.31 185.462 117.195 191.39 120.614C196.453 123.544 203.247 125.099 210.441 125.054H210.507C213.593 125.054 216.458 126.653 218.19 129.317C221.032 133.713 221.231 139.33 218.656 143.926L218.567 144.082C216.702 147.434 213.194 149.499 209.397 149.499H209.286ZM181.954 110.179C178.557 115.596 176.425 121.302 175.204 125.365C173.872 131.226 177.558 137.376 185.085 141.728C191.523 145.436 200.116 147.545 209.286 147.634C212.439 147.634 215.37 145.969 216.902 143.193L216.991 143.038C219.211 139.042 219.055 134.179 216.591 130.361C215.214 128.229 212.861 127.008 210.418 126.941C202.914 127.052 195.764 125.321 190.413 122.235C184.951 119.082 181.954 114.73 181.932 110.179H181.954Z" fill="#181818"/>
<path d="M209.772 144.948C200.824 144.859 195.451 144.104 188.124 140.196C179.798 135.756 175.535 130.472 177.821 122.767C178.932 119.06 180.575 114.686 182.928 110.379C182.906 109.335 183.039 108.292 183.35 107.27C183.417 107.026 183.106 106.848 182.95 107.07C178.643 113.021 175.934 119.77 174.336 125.099C172.937 131.249 176.467 137.821 184.638 142.528C191.454 146.457 200.358 148.544 209.306 148.544C212.836 148.544 215.478 146.013 217.277 144.126C217.388 143.993 217.277 143.815 217.099 143.86C214.146 144.881 210.927 144.948 209.794 144.948H209.772Z" fill="#181818"/>
<path d="M209.284 149.499C199.936 149.499 191.01 147.323 184.149 143.349C175.868 138.575 171.849 131.671 173.403 124.899C174.891 119.97 177.577 112.843 182.173 106.515C182.506 106.049 183.128 105.894 183.617 106.16C184.127 106.427 184.371 107.004 184.216 107.559C183.95 108.469 183.816 109.402 183.839 110.356V110.601L183.728 110.823C181.729 114.508 179.997 118.749 178.71 123.034C176.756 129.65 179.798 134.69 188.568 139.375C195.828 143.238 200.98 143.948 209.794 144.015C210.971 144.015 214.013 143.948 216.788 142.994C217.277 142.838 217.81 142.994 218.076 143.438C218.342 143.86 218.298 144.415 217.943 144.792C216.477 146.324 213.436 149.499 209.306 149.499H209.284ZM181.974 110.157C178.554 115.574 176.445 121.302 175.202 125.387C173.869 131.249 177.555 137.399 185.082 141.75C191.676 145.547 200.269 147.656 209.284 147.656C211.237 147.656 212.925 146.768 214.435 145.547C212.414 145.902 210.616 145.924 209.772 145.924C200.824 145.836 195.251 145.081 187.68 141.062C181.663 137.843 174.003 132.448 176.911 122.545C178.221 118.194 179.953 113.931 181.974 110.179V110.157Z" fill="#181818"/>
<path d="M185.528 125.987C185.306 128.695 184.085 130.805 182.775 130.694C181.465 130.582 180.599 128.318 180.799 125.609C181.021 122.9 182.242 120.791 183.552 120.902C184.862 121.013 185.728 123.278 185.528 125.987Z" fill="#FBFBFB"/>
<path d="M182.886 131.648C182.886 131.648 182.775 131.648 182.73 131.648C181.731 131.559 180.887 130.804 180.377 129.495C179.955 128.407 179.777 127.008 179.91 125.565C180.021 124.122 180.421 122.767 180.998 121.768C181.709 120.547 182.641 119.903 183.663 120.014C185.528 120.17 186.749 122.789 186.483 126.098C186.216 129.317 184.706 131.67 182.886 131.67V131.648ZM183.485 121.835C183.285 121.835 182.93 122.101 182.597 122.678C182.153 123.433 181.842 124.543 181.753 125.698C181.664 126.852 181.798 127.985 182.109 128.806C182.353 129.45 182.686 129.761 182.863 129.783C183.374 129.783 184.395 128.362 184.595 125.92C184.795 123.455 183.974 121.879 183.485 121.835Z" fill="#181818"/>
<path d="M209.573 135.356C209.573 138.465 207.041 140.951 203.977 140.929C200.913 140.929 198.427 138.376 198.449 135.29C198.449 132.181 200.98 129.695 204.044 129.717C207.108 129.717 209.595 132.27 209.573 135.356Z" fill="#FBFBFB"/>
<path d="M204.023 141.861H203.978C202.247 141.861 200.604 141.151 199.405 139.908C198.183 138.664 197.517 137.021 197.54 135.267C197.54 133.513 198.228 131.893 199.471 130.649C200.692 129.428 202.313 128.762 204.023 128.762H204.067C207.642 128.784 210.551 131.737 210.528 135.356C210.528 137.11 209.84 138.731 208.597 139.974C207.376 141.195 205.755 141.861 204.023 141.861ZM204.023 130.649C202.802 130.649 201.647 131.116 200.781 132.004C199.893 132.892 199.405 134.046 199.405 135.312C199.405 136.555 199.871 137.732 200.737 138.62C201.603 139.508 202.757 139.996 204.001 140.019H204.023C205.244 140.019 206.399 139.552 207.265 138.664C208.153 137.776 208.641 136.622 208.641 135.356C208.641 132.781 206.598 130.672 204.045 130.649H204.023Z" fill="#181818"/>
<path d="M219.122 203.251L215.325 191.506C214.859 190.085 213.527 189.152 212.017 189.197C192.123 189.508 178.002 182.181 172.628 178.85C171.207 177.962 169.364 178.229 168.254 179.516L163.614 184.889C160.639 188.353 158.418 192.416 157.286 196.834C150.803 221.656 156.531 232.069 156.62 232.247C159.173 234.667 162.237 236.954 165.856 239.041C180.2 247.322 199.805 250.719 218.456 249.254C222.941 236.776 222.208 221.679 221.32 213.486C220.943 210 220.188 206.581 219.1 203.251H219.122Z" fill="#B9FF66"/>
<path d="M209.819 250.519C193.211 250.519 177.38 246.767 165.39 239.84C161.793 237.753 158.618 235.422 155.976 232.913L155.798 232.691C155.554 232.247 149.826 221.656 156.376 196.59C157.53 192.15 159.795 187.887 162.903 184.268L167.544 178.873C168.943 177.252 171.274 176.897 173.117 178.029C178.224 181.204 192.234 188.553 211.995 188.242C213.86 188.242 215.614 189.397 216.191 191.217L219.988 202.962C221.098 206.426 221.875 209.911 222.23 213.375C223.119 221.434 223.896 236.843 219.322 249.565L219.122 250.142L218.522 250.186C215.614 250.408 212.705 250.519 209.819 250.519ZM157.375 231.67C159.884 234.045 162.903 236.243 166.323 238.219C179.933 246.079 198.651 249.742 217.79 248.344C222.008 236.088 221.253 221.323 220.41 213.553C220.054 210.222 219.322 206.848 218.234 203.517L214.437 191.772C214.104 190.751 213.149 190.063 212.039 190.107C191.834 190.418 177.402 182.891 172.14 179.628C171.096 178.984 169.764 179.183 168.965 180.094L164.324 185.467C161.393 188.864 159.262 192.86 158.174 197.034C152.201 219.947 156.797 230.471 157.375 231.647V231.67Z" fill="#181818"/>
<path d="M162.545 227.629C162.545 229.005 161.768 230.115 160.813 230.115C159.859 230.115 159.082 229.005 159.082 227.629C159.082 226.252 159.859 225.142 160.813 225.142C161.768 225.142 162.545 226.252 162.545 227.629Z" fill="#FBFBFB"/>
<path d="M160.814 231.048C159.327 231.048 158.15 229.538 158.15 227.629C158.15 225.719 159.327 224.209 160.814 224.209C162.302 224.209 163.479 225.719 163.479 227.629C163.479 229.538 162.302 231.048 160.814 231.048ZM160.814 226.074C160.503 226.074 160.015 226.696 160.015 227.629C160.015 228.561 160.503 229.183 160.814 229.183C161.125 229.183 161.614 228.561 161.614 227.629C161.614 226.696 161.125 226.074 160.814 226.074Z" fill="#181818"/>
<path d="M171.917 186.843C171.274 188.064 170.075 188.686 169.253 188.242C168.431 187.798 168.276 186.466 168.92 185.245C169.564 184.024 170.763 183.402 171.584 183.846C172.406 184.29 172.561 185.622 171.917 186.843Z" fill="#FBFBFB"/>
<path d="M169.83 189.33C169.474 189.33 169.119 189.241 168.808 189.086C168.142 188.73 167.698 188.02 167.587 187.154C167.498 186.399 167.676 185.578 168.076 184.823C168.475 184.068 169.053 183.468 169.741 183.113C170.518 182.714 171.339 182.691 172.006 183.047C172.672 183.402 173.116 184.112 173.227 184.978C173.316 185.733 173.138 186.555 172.738 187.309C172.072 188.575 170.918 189.352 169.83 189.352V189.33ZM170.984 184.667C170.984 184.667 170.74 184.712 170.607 184.778C170.274 184.956 169.963 185.289 169.741 185.711C169.519 186.133 169.408 186.577 169.452 186.954C169.474 187.198 169.563 187.376 169.674 187.443C169.941 187.576 170.651 187.265 171.073 186.444C171.295 186.022 171.384 185.578 171.362 185.2C171.339 184.956 171.251 184.778 171.14 184.712C171.095 184.712 171.051 184.69 170.984 184.69V184.667Z" fill="#181818"/>
<path d="M214.723 242.305C214.723 243.681 213.613 244.791 212.236 244.791C210.86 244.791 209.75 243.681 209.75 242.305C209.75 240.928 210.86 239.818 212.236 239.818C213.613 239.818 214.723 240.928 214.723 242.305Z" fill="#FBFBFB"/>
<path d="M212.259 245.724C210.371 245.724 208.839 244.192 208.839 242.305C208.839 240.417 210.371 238.885 212.259 238.885C214.146 238.885 215.678 240.417 215.678 242.305C215.678 244.192 214.146 245.724 212.259 245.724ZM212.259 240.75C211.415 240.75 210.704 241.439 210.704 242.305C210.704 243.17 211.393 243.859 212.259 243.859C213.125 243.859 213.813 243.17 213.813 242.305C213.813 241.439 213.125 240.75 212.259 240.75Z" fill="#181818"/>
<path d="M211.659 197.367C211.659 198.743 210.549 199.853 209.173 199.853C207.796 199.853 206.686 198.743 206.686 197.367C206.686 195.99 207.796 194.88 209.173 194.88C210.549 194.88 211.659 195.99 211.659 197.367Z" fill="#FBFBFB"/>
<path d="M209.196 200.786C207.308 200.786 205.776 199.254 205.776 197.367C205.776 195.48 207.308 193.948 209.196 193.948C211.083 193.948 212.615 195.48 212.615 197.367C212.615 199.254 211.083 200.786 209.196 200.786ZM209.196 195.813C208.352 195.813 207.641 196.501 207.641 197.367C207.641 198.233 208.33 198.921 209.196 198.921C210.062 198.921 210.75 198.233 210.75 197.367C210.75 196.501 210.062 195.813 209.196 195.813Z" fill="#181818"/>
<path d="M209.039 110.69C199.248 110.69 196.872 104.295 196.761 104.007L198.515 103.385C198.604 103.651 200.957 109.668 211.149 108.736L211.326 110.601C210.527 110.667 209.75 110.712 209.017 110.712L209.039 110.69Z" fill="#181818"/>
<path d="M225.493 244.214L225.271 242.349C225.426 242.349 240.858 240.328 252.936 233.024L253.913 234.622C241.502 242.149 226.159 244.125 225.515 244.214H225.493Z" fill="#181818"/>
<path d="M256.665 232.713L255.555 231.226L256.11 231.981L255.555 231.248C255.555 231.248 258.042 229.294 259.108 224.809L260.928 225.231C259.707 230.426 256.821 232.647 256.688 232.735L256.665 232.713Z" fill="#181818"/>
<path d="M208.352 277.007C193.076 276.652 187.525 266.971 187.281 266.55L188.902 265.639C189.101 266.017 194.23 274.809 208.374 275.142L208.329 277.007H208.352Z" fill="#181818"/>
<path d="M209.218 307.757C200.98 307.757 196.673 302.473 196.473 302.228L197.938 301.052C198.116 301.274 202.645 306.736 211.26 305.759L211.46 307.624C210.683 307.712 209.928 307.757 209.218 307.757Z" fill="#181818"/>
<path d="M184.528 99.655L183.196 98.345C183.573 97.9676 192.544 89.0867 207.331 87.5103L207.531 89.3753C193.387 90.8851 184.595 99.5884 184.506 99.6772L184.528 99.655Z" fill="#181818"/>
<path d="M229.557 280.826L228.602 279.227C228.602 279.227 238.993 272.944 243.478 262.664L245.188 263.419C240.458 274.254 230.001 280.582 229.557 280.848V280.826Z" fill="#181818"/>
<path d="M143.896 212.198L142.053 211.91C142.075 211.732 144.695 195.036 147.915 185.467L149.691 186.066C146.516 195.48 143.918 212.021 143.896 212.198Z" fill="#181818"/>
<path d="M221.675 90.6408C218.678 89.5307 211.728 89.3753 211.639 89.3753L211.684 87.5103C211.972 87.5103 219.011 87.6879 222.319 88.8868L221.675 90.6408Z" fill="#181818"/>
<path d="M221.141 283.934L220.652 282.136C220.652 282.136 223.561 281.336 226.714 279.871L227.513 281.558C224.205 283.112 221.252 283.912 221.141 283.956V283.934Z" fill="#181818"/>
<path d="M275.783 206.026C273.207 192.216 269.388 180.049 266.657 172.279L268.411 171.657C271.187 179.494 275.028 191.772 277.626 205.693L275.783 206.026Z" fill="#181818"/>
<path d="M265.347 168.682C263.282 163.154 261.817 159.868 261.795 159.845L263.504 159.068C263.504 159.068 265.036 162.443 267.101 168.038L265.347 168.682Z" fill="#181818"/>
<path d="M233.242 150.654L232.487 148.944C232.487 148.944 239.947 145.525 240.191 139.552L242.057 139.641C241.746 146.79 233.575 150.498 233.242 150.654Z" fill="#181818"/>
<path d="M201.004 218.548C201.559 210.844 195.698 202.54 188.104 200.52C187.238 200.298 183.419 200.143 182.598 200.098C182.598 200.098 175.271 204.161 175.16 210.555C175.049 216.883 178.801 223.277 184.53 226.297C184.707 226.386 184.863 226.541 184.951 226.741C185.329 227.562 186.239 229.894 185.173 231.137C185.062 231.27 183.397 231.736 183.575 231.803C185.018 232.247 190.902 232.891 191.235 228.206H191.834C197.119 228.206 200.605 224.476 201.027 218.548H201.004Z" fill="#181818"/>
<path d="M185.995 233.046C184.885 233.046 183.886 232.869 183.309 232.691L182.665 232.491V231.803C182.621 231.07 183.198 230.893 184.042 230.582C184.219 230.515 184.419 230.449 184.552 230.404C184.974 229.672 184.597 228.206 184.086 227.141C178.069 223.943 174.095 217.283 174.228 210.556C174.339 203.695 181.843 199.477 182.154 199.299L182.376 199.166H182.998C185.329 199.299 187.572 199.41 188.349 199.632C196.298 201.763 202.515 210.445 201.937 218.637C201.493 225.054 197.697 229.05 192.035 229.139C191.768 230.338 191.124 231.315 190.17 231.981C188.971 232.802 187.372 233.069 185.995 233.069V233.046ZM182.843 201.053C181.666 201.763 176.182 205.405 176.093 210.578C175.982 216.639 179.557 222.611 184.974 225.475C185.329 225.675 185.64 225.986 185.796 226.364C186.328 227.54 187.039 229.627 186.262 231.181C187.239 231.159 188.327 230.959 189.104 230.427C189.837 229.916 190.214 229.183 190.281 228.162L190.347 227.318L191.791 227.274C196.586 227.274 199.673 223.988 200.072 218.504C200.583 211.155 195.01 203.34 187.883 201.43C187.439 201.319 185.773 201.186 182.931 201.075H182.843V201.053Z" fill="#181818"/>
<path d="M198.47 218.548C199.025 210.844 193.164 202.54 185.57 200.52C178.598 198.655 172.737 203.251 172.604 210.578C172.493 216.905 176.245 223.3 181.973 226.319C182.151 226.408 182.306 226.563 182.395 226.763C182.773 227.585 183.683 229.916 182.617 231.159C182.506 231.292 182.617 231.559 182.817 231.625C184.26 232.069 188.368 232.913 188.679 228.228H189.278C194.563 228.228 198.048 224.498 198.47 218.57V218.548Z" fill="#FBFBFB"/>
<path d="M185.038 232.913C184.083 232.913 183.173 232.713 182.551 232.513C182.152 232.38 181.819 232.047 181.708 231.625C181.597 231.248 181.686 230.826 181.93 230.537C182.507 229.871 182.085 228.295 181.552 227.14C175.535 223.943 171.561 217.283 171.672 210.533C171.738 206.692 173.337 203.295 176.068 201.253C178.755 199.232 182.196 198.633 185.815 199.61C193.764 201.741 199.981 210.422 199.404 218.615C198.96 225.009 195.163 229.028 189.523 229.116C189.279 230.471 188.68 231.492 187.747 232.136C186.926 232.713 185.949 232.891 185.038 232.891V232.913ZM183.839 230.915C184.683 231.092 185.86 231.181 186.681 230.626C187.325 230.182 187.68 229.361 187.769 228.162L187.836 227.318L189.279 227.274C194.075 227.274 197.161 223.988 197.561 218.504C198.072 211.155 192.499 203.34 185.371 201.43C182.352 200.631 179.465 201.097 177.245 202.762C174.936 204.494 173.648 207.269 173.581 210.578C173.47 216.639 177.045 222.611 182.463 225.475C182.818 225.675 183.129 225.986 183.284 226.363C183.706 227.274 184.461 229.316 183.861 230.915H183.839Z" fill="#181818"/>
<path d="M180.819 213.02C180.731 214.152 179.798 214.752 178.71 214.397C177.622 214.019 176.801 212.82 176.889 211.688C176.978 210.556 177.911 209.956 178.999 210.311C180.087 210.667 180.908 211.888 180.819 213.02Z" fill="#B9FF66"/>
<path d="M179.332 215.44C179.021 215.44 178.71 215.396 178.399 215.285C176.912 214.774 175.824 213.175 175.935 211.621C176.001 210.8 176.379 210.089 177.023 209.667C177.666 209.245 178.488 209.157 179.287 209.423C180.775 209.934 181.863 211.532 181.752 213.086C181.685 213.908 181.308 214.618 180.664 215.04C180.264 215.307 179.798 215.44 179.309 215.44H179.332ZM178.377 211.133C178.266 211.133 178.155 211.155 178.066 211.221C177.911 211.31 177.822 211.51 177.822 211.754C177.777 212.465 178.333 213.286 179.021 213.508C179.265 213.597 179.487 213.575 179.643 213.486C179.798 213.397 179.887 213.198 179.887 212.953C179.931 212.243 179.376 211.421 178.688 211.199C178.577 211.155 178.466 211.133 178.355 211.133H178.377Z" fill="#181818"/>
<path d="M187.502 215.307C187.413 216.439 186.481 217.039 185.393 216.683C184.305 216.306 183.483 215.107 183.572 213.975C183.661 212.842 184.594 212.243 185.682 212.598C186.77 212.976 187.591 214.174 187.502 215.307Z" fill="#B9FF66"/>
<path d="M186.015 217.705C185.704 217.705 185.393 217.66 185.082 217.549C183.595 217.038 182.507 215.44 182.618 213.886C182.684 213.064 183.062 212.354 183.706 211.932C184.349 211.51 185.171 211.421 185.97 211.688C187.458 212.198 188.546 213.797 188.435 215.351C188.368 216.173 187.991 216.883 187.347 217.305C186.947 217.571 186.481 217.705 185.992 217.705H186.015ZM185.06 213.397C184.949 213.397 184.838 213.419 184.749 213.486C184.594 213.575 184.505 213.775 184.505 214.019C184.46 214.729 185.015 215.551 185.704 215.773C185.948 215.862 186.17 215.84 186.325 215.751C186.481 215.662 186.57 215.462 186.57 215.218C186.614 214.507 186.059 213.686 185.371 213.464C185.26 213.419 185.149 213.397 185.038 213.397H185.06Z" fill="#181818"/>
<path d="M194.186 217.571C194.097 218.704 193.165 219.303 192.077 218.948C190.989 218.57 190.167 217.371 190.256 216.239C190.345 215.107 191.277 214.507 192.365 214.863C193.453 215.24 194.275 216.439 194.186 217.571Z" fill="#B9FF66"/>
<path d="M192.699 219.991C192.388 219.991 192.077 219.947 191.766 219.836C190.278 219.325 189.19 217.727 189.301 216.173C189.368 215.351 189.746 214.641 190.389 214.219C191.033 213.797 191.855 213.708 192.654 213.974C194.142 214.485 195.23 216.084 195.119 217.638C195.052 218.459 194.675 219.17 194.031 219.592C193.631 219.858 193.165 219.991 192.676 219.991H192.699ZM191.744 215.684C191.633 215.684 191.522 215.706 191.433 215.773C191.278 215.862 191.189 216.062 191.189 216.306C191.144 217.016 191.699 217.838 192.388 218.06C192.632 218.149 192.854 218.126 193.032 218.038C193.187 217.949 193.254 217.749 193.276 217.505C193.32 216.794 192.765 215.973 192.077 215.751C191.966 215.706 191.855 215.684 191.744 215.684Z" fill="#181818"/>
<path d="M338.048 210.556L295.926 190.107C294.024 189.175 292.491 190.174 292.491 192.283V211.799C292.491 213.93 294.024 216.395 295.926 217.327L322.061 230.005C322.695 232.625 321.955 234.157 321.479 234.801C321.347 234.978 321.532 235.356 321.823 235.511C327.266 238.175 328.878 234.823 329.275 233.513L338.048 237.753C339.95 238.664 341.483 237.687 341.483 235.578V216.062C341.483 213.93 339.95 211.466 338.048 210.533V210.556Z" fill="#181818"/>
<path d="M339.396 238.841C338.815 238.841 338.207 238.686 337.599 238.397L329.751 234.578C329.328 235.444 328.536 236.466 327.135 236.954C325.576 237.509 323.621 237.221 321.374 236.133C321.005 235.955 320.714 235.622 320.608 235.245C320.529 234.956 320.555 234.667 320.714 234.423C321.031 233.979 321.718 232.736 321.242 230.449L295.452 217.927C293.285 216.883 291.594 214.175 291.594 211.777V192.261C291.594 190.884 292.175 189.796 293.206 189.308C294.104 188.864 295.214 188.931 296.297 189.463L338.418 209.912C340.585 210.955 342.277 213.664 342.277 216.062V235.578C342.277 236.954 341.695 238.042 340.665 238.53C340.268 238.73 339.819 238.819 339.343 238.819L339.396 238.841ZM328.721 232.425L338.445 237.154C338.841 237.332 339.396 237.531 339.845 237.309C340.321 237.087 340.612 236.443 340.612 235.6V216.084C340.612 214.219 339.238 211.977 337.599 211.177L295.478 190.729C295.082 190.529 294.527 190.352 294.078 190.574C293.602 190.796 293.311 191.439 293.311 192.283V211.799C293.311 213.664 294.685 215.906 296.324 216.706L322.801 229.539L322.881 229.849C323.515 232.491 322.828 234.157 322.352 234.934C324.043 235.755 325.417 235.977 326.474 235.622C327.69 235.2 328.218 234.001 328.43 233.335L328.721 232.425Z" fill="#FBFBFB"/>
<path d="M303.031 203.771L302.172 205.021L330.915 218.964L331.774 217.714L303.031 203.771Z" fill="#FBFBFB"/>
<path d="M303.021 209.31L302.162 210.56L330.905 224.503L331.764 223.253L303.021 209.31Z" fill="#FBFBFB"/>
<path d="M366.084 199.965L348.3 191.284C347.111 190.707 346.16 191.328 346.16 192.638V200.964C346.16 202.274 347.111 203.828 348.3 204.383L356.148 208.247C356.545 209.867 356.095 210.822 355.805 211.222C355.725 211.333 355.831 211.577 356.016 211.666C359.398 213.309 360.403 211.244 360.64 210.422L366.084 213.064C367.273 213.642 368.224 213.02 368.224 211.71V203.384C368.224 202.052 367.273 200.52 366.084 199.965Z" fill="#B9FF66"/>
<path d="M398.135 247.772C397.11 247.772 396.084 247.501 395.058 247.013L383.968 241.589C383.199 242.836 381.981 244.192 379.994 244.843C377.366 245.765 374.225 245.332 370.635 243.542C369.93 243.162 369.353 242.511 369.096 241.806C368.904 241.155 369.032 240.558 369.353 240.07C369.673 239.582 370.635 237.955 370.122 234.809L351.853 225.804C348.391 224.123 345.635 219.784 345.635 215.932V195.592C345.635 193.259 346.66 191.415 348.455 190.547C350.058 189.788 352.045 189.842 353.904 190.764L397.046 211.973C400.507 213.654 403.263 218.048 403.263 221.845V242.186C403.263 244.518 402.238 246.362 400.443 247.23C399.738 247.555 398.904 247.772 398.071 247.772H398.135ZM381.533 236.382L397.11 243.975C397.687 244.247 398.135 244.355 398.456 244.192C398.84 244.03 399.225 243.325 399.225 242.186V221.845C399.225 219.295 397.302 216.095 395.058 215.01L351.917 193.802C351.34 193.53 350.891 193.476 350.635 193.585C350.25 193.747 349.865 194.453 349.865 195.592V215.932C349.865 218.482 351.789 221.736 354.032 222.767L373.904 232.585L374.097 233.344C374.93 236.924 374.289 239.419 373.584 240.884C375.122 241.535 377.045 242.077 378.455 241.589C380.058 241.046 380.699 239.311 380.956 238.551L381.661 236.327L381.533 236.382Z" fill="#FBFBFB"/>
<path d="M283.555 75.8763L248.918 55.872C247.364 54.9617 246.098 55.9164 246.098 58.0034V87.5325C246.098 89.6195 247.364 92.0395 248.918 92.9276L270.411 105.339C270.922 107.892 270.322 109.402 269.945 110.046C269.834 110.223 269.989 110.601 270.233 110.734C274.718 113.332 276.028 110.068 276.361 108.78L283.555 112.932C285.109 113.842 286.375 112.887 286.375 110.8V81.2714C286.375 79.1844 285.109 76.7644 283.555 75.8763Z" fill="#B9FF66"/>
<path d="M284.666 113.998C284.2 113.998 283.689 113.842 283.178 113.554L276.74 109.824C276.384 110.69 275.74 111.666 274.586 112.133C273.276 112.666 271.699 112.399 269.834 111.333C269.546 111.156 269.301 110.823 269.19 110.467C269.124 110.179 269.146 109.89 269.301 109.646C269.568 109.224 270.123 108.003 269.746 105.783L248.541 93.5494C246.765 92.5281 245.344 89.8638 245.344 87.5325V58.0035C245.344 56.6492 245.833 55.5834 246.676 55.095C247.431 54.6732 248.342 54.7176 249.252 55.2504L283.889 75.2547C285.665 76.276 287.086 78.9403 287.086 81.2715V110.801C287.086 112.155 286.598 113.221 285.754 113.709C285.421 113.909 285.044 113.998 284.666 113.998ZM275.874 107.692L283.889 112.332C284.2 112.51 284.666 112.688 285.021 112.488C285.399 112.266 285.643 111.644 285.643 110.823V81.2937C285.643 79.4731 284.511 77.2973 283.178 76.5202L248.541 56.5159C248.231 56.3383 247.764 56.1607 247.409 56.3605C247.032 56.5825 246.787 57.2042 246.787 58.0257V87.5547C246.787 89.3753 247.92 91.5511 249.252 92.3282L271.011 104.895L271.078 105.206C271.588 107.781 271.033 109.424 270.656 110.179C272.032 110.956 273.165 111.2 274.031 110.845C275.03 110.423 275.474 109.269 275.629 108.603L275.874 107.692Z" fill="#FBFBFB"/>
<path d="M254.775 68.8419L254.053 70.0917L277.685 83.735L278.407 82.4852L254.775 68.8419Z" fill="#FBFBFB"/>
<path d="M254.783 74.2591L254.062 75.5089L277.694 89.1522L278.415 87.9024L254.783 74.2591Z" fill="#FBFBFB"/>
<path d="M254.785 79.6765L254.064 80.9262L277.696 94.5695L278.417 93.3198L254.785 79.6765Z" fill="#FBFBFB"/>
<path d="M254.771 85.0938L254.049 86.3436L277.681 99.9869L278.403 98.7371L254.771 85.0938Z" fill="#FBFBFB"/>
<path d="M270.077 119.593L258.664 112.976C257.91 112.532 257.288 112.999 257.288 114.02V120.37C257.288 121.369 257.91 122.546 258.664 122.99L263.705 125.943C263.949 127.186 263.66 127.919 263.483 128.229C263.438 128.318 263.505 128.496 263.616 128.562C265.792 129.828 266.413 128.229 266.591 127.608L270.077 129.628C270.832 130.072 271.453 129.606 271.453 128.585V122.235C271.453 121.236 270.832 120.059 270.077 119.615V119.593Z" fill="#B9FF66"/>
<path d="M270.609 130.494C270.321 130.494 270.01 130.405 269.699 130.228L266.923 128.629C266.701 129.006 266.368 129.362 265.88 129.584C265.147 129.895 264.259 129.761 263.26 129.184C263.038 129.051 262.838 128.807 262.771 128.54L262.705 128.252L262.882 127.874C262.949 127.741 263.171 127.297 263.06 126.431L258.309 123.656C257.332 123.078 256.577 121.702 256.577 120.414V114.064C256.577 113.265 256.888 112.643 257.398 112.333C257.865 112.066 258.464 112.088 259.019 112.399L270.432 119.015C271.409 119.593 272.163 120.969 272.163 122.257V128.607C272.163 129.406 271.853 130.028 271.342 130.339C271.12 130.472 270.876 130.516 270.631 130.516L270.609 130.494ZM266.124 126.498L270.432 128.984C270.565 129.051 270.609 129.051 270.631 129.051C270.631 129.051 270.742 128.895 270.742 128.562V122.213C270.742 121.458 270.276 120.525 269.743 120.214L258.331 113.598L258.153 113.531C258.153 113.531 258.042 113.687 258.042 114.02V120.37C258.042 121.125 258.508 122.057 259.063 122.368L264.392 125.476L264.459 125.787C264.659 126.831 264.548 127.608 264.37 128.096C264.792 128.296 265.147 128.34 265.369 128.252C265.724 128.096 265.88 127.63 265.924 127.408L266.169 126.498H266.124Z" fill="#FBFBFB"/>
<path d="M363.46 286.257L331.611 267.792C329.504 266.553 327.769 267.854 327.769 270.705V288.425C327.769 291.213 329.504 294.497 331.611 295.736L345.676 303.977C346.358 307.447 345.552 309.492 345.057 310.359C344.933 310.607 345.119 311.102 345.428 311.288C351.501 314.82 353.236 310.359 353.731 308.624L363.46 314.262C365.566 315.502 367.301 314.2 367.301 311.35V293.63C367.301 290.842 365.566 287.558 363.46 286.319V286.257Z" fill="#B9FF66"/>
<path d="M364.945 316.617C364.14 316.617 363.272 316.369 362.405 315.873L354.659 311.412C354.04 312.466 353.11 313.457 351.747 314.076C349.702 314.944 347.224 314.572 344.436 312.899C343.816 312.527 343.32 311.846 343.072 311.102L342.886 310.297L343.32 309.182C343.568 308.81 344.188 307.509 343.878 305.092L330.618 297.347C327.892 295.736 325.785 291.895 325.785 288.301V270.581C325.785 268.35 326.652 266.615 328.077 265.748C329.379 265.004 331.052 265.066 332.601 265.934L364.449 284.398C367.176 286.009 369.283 289.85 369.283 293.444V311.164C369.283 313.395 368.415 315.13 366.99 315.997C366.37 316.369 365.689 316.493 365.007 316.493L364.945 316.617ZM352.429 305.464L364.449 312.404C364.449 312.404 364.945 312.589 365.007 312.589C365.007 312.589 365.317 312.156 365.317 311.226V293.506C365.317 291.399 364.016 288.797 362.467 287.929L330.618 269.465L330.122 269.279C330.122 269.279 329.812 269.713 329.812 270.643V288.363C329.812 290.47 331.114 293.072 332.663 293.939L347.534 302.614L347.72 303.481C348.277 306.393 347.967 308.562 347.472 309.925C348.649 310.483 349.64 310.607 350.26 310.359C351.251 309.925 351.685 308.624 351.809 308.066L352.491 305.526L352.429 305.464Z" fill="#FBFBFB"/>
<path d="M337.002 160.196L313.991 146.845C312.487 145.979 311.211 146.891 311.211 148.941V161.745C311.211 163.796 312.441 166.12 313.991 167.031L324.152 173C324.654 175.506 324.061 176.964 323.697 177.602C323.605 177.784 323.742 178.149 323.97 178.286C328.344 180.837 329.62 177.648 329.985 176.372L337.002 180.427C338.506 181.293 339.782 180.382 339.782 178.331V165.527C339.782 163.477 338.552 161.153 337.002 160.242V160.196Z" fill="#B9FF66"/>
<path d="M338.141 182.159C337.548 182.159 336.91 181.977 336.318 181.612L330.713 178.377C330.257 179.106 329.574 179.881 328.617 180.291C327.113 180.929 325.336 180.655 323.286 179.471C322.83 179.197 322.465 178.696 322.283 178.149L322.146 177.557L322.465 176.782C322.602 176.509 323.058 175.597 322.83 173.866L313.261 168.261C311.256 167.122 309.752 164.297 309.752 161.7V148.896C309.752 147.301 310.39 146.025 311.438 145.387C312.395 144.84 313.58 144.886 314.719 145.524L337.731 158.875C339.736 160.014 341.239 162.839 341.239 165.436V178.24C341.239 179.835 340.601 181.111 339.553 181.749C339.098 182.022 338.642 182.113 338.095 182.113L338.141 182.159ZM329.073 174.048L337.776 179.061C338.004 179.197 338.141 179.197 338.141 179.197C338.141 179.197 338.323 178.878 338.323 178.24V165.436C338.323 163.933 337.366 162.064 336.318 161.426L313.306 148.076C313.078 147.939 312.942 147.939 312.942 147.939C312.942 147.939 312.759 148.258 312.759 148.896V161.7C312.759 163.204 313.716 165.072 314.764 165.71L325.518 171.998L325.655 172.636C326.065 174.732 325.837 176.281 325.473 177.283C326.293 177.648 327.022 177.785 327.478 177.557C328.207 177.238 328.526 176.19 328.571 175.916L329.073 174.048Z" fill="#FBFBFB"/>
<path d="M308.577 269.702L279.646 252.851C278.136 251.985 276.915 252.895 276.915 254.916V267.615C276.915 269.636 278.136 271.967 279.646 272.855L295.855 282.336C296.343 284.8 295.766 286.288 295.41 286.887C295.299 287.065 295.455 287.42 295.677 287.553C300.007 290.062 301.294 286.909 301.627 285.666L308.599 289.684C310.109 290.55 311.33 289.64 311.33 287.62V274.92C311.33 272.9 310.109 270.568 308.599 269.68L308.577 269.702Z" fill="#181818"/>
<path d="M309.665 290.75C309.199 290.75 308.711 290.617 308.222 290.328L302.005 286.732C301.65 287.553 301.028 288.508 299.918 288.974C298.652 289.507 297.098 289.241 295.3 288.197C295.011 288.019 294.767 287.709 294.678 287.353C294.612 287.065 294.634 286.776 294.767 286.554C295.011 286.132 295.544 284.956 295.189 282.824L279.269 273.499C277.537 272.5 276.183 269.925 276.183 267.638V254.938C276.183 253.606 276.649 252.585 277.493 252.096C278.226 251.674 279.114 251.719 280.002 252.252L308.955 269.081C310.687 270.08 312.041 272.655 312.041 274.942V287.642C312.041 288.974 311.575 289.995 310.731 290.484C310.398 290.684 310.043 290.773 309.665 290.773V290.75ZM301.139 284.578L308.933 289.085C309.177 289.218 309.643 289.44 309.998 289.241C310.376 289.019 310.576 288.441 310.576 287.642V274.942C310.576 273.188 309.488 271.079 308.2 270.324L279.269 253.495C279.025 253.362 278.559 253.14 278.203 253.362C277.826 253.584 277.626 254.161 277.626 254.96V267.66C277.626 269.414 278.714 271.523 280.002 272.278L296.499 281.936L296.565 282.247C297.054 284.734 296.543 286.31 296.166 287.065C297.476 287.797 298.564 288.019 299.385 287.686C300.34 287.287 300.762 286.177 300.917 285.533L301.161 284.623L301.139 284.578Z" fill="#FBFBFB"/>
<path d="M289.594 294.147L256.044 274.787C254.535 273.921 253.313 274.831 253.313 276.852V301.119C253.313 303.139 254.535 305.47 256.044 306.359L276.849 318.37C277.337 320.834 276.76 322.322 276.405 322.921C276.294 323.099 276.449 323.454 276.671 323.588C281.001 326.096 282.289 322.944 282.622 321.7L289.594 325.719C291.103 326.585 292.325 325.675 292.325 323.654V299.387C292.325 297.367 291.103 295.035 289.594 294.147Z" fill="#181818"/>
<path d="M290.682 326.763C290.215 326.763 289.727 326.629 289.238 326.341L283.021 322.744C282.666 323.565 282.044 324.52 280.934 324.986C279.669 325.519 278.114 325.253 276.316 324.209C276.027 324.032 275.783 323.699 275.694 323.366C275.628 323.077 275.65 322.788 275.783 322.566C276.027 322.144 276.56 320.968 276.205 318.836L255.689 306.98C253.957 305.981 252.603 303.406 252.603 301.119V276.852C252.603 275.52 253.069 274.498 253.913 274.01C254.646 273.588 255.534 273.632 256.422 274.165L289.971 293.526C291.703 294.525 293.079 297.1 293.079 299.387V323.654C293.079 324.986 292.613 326.008 291.769 326.496C291.436 326.674 291.081 326.785 290.704 326.785L290.682 326.763ZM282.155 320.59L289.949 325.097C290.193 325.253 290.659 325.453 291.015 325.231C291.392 325.009 291.592 324.431 291.592 323.632V299.365C291.592 297.611 290.504 295.502 289.216 294.747L255.667 275.386C255.423 275.253 254.956 275.031 254.601 275.231C254.224 275.453 254.024 276.03 254.024 276.83V301.097C254.024 302.851 255.112 304.96 256.4 305.715L277.493 317.882L277.559 318.192C278.048 320.679 277.537 322.255 277.16 323.01C278.47 323.765 279.558 323.965 280.379 323.632C281.334 323.232 281.756 322.122 281.911 321.478L282.155 320.568V320.59Z" fill="#FBFBFB"/>
<path d="M261.751 288.229L261.03 289.479L283.912 302.689L284.633 301.439L261.751 288.229Z" fill="#FBFBFB"/>
<path d="M261.738 293.469L261.016 294.719L283.898 307.929L284.62 306.679L261.738 293.469Z" fill="#FBFBFB"/>
<path d="M261.746 298.709L261.025 299.958L283.907 313.169L284.628 311.919L261.746 298.709Z" fill="#FBFBFB"/>
<path d="M250.582 315.128L239.547 308.712C238.814 308.29 238.215 308.734 238.215 309.711V315.861C238.215 316.838 238.814 317.97 239.547 318.392L244.432 321.256C244.676 322.455 244.387 323.165 244.21 323.454C244.165 323.543 244.232 323.721 244.343 323.765C246.452 324.986 247.052 323.454 247.229 322.855L250.604 324.808C251.337 325.23 251.937 324.786 251.937 323.809V317.659C251.937 316.682 251.337 315.55 250.604 315.128H250.582Z" fill="#B9FF66"/>
<path d="M251.093 325.697C250.805 325.697 250.494 325.608 250.205 325.43L247.541 323.898C247.319 324.253 247.008 324.609 246.519 324.808C245.787 325.119 244.921 324.986 243.944 324.409C243.722 324.276 243.544 324.031 243.478 323.765L243.411 323.476L243.589 323.099C243.655 322.988 243.877 322.544 243.766 321.722L239.17 319.036C238.215 318.481 237.483 317.126 237.483 315.883V309.733C237.483 308.956 237.771 308.334 238.304 308.046C238.77 307.779 239.348 307.802 239.881 308.112L250.938 314.529C251.893 315.084 252.625 316.438 252.625 317.682V323.832C252.625 324.609 252.337 325.23 251.804 325.519C251.582 325.652 251.36 325.697 251.115 325.697H251.093ZM246.719 321.767L250.916 324.187C251.027 324.253 251.093 324.253 251.093 324.253C251.093 324.253 251.182 324.12 251.182 323.809V317.659C251.182 316.882 250.671 316.016 250.227 315.75L239.192 309.334C239.081 309.267 239.015 309.267 239.015 309.267C239.015 309.267 238.926 309.4 238.926 309.711V315.861C238.926 316.571 239.37 317.482 239.903 317.77L245.054 320.79L245.121 321.101C245.32 322.1 245.209 322.855 245.032 323.321C245.431 323.499 245.742 323.543 245.964 323.454C246.297 323.321 246.453 322.81 246.497 322.655L246.741 321.745L246.719 321.767Z" fill="#FBFBFB"/>
<path d="M126.598 195.946L112.765 188.109C111.722 187.509 110.9 188.153 110.9 189.53V194.103C110.9 195.48 111.744 197.078 112.765 197.678L116.051 199.565C116.295 200.742 117.206 203.806 120.092 205.449C120.248 205.538 120.359 205.404 120.27 205.204C120.026 204.516 119.626 203.095 119.937 201.808L126.598 205.493C127.641 206.093 128.463 205.449 128.463 204.072V199.498C128.463 198.122 127.619 196.523 126.598 195.924V195.946Z" fill="#181818"/>
<path d="M127.331 206.448C126.975 206.448 126.598 206.337 126.22 206.137L120.536 202.984C120.559 203.828 120.803 204.605 120.936 204.983C121.069 205.382 120.98 205.782 120.692 206.026C120.425 206.248 120.026 206.27 119.715 206.093C116.828 204.428 115.763 201.519 115.407 200.054L112.388 198.322C111.144 197.589 110.167 195.747 110.167 194.126V189.552C110.167 188.575 110.523 187.776 111.167 187.421C111.722 187.088 112.432 187.132 113.121 187.509L126.953 195.347C128.197 196.08 129.173 197.922 129.173 199.543V204.117C129.173 205.116 128.818 205.893 128.174 206.248C127.93 206.404 127.641 206.47 127.331 206.47V206.448ZM119.448 200.72L126.931 204.872C126.931 204.872 127.286 205.072 127.442 204.983C127.575 204.894 127.73 204.583 127.73 204.095V199.521C127.73 198.411 127.02 197.034 126.22 196.568L112.388 188.731C112.388 188.731 112.033 188.531 111.877 188.62C111.744 188.708 111.588 189.019 111.588 189.508V194.081C111.588 195.192 112.299 196.568 113.098 197.034L116.673 199.099L116.74 199.41C116.939 200.342 117.539 202.385 119.182 203.917C119.071 203.229 119.049 202.429 119.226 201.652L119.448 200.742V200.72Z" fill="#FBFBFB"/>
<path d="M146.717 239.152L135.704 232.913C134.883 232.447 134.217 232.936 134.217 234.046V237.687C134.217 238.775 134.883 240.062 135.704 240.529L138.324 242.038C138.524 242.971 139.257 245.413 141.544 246.723C141.655 246.79 141.744 246.679 141.699 246.523C141.5 245.968 141.189 244.836 141.433 243.815L146.717 246.745C147.539 247.212 148.205 246.723 148.205 245.613V241.972C148.205 240.884 147.539 239.596 146.717 239.13V239.152Z" fill="#B9FF66"/>
<path d="M147.317 247.656C147.006 247.656 146.673 247.567 146.362 247.389L142.077 245.013C142.121 245.591 142.299 246.101 142.365 246.301C142.498 246.656 142.41 247.056 142.143 247.278L141.766 247.611L141.211 247.367C138.901 246.035 138.013 243.726 137.725 242.527L135.371 241.172C134.328 240.573 133.528 239.041 133.528 237.709V234.068C133.528 233.224 133.839 232.558 134.394 232.247C134.883 231.959 135.504 231.981 136.082 232.336L147.094 238.575C148.138 239.174 148.937 240.706 148.937 242.038V245.68C148.937 246.523 148.626 247.189 148.071 247.5C147.849 247.633 147.605 247.7 147.339 247.7L147.317 247.656ZM140.944 242.727L147.072 246.124C147.228 246.212 147.317 246.212 147.339 246.212C147.383 246.19 147.494 246.013 147.494 245.635V241.994C147.494 241.15 146.961 240.129 146.362 239.774L135.349 233.535C135.194 233.446 135.105 233.446 135.082 233.446C135.038 233.468 134.927 233.646 134.927 234.023V237.665C134.927 238.508 135.46 239.552 136.059 239.885L138.946 241.55L139.012 241.861C139.146 242.527 139.568 243.926 140.633 245.08C140.589 244.614 140.611 244.125 140.722 243.637L140.944 242.727Z" fill="#FBFBFB"/>
<path d="M216.745 46.2588L205.732 40.02C204.911 39.5537 204.245 40.0422 204.245 41.1523V44.7935C204.245 45.8814 204.911 47.1691 205.732 47.6354L208.352 49.1451C208.552 50.0776 209.285 52.5199 211.572 53.8298C211.683 53.8964 211.771 53.7854 211.727 53.63C211.527 53.0749 211.216 51.9426 211.461 50.9213L216.745 53.852C217.566 54.3183 218.233 53.8298 218.233 52.7197V49.0785C218.233 47.9906 217.566 46.7029 216.745 46.2366V46.2588Z" fill="#B9FF66"/>
<path d="M217.344 54.7621C217.034 54.7621 216.701 54.6733 216.39 54.4957L212.104 52.1201C212.149 52.6751 212.304 53.1636 212.393 53.4078C212.526 53.7852 212.438 54.1627 212.149 54.3847L211.771 54.6955L211.216 54.4513C208.907 53.1192 208.041 50.8101 207.73 49.6112L205.377 48.2569C204.333 47.6574 203.534 46.1254 203.534 44.7933V41.1521C203.534 40.3084 203.845 39.6424 204.4 39.3315C204.888 39.0429 205.51 39.0651 206.087 39.4204L217.1 45.6592C218.144 46.2587 218.943 47.7906 218.943 49.1227V52.7639C218.943 53.6076 218.632 54.2737 218.077 54.5845C217.855 54.7177 217.611 54.7843 217.344 54.7843V54.7621ZM210.972 49.8332L217.1 53.2302C217.278 53.319 217.344 53.319 217.367 53.319C217.411 53.2968 217.522 53.1192 217.522 52.7417V49.1006C217.522 48.2569 216.989 47.2356 216.39 46.8803L205.377 40.6415C205.221 40.5527 205.133 40.5527 205.11 40.5527C205.066 40.5749 204.955 40.7525 204.955 41.1299V44.7711C204.955 45.6148 205.488 46.6583 206.087 46.9913L208.974 48.6565L209.04 48.9673C209.174 49.6334 209.596 51.0321 210.661 52.1645C210.617 51.6982 210.639 51.2098 210.75 50.7213L210.972 49.811V49.8332Z" fill="#FBFBFB"/>
<path d="M202.137 54.0517L182.287 42.7952C180.799 41.9293 179.6 42.8396 179.6 44.8156V51.3874C179.6 53.3634 180.799 55.6503 182.287 56.5162L186.994 59.2471C187.349 60.9566 188.659 65.3305 192.789 67.7061C193.011 67.8393 193.166 67.6395 193.055 67.3731C192.7 66.374 192.145 64.3314 192.589 62.4886L202.137 67.7949C203.624 68.6608 204.823 67.7505 204.823 65.7745V59.2026C204.823 57.2266 203.624 54.9398 202.137 54.0739V54.0517Z" fill="#181818"/>
<path d="M203.202 68.8162C202.736 68.8162 202.27 68.683 201.781 68.3943L193.166 63.6209C193.1 65.064 193.521 66.4849 193.743 67.1288C193.899 67.5729 193.81 68.0169 193.499 68.2611C193.211 68.5054 192.789 68.5276 192.456 68.3277C188.326 65.9521 186.86 61.7337 186.394 59.7132L181.954 57.16C180.244 56.1831 178.912 53.652 178.912 51.4096V44.8377C178.912 43.5278 179.378 42.5287 180.199 42.0402C180.91 41.6184 181.798 41.685 182.664 42.1734L202.514 53.43C204.223 54.4069 205.556 56.938 205.556 59.1804V65.7523C205.556 67.0622 205.089 68.0835 204.268 68.5498C203.957 68.7274 203.602 68.8384 203.224 68.8384L203.202 68.8162ZM192.123 61.4006L202.492 67.151C202.736 67.2842 203.202 67.5063 203.535 67.3064C203.89 67.1066 204.112 66.5294 204.112 65.7523V59.1804C204.112 57.4708 203.047 55.406 201.781 54.6733L181.931 43.439C181.687 43.3058 181.243 43.0837 180.888 43.2836C180.533 43.4834 180.31 44.0606 180.31 44.8377V51.4096C180.31 53.1192 181.376 55.184 182.642 55.9167L187.638 58.803L187.704 59.1138C188.015 60.6013 189.036 64.0205 192.012 66.3295C191.745 65.2416 191.568 63.7319 191.901 62.3331L192.123 61.4228V61.4006Z" fill="#FBFBFB"/>
<path d="M146.537 130.872L135.88 124.833C135.081 124.366 134.437 124.855 134.437 125.921V129.451C134.437 130.516 135.081 131.738 135.88 132.204L138.411 133.669C138.611 134.579 139.299 136.933 141.52 138.198C141.631 138.265 141.719 138.176 141.653 138.021C141.453 137.488 141.164 136.378 141.409 135.401L146.537 138.243C147.337 138.709 147.981 138.221 147.981 137.155V133.625C147.981 132.559 147.337 131.338 146.537 130.872Z" fill="#181818"/>
<path d="M147.115 139.131C146.804 139.131 146.493 139.042 146.182 138.864L142.075 136.578C142.141 137.11 142.274 137.577 142.341 137.777C142.474 138.132 142.385 138.531 142.097 138.753L141.719 139.086L141.164 138.842C138.922 137.554 138.078 135.312 137.789 134.158L135.525 132.848C134.526 132.27 133.726 130.783 133.726 129.473V125.943C133.726 125.121 134.037 124.477 134.592 124.144C135.081 123.856 135.68 123.9 136.257 124.211L146.915 130.25C147.936 130.849 148.713 132.293 148.713 133.625V137.155C148.713 137.976 148.403 138.62 147.847 138.953C147.625 139.086 147.381 139.153 147.115 139.153V139.131ZM140.942 134.313L146.893 137.621C147.026 137.71 147.115 137.71 147.137 137.71C147.159 137.71 147.27 137.554 147.27 137.177V133.647C147.27 132.848 146.76 131.848 146.182 131.515L135.525 125.476C135.391 125.388 135.303 125.388 135.303 125.388C135.303 125.388 135.169 125.543 135.169 125.92V129.451C135.169 130.25 135.68 131.249 136.257 131.582L139.077 133.203L139.144 133.514C139.277 134.135 139.654 135.467 140.654 136.555C140.631 136.134 140.654 135.667 140.742 135.223L140.964 134.313H140.942Z" fill="#FBFBFB"/>
<path d="M454.548 26.0258C454.548 25.1889 454.397 24.4218 454.246 23.5848L462.625 16.2618C462.625 16.2618 462.852 15.7039 462.55 15.5644L442.772 5.10291C442.244 4.82394 441.187 4.266 441.187 4.266C434.62 1.12756 426.09 1.26705 416.654 5.17267C390.837 15.9131 368.946 49.1108 368.946 76.1014C368.946 88.5156 373.626 97.3033 381.099 101.558H381.25C381.25 101.558 399.669 111.391 402.764 113.065C402.991 113.205 403.292 113.065 403.443 112.856L407.746 104.626L403.67 102.534C406.312 101.697 409.029 100.511 411.822 99.0468C412.502 98.6981 413.181 98.2796 413.861 97.9309C416.05 101.906 416.05 108.881 415.37 115.715C415.219 117.18 415.748 117.947 416.578 118.156L436.658 128.897C436.658 128.897 437.262 128.897 437.337 128.688L439.451 123.527L438.469 101.418H427.599L447.679 59.2933C452.812 48.2739 455.454 36.6268 454.473 26.2351L454.548 26.0258Z" fill="#B9FF66"/>
<path d="M435.975 129.943L416.046 119.272C414.838 118.854 413.706 117.668 413.932 115.367C414.687 108.462 414.385 103.162 413.253 99.8138L412.725 100.093C410.989 100.999 409.177 101.836 407.365 102.604L409.856 103.929L404.949 113.344C404.723 113.832 404.27 114.181 403.742 114.32C403.213 114.46 402.609 114.39 402.156 114.181L400.269 113.135C386.229 105.672 380.718 102.813 380.492 102.673C372.188 98.0005 367.584 88.5154 367.584 76.0314C367.584 48.3434 390.305 14.6575 416.197 3.84734C425.709 -0.128019 434.918 -0.406972 442.089 2.9407C442.089 2.9407 443.221 3.49863 443.674 3.77761L463.452 14.2391C463.98 14.518 464.358 15.076 464.433 15.6339C464.509 16.1919 464.282 16.8196 463.83 17.238L455.979 24.0728C456.054 24.6308 456.13 25.2585 456.205 25.8164C457.111 36.0687 454.771 47.7157 449.261 59.572L430.162 99.6743H440.126L441.183 123.387L438.994 128.827C438.768 129.315 438.315 129.734 437.786 129.943C437.56 130.013 437.334 130.082 437.107 130.082C436.73 130.082 436.428 130.013 436.126 129.803L435.975 129.943ZM425.407 102.604L446.392 58.5259C451.676 47.1578 454.016 35.9292 453.11 26.1652C453.11 25.398 452.959 24.561 452.808 23.7939V23.0964L460.659 16.1221L442.089 6.28836C441.636 6.00939 440.655 5.52118 440.655 5.52118C434.239 2.52223 426.237 2.8012 417.48 6.49758C392.57 16.8893 370.679 49.3896 370.679 76.1012C370.679 87.6088 374.755 96.1872 382.228 100.372C382.53 100.511 396.193 107.765 401.779 110.763L402.685 111.252L405.856 105.114L400.118 102.115L403.289 101.069C405.931 100.232 408.573 99.0467 411.139 97.6518C411.819 97.3031 412.423 96.9544 413.102 96.5359L414.536 95.699L415.291 97.0939C417.254 100.79 417.858 106.997 416.952 115.645C416.952 116.273 416.952 116.552 417.103 116.622L436.503 126.874L438.088 123.038L437.183 102.604H425.407Z" fill="#181818"/>
<path d="M446.545 61.8048L447.752 59.2941C452.886 48.2747 455.528 36.6275 454.546 26.2358C454.471 25.3989 454.395 24.6317 454.244 23.7948L462.623 16.4718C462.623 16.4718 462.85 15.9139 462.548 15.7744L442.77 5.31291C442.242 5.03394 441.185 4.47597 441.185 4.47597C434.618 1.33753 426.088 1.47703 416.652 5.38264C405.404 10.0554 394.987 18.9825 386.683 29.723L446.469 61.8048H446.545Z" fill="#FBFBFB"/>
<path d="M384.57 30.1412L385.552 28.8858C394.308 17.448 405.178 8.59059 416.124 4.05729C425.635 0.0819335 434.845 -0.197046 442.016 3.15062C442.016 3.15062 443.148 3.70856 443.601 3.98753L463.379 14.449C463.907 14.728 464.285 15.2859 464.36 15.8439C464.436 16.4018 464.209 17.0295 463.756 17.4479L455.906 24.2828C455.981 24.8407 456.057 25.4684 456.132 26.0263C457.038 36.2786 454.698 47.9257 449.187 59.782L447.3 63.7574L384.57 30.0715V30.1412ZM442.016 6.42855C441.563 6.14958 440.582 5.66138 440.582 5.66138C434.165 2.66242 426.164 2.94139 417.407 6.63777C407.368 10.8224 397.328 18.8428 389.1 29.2345L445.941 59.782L446.47 58.7359C451.754 47.3677 454.094 36.1391 453.188 26.3751C453.188 25.6079 453.037 24.771 452.886 24.0735V23.3761L460.737 16.4018L442.167 6.56804L442.016 6.42855Z" fill="#181818"/>
<path d="M468.587 70.1736C473.72 59.1542 476.362 47.5071 475.381 37.1154C473.494 16.7504 457.566 7.89304 437.562 16.2622C411.745 27.0026 389.854 60.2004 389.854 87.1909C389.854 112.438 409.028 122.69 432.731 110.067C433.41 109.718 434.09 109.299 434.769 108.951C436.958 112.926 436.958 119.9 436.279 126.735C435.901 130.501 440.28 129.874 442.167 125.898L468.663 70.2434L468.587 70.1736Z" fill="#181818"/>
<path d="M437.035 130.431C435.676 130.083 434.393 128.897 434.62 126.456C435.375 119.551 435.073 114.251 433.94 110.903C433.789 110.973 433.563 111.113 433.412 111.182C421.485 117.529 410.162 118.505 401.556 113.972C392.951 109.369 388.27 99.8142 388.27 87.1209C388.27 59.4329 410.992 25.747 436.884 14.9368C446.924 10.7522 456.511 10.6128 463.909 14.5881C471.306 18.6332 475.987 26.5839 476.892 36.9756C477.798 47.2279 475.458 58.875 469.948 70.7313L443.452 126.386C442.244 128.897 439.979 130.571 437.941 130.571C437.639 130.571 437.337 130.571 437.111 130.501L437.035 130.431ZM467.155 69.6154C472.439 58.2473 474.779 47.0186 473.873 37.2546C472.967 27.8393 468.891 20.6558 462.399 17.0989C455.907 13.6117 447.377 13.7512 438.243 17.5871C413.332 27.9788 391.441 60.4791 391.441 87.1907C391.441 98.9075 395.593 107.556 403.217 111.601C410.841 115.646 421.032 114.669 431.978 108.811C432.657 108.462 433.261 108.114 433.94 107.695L435.375 106.858L436.129 108.253C438.167 111.949 438.696 118.157 437.79 126.805C437.79 127.432 437.79 127.711 437.866 127.781C437.866 127.781 438.092 127.781 438.394 127.711C439.073 127.432 440.055 126.735 440.734 125.34L467.23 69.7549L467.155 69.6154Z" fill="#181818"/>
<path d="M418.009 72.4749C418.009 76.799 414.688 82.0994 410.687 84.2615C406.611 86.4235 403.365 84.6799 403.365 80.3559C403.365 76.0318 406.686 70.7313 410.687 68.5693C414.764 66.4072 418.009 68.1508 418.009 72.4749Z" fill="#181818"/>
<path d="M404.649 85.9352C402.762 84.9588 401.705 82.9362 401.705 80.286C401.705 75.404 405.253 69.7548 409.858 67.3138C412.349 65.9886 414.689 65.8492 416.576 66.8256C418.463 67.802 419.52 69.8245 419.52 72.4748C419.52 77.3568 415.972 83.006 411.367 85.447C409.933 86.2142 408.575 86.5629 407.291 86.5629C406.31 86.5629 405.404 86.3537 404.649 85.9352ZM411.367 69.7548C407.82 71.6379 404.8 76.5198 404.8 80.286C404.8 81.8203 405.328 83.006 406.159 83.4244C407.065 83.9126 408.348 83.7034 409.858 82.9362C413.406 81.0532 416.425 76.1712 416.425 72.405C416.425 70.8707 415.897 69.6851 415.066 69.2666C414.764 69.1271 414.387 68.9876 413.934 68.9876C413.179 68.9876 412.349 69.2666 411.443 69.7548H411.367Z" fill="#B9FF66"/>
<path d="M440.127 60.6185C440.127 64.9425 436.806 70.243 432.805 72.4051C428.729 74.5671 425.483 72.8235 425.483 68.4995C425.483 64.1754 428.804 58.8749 432.805 56.7129C436.881 54.5508 440.127 56.2944 440.127 60.6185Z" fill="#181818"/>
<path d="M426.84 74.0788C424.953 73.1024 423.896 71.0799 423.896 68.4296C423.896 63.5476 427.444 57.8984 432.049 55.4574C434.54 54.1323 436.88 53.9928 438.767 54.9692C440.654 55.9456 441.711 57.9681 441.711 60.6184C441.711 65.5004 438.163 71.1496 433.558 73.5906C432.124 74.3578 430.765 74.7065 429.482 74.7065C428.5 74.7065 427.595 74.4973 426.84 74.0788ZM433.558 57.8984C430.01 59.7815 426.991 64.5938 426.991 68.4296C426.991 69.964 427.519 71.1496 428.35 71.568C429.255 72.0562 430.539 71.847 432.049 71.0798C435.596 69.1968 438.616 64.3845 438.616 60.5487C438.616 59.0143 438.088 57.8287 437.257 57.4102C436.955 57.201 436.578 57.1312 436.125 57.1312C435.37 57.1312 434.54 57.4102 433.634 57.8984H433.558Z" fill="#B9FF66"/>
<path d="M462.091 48.902C462.091 53.226 458.77 58.5265 454.769 60.6886C450.693 62.8506 447.447 61.107 447.447 56.783C447.447 52.4589 450.768 47.1584 454.769 44.9964C458.845 42.8343 462.091 44.5779 462.091 48.902Z" fill="#181818"/>
<path d="M448.81 62.3623C446.923 61.3859 445.866 59.3633 445.866 56.7131C445.866 51.8311 449.413 46.1819 454.018 43.7409C456.509 42.4158 458.849 42.2763 460.737 43.2527C462.624 44.2291 463.681 46.2516 463.681 48.9019C463.681 53.7839 460.133 59.4331 455.528 61.8741C454.094 62.6413 452.735 62.99 451.452 62.99C450.47 62.99 449.565 62.7807 448.81 62.3623ZM455.528 46.1819C451.98 48.065 448.961 52.8772 448.961 56.7131C448.961 58.2475 449.489 59.4331 450.319 59.8515C451.225 60.3397 452.508 60.1305 454.018 59.3633C457.566 57.4803 460.586 52.668 460.586 48.8322C460.586 47.2978 460.057 46.1122 459.227 45.6937C458.925 45.5542 458.547 45.4147 458.094 45.4147C457.34 45.4147 456.509 45.6937 455.603 46.1819H455.528Z" fill="#B9FF66"/>
<path d="M370.487 80.262L368.943 82.7407L389.751 93.7996L391.294 91.321L370.487 80.262Z" fill="#181818"/>
<path d="M419.145 3.63795L417.601 6.11633L438.407 17.1787L439.95 14.7003L419.145 3.63795Z" fill="#181818"/>
<path d="M548.857 172.728L482.7 139.965C479.712 138.471 477.305 140.072 477.305 143.451V174.72C477.305 178.135 479.712 182.083 482.7 183.577L523.747 203.889C524.743 208.087 523.581 210.541 522.834 211.573C522.627 211.858 522.917 212.462 523.374 212.711C531.923 216.98 534.455 211.609 535.078 209.51L548.857 216.304C551.845 217.763 554.252 216.198 554.252 212.818V181.55C554.252 178.135 551.845 174.186 548.857 172.692V172.728Z" fill="#181818"/>
<path d="M550.976 218.047C550.063 218.047 549.108 217.798 548.154 217.336L535.827 211.217C535.163 212.605 533.918 214.241 531.718 215.024C529.27 215.913 526.199 215.451 522.671 213.707C522.09 213.423 521.633 212.889 521.467 212.285C521.343 211.822 521.384 211.36 521.633 210.968C522.131 210.257 523.21 208.265 522.463 204.601L481.956 184.538C478.553 182.866 475.896 178.526 475.896 174.684V143.416C475.896 141.21 476.809 139.467 478.428 138.684C479.839 137.973 481.582 138.08 483.284 138.933L549.44 171.696C552.844 173.368 555.5 177.708 555.5 181.55V212.818C555.5 215.024 554.587 216.767 552.968 217.549C552.346 217.87 551.64 218.012 550.893 218.012L550.976 218.047ZM534.209 207.767L549.482 215.344C550.104 215.628 550.976 215.949 551.682 215.593C552.429 215.237 552.885 214.206 552.885 212.854V181.585C552.885 178.597 550.727 175.004 548.154 173.724L481.997 140.961C481.375 140.641 480.503 140.356 479.798 140.712C479.051 141.068 478.594 142.099 478.594 143.451V174.72C478.594 177.708 480.752 181.301 483.325 182.581L524.912 203.142L525.036 203.64C526.033 207.874 524.953 210.542 524.206 211.787C526.863 213.103 529.021 213.458 530.681 212.889C532.59 212.213 533.42 210.293 533.752 209.225L534.209 207.767Z" fill="#FBFBFB"/>
<path d="M493.858 161.857L492.509 163.86L537.654 186.199L539.002 184.197L493.858 161.857Z" fill="#FBFBFB"/>
<path d="M493.844 170.732L492.495 172.735L537.639 195.075L538.988 193.072L493.844 170.732Z" fill="#FBFBFB"/>
</g>
<defs>
<clipPath id="clip0_6_19">
<rect width="555" height="417" fill="white" transform="translate(0.5 0.629883)"/>
</clipPath>
</defs>
</svg>
