<svg width="1348" height="344" viewBox="0 0 1348 344" fill="none" xmlns="http://www.w3.org/2000/svg">
<g clip-path="url(#clip0_6_18)">
<g clip-path="url(#clip1_6_18)">
<path d="M1017.46 295.008C1016.84 295.008 1016.33 294.503 1016.33 293.882C1016.33 293.262 1016.84 292.757 1017.46 292.757H1041.94C1042.56 292.757 1043.07 293.262 1043.07 293.882C1043.07 294.503 1042.56 295.008 1041.94 295.008H1017.46Z" fill="#696969"/>
<path d="M998.715 295.008C998.094 295.008 997.589 294.503 997.589 293.882C997.589 293.262 998.094 292.757 998.715 292.757H1010.62C1011.24 292.757 1011.74 293.262 1011.74 293.882C1011.74 294.503 1011.24 295.008 1010.62 295.008H998.715Z" fill="#696969"/>
<path d="M925.724 334.035C920.732 334.035 916.677 329.981 916.677 324.989V290.347C916.677 285.355 920.732 281.301 925.724 281.301H960.351C960.971 281.301 961.476 281.806 961.476 282.426V332.924C961.476 333.545 960.971 334.049 960.351 334.049H925.724V334.035ZM925.724 283.537C921.973 283.537 918.914 286.582 918.914 290.333V324.974C918.914 328.726 921.973 331.784 925.724 331.784H959.225V283.537H925.724Z" fill="#696969"/>
<path d="M960.351 330.067C959.73 330.067 959.225 329.562 959.225 328.942V286.394C959.225 285.774 959.73 285.269 960.351 285.269H1048.78C1049.4 285.269 1049.9 285.774 1049.9 286.394V328.942C1049.9 329.562 1049.4 330.067 1048.78 330.067H960.351ZM961.476 327.831H1047.67V287.519H961.476V327.831Z" fill="#696969"/>
<path d="M977.318 295.008C976.698 295.008 976.193 294.503 976.193 293.882C976.193 293.262 976.698 292.757 977.318 292.757H990.996C991.616 292.757 992.121 293.262 992.121 293.882C992.121 294.503 991.616 295.008 990.996 295.008H977.318Z" fill="#696969"/>
<path d="M1048.78 334.035C1048.16 334.035 1047.65 333.53 1047.65 332.91V282.412C1047.65 281.792 1048.16 281.287 1048.78 281.287H1083.41C1088.4 281.287 1092.45 285.341 1092.45 290.333V324.974C1092.45 329.966 1088.4 334.021 1083.41 334.021H1048.78V334.035ZM1049.9 331.799H1083.42C1087.17 331.799 1090.22 328.74 1090.22 324.989V290.347C1090.22 286.596 1087.17 283.552 1083.42 283.552H1049.9V331.799Z" fill="#696969"/>
<path d="M1207.26 337.988C1204.33 337.988 1201.4 337.584 1199 336.849C1195.99 335.983 1193.71 334.843 1192.31 334.035C1190.81 333.141 1189.99 332.564 1189.99 332.564C1189.48 332.203 1189.35 331.51 1189.71 331.005C1189.93 330.702 1190.26 330.529 1190.63 330.529C1190.87 330.529 1191.08 330.601 1191.27 330.731C1191.41 330.832 1192.16 331.337 1193.45 332.102C1194.75 332.852 1196.85 333.891 1199.65 334.699C1201.86 335.377 1204.59 335.767 1207.27 335.767C1211.66 335.767 1215.93 334.8 1219.61 332.968C1226.82 329.577 1231.54 322.998 1233.37 318.381C1234.29 316.044 1234.93 313.677 1235.14 311.903C1235.4 310.474 1235.42 309.594 1235.42 309.436C1235.42 308.801 1235.9 308.281 1236.52 308.267C1237.19 308.267 1237.64 308.685 1237.67 309.349C1237.67 309.45 1237.7 310.518 1237.38 312.235C1237.15 314.168 1236.47 316.678 1235.48 319.203C1233.4 324.426 1228.41 331.337 1220.6 334.987C1215.61 337.483 1210.6 338.003 1207.28 338.003L1207.26 337.988Z" fill="#696969"/>
<path d="M1180.3 319.881C1179.84 319.881 1179.44 319.607 1179.27 319.174C1179.25 319.131 1178.2 316.549 1177.61 313.764C1177.1 311.21 1177.03 308.613 1177.01 308.123C1177.01 307.502 1177.51 306.983 1178.11 306.968C1178.73 306.968 1179.24 307.459 1179.25 308.065C1179.25 308.065 1179.29 310.734 1179.8 313.317C1180.35 315.885 1181.33 318.309 1181.34 318.338C1181.57 318.9 1181.3 319.55 1180.72 319.795C1180.59 319.853 1180.45 319.881 1180.3 319.881Z" fill="#696969"/>
<path d="M1180.26 297.792C1180.12 297.792 1179.99 297.763 1179.86 297.72C1179.57 297.605 1179.35 297.388 1179.24 297.114C1179.12 296.84 1179.12 296.537 1179.24 296.263C1179.25 296.22 1180.29 293.608 1181.86 291.213C1183.32 288.919 1185.17 286.971 1185.38 286.755C1185.58 286.538 1185.87 286.423 1186.18 286.423C1186.48 286.423 1186.75 286.538 1186.96 286.74C1187.4 287.173 1187.42 287.88 1186.98 288.328C1186.38 288.977 1184.91 290.607 1183.74 292.44C1182.43 294.445 1181.49 296.652 1181.31 297.071C1181.14 297.533 1180.72 297.807 1180.26 297.807V297.792Z" fill="#696969"/>
<path d="M1195.68 281.979C1195.24 281.979 1194.83 281.72 1194.66 281.316C1194.41 280.753 1194.66 280.089 1195.24 279.83C1195.27 279.83 1197.86 278.661 1200.65 278.069C1201.72 277.81 1202.83 277.665 1203.88 277.521L1206.29 277.348C1206.81 277.348 1207.4 277.824 1207.43 278.416C1207.46 279.036 1206.98 279.555 1206.36 279.584L1204.23 279.729L1204.05 279.757C1203.22 279.873 1202.18 280.003 1201.15 280.248C1198.57 280.811 1196.12 281.893 1196.1 281.907C1196.02 281.95 1195.87 281.979 1195.71 281.979H1195.68Z" fill="#696969"/>
<path d="M1227.01 287.173C1226.72 287.173 1226.44 287.058 1226.23 286.87C1226.23 286.87 1224.31 285.067 1222.07 283.739C1219.79 282.282 1217.31 281.402 1217.28 281.388C1216.78 281.2 1216.48 280.551 1216.68 279.974C1216.84 279.527 1217.25 279.224 1217.72 279.224C1217.85 279.224 1217.98 279.252 1218.09 279.296C1218.57 279.469 1221.02 280.407 1223.23 281.821C1225.67 283.263 1227.73 285.211 1227.74 285.226C1228.19 285.658 1228.22 286.365 1227.79 286.813C1227.57 287.043 1227.28 287.159 1226.98 287.159L1227.01 287.173Z" fill="#696969"/>
<path d="M1236.53 307.069C1235.92 307.069 1235.43 306.593 1235.42 306.002C1235.38 305.295 1235.22 303.015 1234.64 300.851C1234.09 298.427 1233.02 296.162 1232.91 295.917C1232.63 295.354 1232.87 294.676 1233.43 294.402C1233.59 294.33 1233.75 294.286 1233.92 294.286C1234.35 294.286 1234.74 294.532 1234.93 294.921C1234.96 294.964 1236.2 297.533 1236.83 300.317C1237.57 303.044 1237.68 305.872 1237.68 305.901C1237.71 306.536 1237.22 307.055 1236.62 307.084H1236.57L1236.53 307.069Z" fill="#696969"/>
<path d="M1100.43 240.658C1099.81 240.658 1099.31 240.153 1099.31 239.532V104.097C1099.31 103.477 1099.81 102.972 1100.43 102.972H1237.53C1238.15 102.972 1238.65 103.477 1238.65 104.097V239.547C1238.65 240.167 1238.15 240.672 1237.53 240.672H1100.43V240.658ZM1101.56 238.421H1236.41V105.208H1101.56V238.421Z" fill="#696969"/>
<path d="M1135.42 203.895L1142.81 169.744V120.877H1195.14V169.744L1202.52 203.895H1135.42Z" fill="#B9FF66"/>
<path d="M1133.63 206.463C1133.28 206.463 1132.97 206.305 1132.76 206.045C1132.55 205.785 1132.48 205.439 1132.55 205.107L1140.25 169.47V119.434C1140.25 118.814 1140.76 118.309 1141.38 118.309H1196.59C1197.21 118.309 1197.72 118.814 1197.72 119.434V169.47L1205.42 205.107C1205.5 205.439 1205.42 205.785 1205.21 206.045C1204.99 206.305 1204.67 206.463 1204.34 206.463H1133.63ZM1142.49 169.6C1142.49 169.687 1142.49 169.759 1142.46 169.845L1135.03 204.227H1202.93L1195.5 169.831C1195.48 169.759 1195.47 169.672 1195.47 169.6V120.56H1142.49V169.6Z" fill="#696969"/>
<path d="M1141.36 170.711C1140.74 170.711 1140.24 170.206 1140.24 169.586C1140.24 168.965 1140.74 168.46 1141.36 168.46H1196.58C1197.2 168.46 1197.7 168.965 1197.7 169.586C1197.7 170.206 1197.2 170.711 1196.58 170.711H1141.36Z" fill="#696969"/>
<path d="M1202.88 206.781H1135.09V222.753H1202.88V206.781Z" fill="#B9FF66"/>
<path d="M1133.63 225.321C1133.01 225.321 1132.5 224.816 1132.5 224.195V205.338C1132.5 204.718 1133.01 204.213 1133.63 204.213H1204.31C1204.93 204.213 1205.44 204.718 1205.44 205.338V224.195C1205.44 224.816 1204.93 225.321 1204.31 225.321H1133.63ZM1134.76 223.084H1203.2V206.478H1134.76V223.084Z" fill="#696969"/>
<path d="M1327.34 144.077C1315.94 144.077 1306.68 134.814 1306.68 123.416C1306.68 112.018 1315.94 102.756 1327.34 102.756C1338.74 102.756 1348 112.018 1348 123.416C1348 134.814 1338.74 144.077 1327.34 144.077ZM1327.34 105.006C1317.18 105.006 1308.91 113.274 1308.91 123.416C1308.91 133.559 1317.18 141.841 1327.34 141.841C1337.5 141.841 1345.76 133.574 1345.76 123.416C1345.76 113.259 1337.5 105.006 1327.34 105.006Z" fill="#696969"/>
<path d="M1315.52 124.542C1314.9 124.542 1314.4 124.037 1314.4 123.416C1314.4 122.796 1314.9 122.291 1315.52 122.291H1339.16C1339.78 122.291 1340.28 122.796 1340.28 123.416C1340.28 124.037 1339.78 124.542 1339.16 124.542H1315.52Z" fill="#696969"/>
<path d="M1184.55 54.35C1178.75 54.35 1174.03 49.6321 1174.03 43.832C1174.03 38.032 1178.75 33.3141 1184.55 33.3141C1190.35 33.3141 1195.06 38.032 1195.06 43.832C1195.06 49.6321 1190.35 54.35 1184.55 54.35ZM1184.55 35.536C1179.97 35.536 1176.26 39.2584 1176.26 43.8176C1176.26 48.3768 1179.99 52.0992 1184.55 52.0992C1189.11 52.0992 1192.83 48.3768 1192.83 43.8176C1192.83 39.2584 1189.11 35.536 1184.55 35.536Z" fill="#696969"/>
<path d="M1150.61 54.35C1144.81 54.35 1140.09 49.6321 1140.09 43.832C1140.09 38.032 1144.81 33.3141 1150.61 33.3141C1156.41 33.3141 1161.13 38.032 1161.13 43.832C1161.13 49.6321 1156.41 54.35 1150.61 54.35ZM1150.61 35.536C1146.04 35.536 1142.33 39.2584 1142.33 43.8176C1142.33 48.3768 1146.05 52.0992 1150.61 52.0992C1155.17 52.0992 1158.89 48.3768 1158.89 43.8176C1158.89 39.2584 1155.17 35.536 1150.61 35.536Z" fill="#696969"/>
<path d="M1116.66 54.35C1110.86 54.35 1106.14 49.6321 1106.14 43.832C1106.14 38.032 1110.86 33.3141 1116.66 33.3141C1122.46 33.3141 1127.18 38.032 1127.18 43.832C1127.18 49.6321 1122.46 54.35 1116.66 54.35ZM1116.66 35.536C1112.09 35.536 1108.38 39.2584 1108.38 43.8176C1108.38 48.3768 1112.1 52.0992 1116.66 52.0992C1121.22 52.0992 1124.94 48.3768 1124.94 43.8176C1124.94 39.2584 1121.22 35.536 1116.66 35.536Z" fill="#696969"/>
<path d="M1082.73 54.35C1076.93 54.35 1072.21 49.6321 1072.21 43.832C1072.21 38.032 1076.93 33.3141 1082.73 33.3141C1088.53 33.3141 1093.25 38.032 1093.25 43.832C1093.25 49.6321 1088.53 54.35 1082.73 54.35ZM1082.73 35.536C1078.15 35.536 1074.45 39.2584 1074.45 43.8176C1074.45 48.3768 1078.17 52.0992 1082.73 52.0992C1087.29 52.0992 1091.01 48.3768 1091.01 43.8176C1091.01 39.2584 1087.29 35.536 1082.73 35.536Z" fill="#696969"/>
<path d="M991.818 69.7734C991.674 69.7734 991.53 69.7446 991.4 69.6869C991.4 69.6869 990.419 69.2973 988.976 68.3162C987.36 67.364 985.441 65.8058 983.609 63.959C979.828 60.1212 975.731 53.0803 975.529 44.8564C975.139 36.5171 978.891 29.0867 982.224 25.2489C984.128 22.9549 986.018 21.3966 987.273 20.4732C988.63 19.5066 989.452 19.0016 989.466 19.0016C989.639 18.9006 989.841 18.8429 990.043 18.8429C990.447 18.8429 990.808 19.0449 991.01 19.3912C991.154 19.6364 991.212 19.9394 991.14 20.228C991.068 20.5165 990.895 20.7618 990.635 20.9205C990.447 21.0359 989.726 21.4976 988.601 22.2912C987.446 23.1424 985.715 24.5852 983.94 26.6917C980.882 30.2121 977.419 37.0798 977.78 44.7699C977.953 52.3734 981.892 59.0102 985.21 62.3719C986.913 64.0744 988.716 65.5461 990.188 66.4117C991.125 67.0466 991.818 67.4073 992.121 67.5515L992.236 67.6092C992.799 67.8545 993.073 68.5038 992.842 69.0665C992.669 69.4993 992.265 69.7734 991.804 69.7734H991.818Z" fill="#696969"/>
<path d="M1015.45 19.2468C1015.31 19.2468 1015.16 19.218 1015.02 19.1603C1014.9 19.1025 1012.55 18.1503 1010.23 17.6165C1007.8 17.1115 1005.24 17.0249 1005.21 17.0249C1004.95 17.0249 1004.67 16.8951 1004.47 16.6642C1004.27 16.4478 1004.15 16.1592 1004.17 15.8707C1004.18 15.2214 1004.83 14.803 1005.42 14.7742C1005.61 14.7742 1008.18 14.8896 1010.7 15.409C1013.14 15.9573 1015.44 16.8951 1015.87 17.0682C1016.45 17.3135 1016.72 17.9627 1016.48 18.5399C1016.3 18.9583 1015.9 19.218 1015.44 19.218L1015.45 19.2468Z" fill="#696969"/>
<path d="M1030.33 34.1941C1029.86 34.1941 1029.46 33.92 1029.29 33.5016C1029.11 33.0832 1028.21 30.9767 1026.95 29.0866C1025.59 26.9802 1023.83 25.1911 1023.82 25.1767C1023.62 24.9747 1023.5 24.6861 1023.5 24.3831C1023.5 24.0802 1023.62 23.806 1023.83 23.604C1024.05 23.402 1024.32 23.2866 1024.61 23.2866C1024.9 23.2866 1025.2 23.402 1025.42 23.6185C1025.75 23.9503 1027.45 25.7538 1028.83 27.8747C1030.33 30.111 1031.35 32.6359 1031.36 32.6503C1031.61 33.2419 1031.32 33.8911 1030.76 34.122C1030.63 34.1797 1030.48 34.2086 1030.34 34.2086L1030.33 34.1941Z" fill="#696969"/>
<path d="M1030.48 55.2733C1030.35 55.2733 1030.21 55.2444 1030.1 55.2011C1029.81 55.0857 1029.59 54.8837 1029.46 54.6096C1029.35 54.3355 1029.33 54.0325 1029.43 53.7584L1030.1 51.926C1030.37 51.0026 1030.67 49.9927 1030.86 48.9539C1031.35 46.53 1031.36 44.0772 1031.36 43.9618C1031.36 43.3414 1031.87 42.8364 1032.49 42.8364C1033.11 42.8364 1033.62 43.3414 1033.62 43.9474C1033.62 44.0628 1033.62 46.7464 1033.07 49.3723C1032.87 50.4255 1032.58 51.4787 1032.29 52.4743L1031.52 54.5808C1031.36 54.9847 1030.95 55.2733 1030.48 55.2733Z" fill="#696969"/>
<path d="M1015.88 70.4514C1015.44 70.4514 1015.03 70.1773 1014.86 69.7733C1014.61 69.2106 1014.89 68.5469 1015.45 68.3017L1015.35 68.345C1015.7 68.2151 1017.87 67.2484 1019.78 65.8778C1021.83 64.5216 1023.54 62.7469 1023.62 62.6604C1023.83 62.4295 1024.12 62.3141 1024.43 62.3141C1024.71 62.3141 1024.99 62.4295 1025.2 62.6315C1025.65 63.0499 1025.67 63.7713 1025.25 64.2041C1025.18 64.2907 1023.31 66.2241 1021.05 67.7246C1018.9 69.2683 1016.42 70.3216 1016.32 70.3649C1016.19 70.4226 1016.04 70.4514 1015.88 70.4514Z" fill="#696969"/>
<path d="M1004.47 72.8609C1003.49 72.8609 1001.54 72.8032 999.638 72.4425C996.998 72.0385 994.43 71.0286 994.401 71.0142C993.824 70.7833 993.549 70.1341 993.766 69.5569C993.939 69.1241 994.343 68.85 994.805 68.85C994.949 68.85 995.079 68.8788 995.209 68.9221C995.209 68.9221 997.532 69.8455 999.999 70.2206C1001.77 70.5669 1003.59 70.6102 1004.51 70.6102H1005.14C1005.67 70.6102 1006.12 71.0863 1006.14 71.6778C1006.14 71.9808 1006.06 72.2694 1005.86 72.4858C1005.65 72.7022 1005.38 72.8321 1005.08 72.8465C1004.99 72.8465 1004.77 72.8465 1004.46 72.8465L1004.47 72.8609Z" fill="#696969"/>
<path d="M984.878 44.9429C984.258 44.9429 983.753 44.4379 983.753 43.8175C983.753 43.1971 984.258 42.6921 984.878 42.6921H1004.57C1005.19 42.6921 1005.7 43.1971 1005.7 43.8175C1005.7 44.4379 1005.19 44.9429 1004.57 44.9429H984.878Z" fill="#696969"/>
<path d="M1004.56 44.9429C1003.94 44.9429 1003.43 44.4379 1003.43 43.8175C1003.43 43.1971 1003.94 42.6921 1004.56 42.6921H1024.25C1024.87 42.6921 1025.38 43.1971 1025.38 43.8175C1025.38 44.4379 1024.87 44.9429 1024.25 44.9429H1004.56Z" fill="#696969"/>
<path d="M1004.56 44.9429C1003.94 44.9429 1003.43 44.4379 1003.43 43.8175C1003.43 43.1971 1003.94 42.6921 1004.56 42.6921H1024.25C1024.87 42.6921 1025.38 43.1971 1025.38 43.8175C1025.38 44.4379 1024.87 44.9429 1024.25 44.9429H1004.56Z" fill="#696969"/>
<path d="M1039.49 187.621L1036.92 186.856C1037.17 184.288 1036.88 181.734 1036.16 179.353L1038.52 178.084C1039.46 177.579 1039.81 176.41 1039.3 175.472L1037.47 172.082C1036.96 171.144 1035.79 170.798 1034.86 171.303L1032.49 172.572C1030.9 170.653 1028.93 169.009 1026.65 167.797L1027.41 165.228C1027.71 164.204 1027.14 163.136 1026.11 162.833L1022.42 161.722C1021.4 161.419 1020.33 161.997 1020.02 163.021L1019.26 165.589C1016.69 165.344 1014.14 165.632 1011.76 166.354L1010.49 163.988C1009.98 163.05 1008.81 162.704 1007.88 163.209L1004.49 165.041C1003.55 165.546 1003.2 166.715 1003.71 167.652L1004.98 170.019C1003.06 171.606 1001.41 173.582 1000.2 175.862L997.633 175.097C996.608 174.794 995.54 175.371 995.237 176.396L994.127 180.089C993.824 181.114 994.401 182.181 995.425 182.484L997.993 183.249C997.748 185.817 998.036 188.371 998.758 190.751L996.392 192.021C995.454 192.526 995.108 193.695 995.613 194.633L997.445 198.023C997.95 198.961 999.119 199.307 1000.06 198.802L1002.42 197.533C1004.01 199.451 1005.99 201.096 1008.27 202.308L1007.5 204.876C1007.2 205.901 1007.78 206.968 1008.8 207.271L1012.49 208.382C1013.52 208.685 1014.59 208.108 1014.89 207.084L1015.65 204.516C1018.22 204.761 1020.77 204.472 1023.16 203.751L1024.43 206.117C1024.93 207.055 1026.1 207.401 1027.04 206.896L1030.43 205.064C1031.36 204.559 1031.71 203.39 1031.21 202.452L1029.94 200.086C1031.86 198.499 1033.5 196.523 1034.71 194.243L1037.28 195.008C1038.3 195.311 1039.37 194.734 1039.68 193.709L1040.79 190.016C1041.09 188.991 1040.51 187.924 1039.49 187.621Z" fill="#B9FF66"/>
<path d="M1006.4 244.596C1005.83 244.596 1005.25 244.51 1004.69 244.337L995.468 241.567C993.953 241.105 992.698 240.095 991.948 238.695C991.198 237.296 991.039 235.694 991.486 234.179L993.145 228.668L992.164 228.091C987.749 225.508 983.782 222.262 980.362 218.453L979.598 217.602L974.519 220.343C973.653 220.805 972.687 221.05 971.72 221.05C969.527 221.05 967.521 219.853 966.483 217.934L961.923 209.45C960.365 206.579 961.447 202.972 964.333 201.414L969.411 198.672L969.123 197.576C967.824 192.613 967.305 187.52 967.579 182.427L967.637 181.287L962.111 179.628C958.98 178.69 957.191 175.371 958.129 172.24L960.899 163.021C961.361 161.506 962.371 160.251 963.77 159.501C964.636 159.039 965.602 158.794 966.569 158.794C967.146 158.794 967.723 158.88 968.286 159.053L973.812 160.713L974.389 159.731C976.972 155.331 980.204 151.349 984.013 147.929L984.849 147.165L982.108 142.086C981.358 140.687 981.199 139.085 981.646 137.57C982.108 136.055 983.118 134.8 984.517 134.05L993.001 129.491C993.867 129.029 994.833 128.769 995.8 128.769C996.377 128.769 996.954 128.856 997.517 129.029C999.032 129.476 1000.29 130.5 1001.04 131.9L1003.78 136.979L1004.88 136.69C1008.97 135.622 1013.19 135.074 1017.41 135.074C1018.29 135.074 1019.16 135.103 1020.04 135.146L1021.18 135.204L1022.84 129.678C1023.29 128.163 1024.31 126.908 1025.71 126.158C1026.57 125.696 1027.54 125.436 1028.51 125.436C1029.09 125.436 1029.66 125.523 1030.23 125.696L1039.44 128.466C1040.96 128.928 1042.21 129.938 1042.96 131.337C1043.72 132.737 1043.87 134.338 1043.43 135.853L1041.77 141.379L1042.75 141.956C1047.15 144.539 1051.12 147.771 1054.55 151.58L1055.32 152.416L1060.39 149.69C1061.26 149.213 1062.24 148.968 1063.21 148.968C1063.78 148.968 1064.36 149.055 1064.91 149.228C1066.42 149.69 1067.68 150.7 1068.43 152.099L1072.99 160.568C1074.53 163.439 1073.47 167.046 1070.58 168.605L1065.5 171.346L1065.79 172.442C1067.09 177.406 1067.61 182.499 1067.33 187.592L1067.28 188.732L1072.8 190.391C1074.32 190.838 1075.57 191.862 1076.32 193.262C1077.07 194.661 1077.23 196.263 1076.78 197.778L1074.01 206.997C1073.55 208.512 1072.54 209.767 1071.14 210.518C1070.28 210.979 1069.31 211.225 1068.34 211.225C1067.77 211.225 1067.19 211.138 1066.63 210.965L1061.1 209.306L1060.52 210.287C1057.94 214.702 1054.69 218.669 1050.89 222.089L1050.05 222.854L1052.79 227.932C1053.54 229.332 1053.7 230.933 1053.25 232.448C1052.79 233.963 1051.78 235.218 1050.38 235.969L1041.91 240.528C1041.05 240.989 1040.08 241.235 1039.11 241.235C1036.92 241.235 1034.91 240.037 1033.88 238.118L1031.13 233.04L1030.04 233.328C1025.95 234.396 1021.74 234.944 1017.51 234.944C1016.63 234.944 1015.77 234.915 1014.89 234.872L1013.76 234.814L1012.1 240.34C1011.66 241.855 1010.63 243.11 1009.23 243.861C1008.37 244.322 1007.4 244.568 1006.43 244.568L1006.4 244.596ZM979.901 215.077C980.232 215.077 980.55 215.221 980.766 215.481C984.748 220.285 989.553 224.195 995.021 227.124C995.497 227.369 995.728 227.932 995.569 228.437L993.65 234.843C993.362 235.795 993.463 236.791 993.939 237.657C994.401 238.522 995.18 239.157 996.132 239.446L1005.34 242.216C1005.67 242.317 1006.03 242.375 1006.4 242.375C1007.01 242.375 1007.62 242.216 1008.15 241.927C1009.02 241.451 1009.65 240.686 1009.94 239.734L1011.86 233.328C1012 232.852 1012.45 232.535 1012.97 232.535C1014.51 232.679 1016.01 232.751 1017.5 232.751C1022.16 232.751 1026.82 232.059 1031.34 230.673C1031.44 230.645 1031.55 230.63 1031.67 230.63C1032.09 230.63 1032.46 230.861 1032.65 231.222L1035.82 237.108C1036.3 237.974 1037.08 238.609 1038.02 238.897C1038.36 238.998 1038.72 239.056 1039.08 239.056C1039.69 239.056 1040.3 238.897 1040.83 238.609L1049.3 234.05C1051.09 233.083 1051.77 230.847 1050.8 229.043L1047.63 223.142C1047.37 222.68 1047.48 222.089 1047.9 221.743C1052.7 217.761 1056.63 212.97 1059.54 207.488C1059.74 207.127 1060.12 206.896 1060.54 206.896C1060.64 206.896 1060.75 206.911 1060.86 206.94L1067.26 208.858C1067.59 208.959 1067.95 209.017 1068.33 209.017C1068.94 209.017 1069.54 208.858 1070.07 208.57C1070.94 208.108 1071.58 207.329 1071.85 206.377L1074.61 197.172C1074.89 196.22 1074.79 195.224 1074.32 194.358C1073.86 193.493 1073.08 192.858 1072.14 192.584L1065.73 190.665C1065.23 190.506 1064.9 190.016 1064.94 189.482C1065.52 183.307 1064.9 177.146 1063.06 171.173C1062.9 170.668 1063.14 170.105 1063.61 169.86L1069.51 166.686C1071.3 165.719 1071.98 163.468 1071.01 161.679L1066.45 153.196C1065.99 152.33 1065.2 151.695 1064.26 151.407C1063.93 151.306 1063.57 151.248 1063.19 151.248C1062.59 151.248 1061.98 151.407 1061.45 151.695L1055.56 154.869C1055.4 154.956 1055.21 154.999 1055.03 154.999C1054.69 154.999 1054.38 154.855 1054.16 154.595C1050.19 149.791 1045.39 145.881 1039.91 142.952C1039.43 142.706 1039.2 142.144 1039.36 141.639L1041.28 135.233C1041.57 134.281 1041.46 133.285 1040.99 132.419C1040.53 131.554 1039.75 130.919 1038.8 130.63L1029.59 127.875C1029.26 127.774 1028.9 127.716 1028.52 127.716C1027.92 127.716 1027.31 127.875 1026.78 128.163C1025.91 128.625 1025.28 129.404 1025 130.342L1023.08 136.748C1022.94 137.238 1022.52 137.541 1022.03 137.541C1020.43 137.397 1018.93 137.325 1017.46 137.325C1012.78 137.325 1008.12 138.032 1003.61 139.403C1003.5 139.431 1003.39 139.446 1003.27 139.446C1002.86 139.446 1002.48 139.215 1002.28 138.854L999.104 132.968C998.455 131.77 997.214 131.02 995.858 131.02C995.252 131.02 994.646 131.179 994.112 131.467L985.643 136.026C983.854 136.993 983.176 139.229 984.142 141.033L987.316 146.934C987.576 147.396 987.461 147.987 987.042 148.333C982.238 152.301 978.328 157.106 975.399 162.588C975.197 162.949 974.822 163.18 974.403 163.18C974.302 163.18 974.187 163.165 974.086 163.136L967.68 161.218C967.348 161.117 966.973 161.059 966.612 161.059C966.006 161.059 965.4 161.218 964.867 161.506C964.001 161.968 963.366 162.747 963.092 163.699L960.336 172.904C960.048 173.856 960.149 174.852 960.625 175.718C961.087 176.583 961.866 177.218 962.818 177.492L969.224 179.411C969.729 179.57 970.075 180.06 970.017 180.594C969.44 186.769 970.061 192.93 971.893 198.903C972.052 199.408 971.821 199.971 971.345 200.216L965.444 203.39C963.655 204.357 962.977 206.608 963.943 208.397L968.503 216.88C969.152 218.078 970.393 218.814 971.763 218.814C972.369 218.814 972.975 218.655 973.509 218.381L979.41 215.207C979.583 215.12 979.756 215.077 979.944 215.077H979.901Z" fill="#696969"/>
<path d="M1013.04 209.565C1012.74 209.565 1012.45 209.522 1012.16 209.436L1008.47 208.325C1007.69 208.094 1007.05 207.56 1006.66 206.853C1006.27 206.132 1006.19 205.309 1006.43 204.53L1006.94 202.856L1006.04 202.265C1004.92 201.529 1003.87 200.663 1002.91 199.697L1002.15 198.932L1000.6 199.769C1000.16 200.014 999.681 200.13 999.176 200.13C998.051 200.13 997.012 199.524 996.478 198.528L994.646 195.138C993.852 193.651 994.401 191.805 995.887 191.011L997.43 190.189L997.214 189.136C996.94 187.808 996.81 186.452 996.796 185.096V184.014L995.108 183.523C994.329 183.292 993.694 182.773 993.304 182.051C992.915 181.33 992.828 180.508 993.073 179.729L994.184 176.035C994.415 175.256 994.934 174.621 995.656 174.231C996.103 173.986 996.594 173.856 997.099 173.856C997.402 173.856 997.69 173.9 997.979 173.986L999.667 174.491L1000.26 173.597C1001.01 172.457 1001.87 171.404 1002.83 170.451L1003.59 169.687L1002.75 168.143C1001.96 166.671 1002.51 164.81 1004 164.017L1007.39 162.184C1007.83 161.939 1008.31 161.823 1008.81 161.823C1009.94 161.823 1010.98 162.444 1011.51 163.425L1012.33 164.969L1013.39 164.752C1014.72 164.478 1016.07 164.348 1017.41 164.334H1018.5L1018.99 162.646C1019.22 161.867 1019.74 161.232 1020.46 160.842C1020.9 160.597 1021.4 160.467 1021.9 160.467C1022.2 160.467 1022.49 160.511 1022.78 160.597L1026.47 161.708C1027.25 161.939 1027.89 162.458 1028.28 163.18C1028.67 163.901 1028.75 164.723 1028.51 165.503L1028 167.176L1028.9 167.768C1030.02 168.518 1031.08 169.384 1032.04 170.336L1032.81 171.086L1034.35 170.249C1034.8 170.004 1035.29 169.889 1035.79 169.889C1036.92 169.889 1037.96 170.495 1038.49 171.49L1040.32 174.881C1041.12 176.352 1040.57 178.214 1039.08 179.007L1037.54 179.844L1037.76 180.897C1038.03 182.225 1038.16 183.581 1038.17 184.923V186.005L1039.86 186.495C1040.64 186.726 1041.28 187.245 1041.67 187.967C1042.06 188.688 1042.14 189.511 1041.9 190.29L1040.79 193.983C1040.56 194.762 1040.04 195.397 1039.31 195.787C1038.87 196.032 1038.36 196.162 1037.87 196.162C1037.57 196.162 1037.28 196.119 1036.99 196.032L1035.3 195.527L1034.71 196.422C1033.96 197.561 1033.1 198.615 1032.14 199.567L1031.38 200.332L1032.22 201.875C1033.01 203.347 1032.46 205.208 1030.98 206.002L1027.58 207.834C1027.14 208.079 1026.66 208.195 1026.16 208.195C1025.03 208.195 1023.99 207.574 1023.46 206.593L1022.64 205.049L1021.58 205.266C1020.26 205.54 1018.9 205.67 1017.56 205.684H1016.49L1015.98 207.372C1015.75 208.151 1015.23 208.786 1014.51 209.176C1014.07 209.421 1013.58 209.551 1013.07 209.551L1013.04 209.565ZM1002.42 196.393C1002.75 196.393 1003.07 196.537 1003.29 196.797C1004.82 198.658 1006.68 200.158 1008.8 201.298C1009.28 201.544 1009.51 202.106 1009.35 202.611L1008.34 205.944L1013.58 207.517L1014.57 204.169C1014.72 203.708 1015.16 203.376 1015.65 203.376C1016.33 203.434 1016.91 203.462 1017.49 203.462C1019.29 203.462 1021.09 203.188 1022.82 202.654C1022.91 202.626 1023.03 202.611 1023.14 202.611C1023.56 202.611 1023.93 202.842 1024.14 203.188L1025.8 206.261L1030.61 203.664L1028.97 200.591C1028.71 200.115 1028.83 199.538 1029.24 199.192C1031.11 197.662 1032.61 195.801 1033.75 193.68C1033.93 193.32 1034.32 193.089 1034.74 193.089C1034.86 193.089 1034.96 193.103 1035.06 193.132L1038.39 194.128L1039.96 188.89L1036.62 187.88C1036.11 187.722 1035.78 187.231 1035.82 186.697C1036.05 184.317 1035.81 181.936 1035.1 179.628C1034.94 179.123 1035.17 178.574 1035.65 178.315L1038.72 176.655L1036.13 171.836L1033.05 173.481C1032.88 173.568 1032.71 173.611 1032.52 173.611C1032.19 173.611 1031.87 173.467 1031.65 173.207C1030.12 171.36 1028.28 169.845 1026.16 168.72C1025.68 168.46 1025.45 167.926 1025.61 167.407L1026.6 164.06L1021.37 162.487L1020.37 165.834C1020.23 166.296 1019.76 166.628 1019.26 166.628C1018.61 166.57 1018.05 166.541 1017.47 166.541C1015.67 166.541 1013.86 166.816 1012.12 167.349C1012.02 167.378 1011.9 167.393 1011.8 167.393C1011.38 167.393 1011.01 167.162 1010.82 166.801L1009.16 163.728L1004.34 166.325L1005.99 169.398C1006.25 169.874 1006.13 170.451 1005.71 170.798C1003.87 172.327 1002.35 174.188 1001.21 176.295C1001.01 176.67 1000.63 176.901 1000.23 176.901C1000.11 176.901 1000.01 176.886 999.898 176.857L996.55 175.847L994.978 181.085L998.325 182.095C998.83 182.253 999.162 182.744 999.119 183.278C998.888 185.658 999.119 188.039 999.84 190.347C999.999 190.852 999.768 191.415 999.306 191.66L996.233 193.32L998.816 198.124L1001.89 196.479C1002.06 196.393 1002.24 196.349 1002.42 196.349V196.393Z" fill="#696969"/>
<path d="M772.124 209.493C772.124 209.493 772.009 209.479 771.937 209.45L771.792 209.407H771.648C770.956 209.335 769.181 209.263 767.118 209.263C766.584 209.263 766.036 209.263 765.459 209.263H758.605C757.985 209.263 757.48 208.758 757.48 208.137C757.48 207.517 757.985 207.012 758.605 207.012H765.43C766.382 206.997 767.204 206.983 767.94 206.983C772.514 206.983 772.817 207.3 773.077 207.574C773.293 207.805 773.394 208.137 773.365 208.455C773.307 209.017 772.817 209.464 772.254 209.464H772.124V209.493Z" fill="#696969"/>
<path d="M784.417 225.97C783.897 225.97 783.436 225.595 783.32 225.09C783.32 225.075 783.118 224.152 783.09 222.767C783.046 221.036 782.83 219.636 782.44 218.468C781.618 215.668 779.612 213.576 779.223 213.172C778.747 212.725 778.732 212.004 779.165 211.557C779.382 211.34 779.67 211.21 779.973 211.21C780.262 211.21 780.536 211.326 780.752 211.528C781.041 211.802 783.551 214.283 784.59 217.789C785.182 219.578 785.297 221.44 785.34 222.695C785.369 223.806 785.499 224.542 785.513 224.614C785.629 225.22 785.239 225.811 784.633 225.941C784.561 225.941 784.489 225.97 784.402 225.97H784.417Z" fill="#696969"/>
<path d="M798.773 237.945C796.926 237.931 795.238 237.671 793.795 237.195C791.775 236.589 790.13 235.478 789.322 234.872C788.327 234.151 787.721 233.516 787.548 233.343C787.346 233.126 787.245 232.852 787.259 232.549C787.259 232.246 787.389 231.972 787.62 231.77C787.822 231.582 788.096 231.467 788.385 231.467C788.702 231.467 788.991 231.597 789.207 231.813C789.265 231.885 789.784 232.419 790.679 233.069C791.357 233.574 792.771 234.526 794.488 235.045C795.728 235.449 797.186 235.666 798.802 235.694H800.922C801.543 235.694 802.048 236.199 802.048 236.82C802.048 237.44 801.543 237.945 800.922 237.945H798.773Z" fill="#696969"/>
<path d="M809.738 237.945C809.117 237.945 808.613 237.44 808.613 236.82C808.613 236.199 809.117 235.694 809.738 235.694H823.401C824.022 235.694 824.526 236.199 824.526 236.82C824.526 237.44 824.022 237.945 823.401 237.945H809.738Z" fill="#696969"/>
<path d="M838.32 251.536C837.742 251.493 837.295 251.031 837.281 250.454C837.281 250.295 837.237 249.545 837.05 248.521C836.934 247.973 836.516 246.212 835.521 244.524C834.424 242.634 833.154 241.523 832.794 241.22C831.986 240.542 831.351 240.109 831.178 240.023C830.687 239.72 830.528 239.027 830.846 238.508C831.048 238.176 831.409 237.974 831.813 237.974C832.015 237.974 832.202 238.032 832.375 238.133C832.375 238.133 833.183 238.623 834.222 239.518C835.376 240.47 836.574 241.913 837.439 243.413C838.522 245.246 839.041 247.136 839.243 248.102C839.503 249.488 839.517 250.411 839.517 250.425C839.517 251.046 839.027 251.551 838.421 251.565H838.32V251.536Z" fill="#696969"/>
<path d="M838.435 274.044C837.815 274.044 837.31 273.539 837.31 272.918V259.255C837.31 258.635 837.815 258.13 838.435 258.13C839.055 258.13 839.56 258.635 839.56 259.255V272.918C839.56 273.539 839.055 274.044 838.435 274.044Z" fill="#696969"/>
<path d="M818.625 177.175C815.624 177.175 813.172 174.737 813.172 171.721V160.323C813.172 157.322 815.61 154.869 818.625 154.869H915.451C918.452 154.869 920.905 157.308 920.905 160.323V171.721C920.905 174.722 918.467 177.175 915.451 177.175H818.625ZM818.625 157.12C816.851 157.12 815.422 158.563 815.422 160.323V171.721C815.422 173.496 816.865 174.924 818.625 174.924H915.451C917.226 174.924 918.654 173.481 918.654 171.721V160.323C918.654 158.548 917.211 157.12 915.451 157.12H818.625Z" fill="#696969"/>
<path d="M823.444 154.552V118.237C823.444 94.1999 842.994 74.6501 867.031 74.6501C891.068 74.6501 910.618 94.1999 910.618 118.237V154.552H823.444Z" fill="#B9FF66"/>
<path d="M822.001 157.12C821.381 157.12 820.876 156.615 820.876 155.995V118.237C820.876 92.786 841.58 72.0963 867.017 72.0963C892.453 72.0963 913.171 92.8004 913.171 118.237V155.995C913.171 156.615 912.667 157.12 912.046 157.12H822.001ZM867.031 74.3327C842.821 74.3327 823.127 94.0268 823.127 118.237V154.869H910.935V118.237C910.935 94.0268 891.241 74.3327 867.031 74.3327Z" fill="#696969"/>
<path d="M901.745 177.175C901.124 177.175 900.619 176.67 900.619 176.049V155.995C900.619 155.374 901.124 154.869 901.745 154.869C902.365 154.869 902.87 155.374 902.87 155.995V176.049C902.87 176.67 902.365 177.175 901.745 177.175Z" fill="#696969"/>
<path d="M832.317 177.175C831.697 177.175 831.192 176.67 831.192 176.049V155.995C831.192 155.374 831.697 154.869 832.317 154.869C832.938 154.869 833.443 155.374 833.443 155.995V176.049C833.443 176.67 832.938 177.175 832.317 177.175Z" fill="#696969"/>
<path d="M778.472 289.424H621.468V307.675H778.472V289.424Z" fill="#373737"/>
<path d="M660.957 258.938H738.998C744.697 258.938 749.328 263.555 749.328 269.268V289.424H650.627V269.268C650.627 263.569 655.244 258.938 660.957 258.938Z" fill="#B9FF66"/>
<path d="M699.97 343.63C699.35 343.63 698.845 343.125 698.845 342.504V307.661C698.845 307.04 699.35 306.536 699.97 306.536C700.591 306.536 701.096 307.04 701.096 307.661V341.379H865.906V176.049C865.906 175.429 866.411 174.924 867.031 174.924C867.651 174.924 868.156 175.429 868.156 176.049V342.504C868.156 343.125 867.651 343.63 867.031 343.63H699.97Z" fill="#696969"/>
<path d="M910.704 82.9606C910.344 82.9606 910.012 82.7874 909.795 82.4989C909.622 82.2536 909.55 81.965 909.593 81.662C909.637 81.3735 909.795 81.1138 910.041 80.9262L930.629 65.9645C930.875 65.7913 931.12 65.748 931.279 65.748C931.639 65.748 931.971 65.9212 932.187 66.2097C932.361 66.455 932.433 66.7436 932.389 67.0466C932.346 67.3495 932.187 67.5948 931.942 67.7824L911.354 82.7441C911.166 82.8884 910.935 82.9606 910.704 82.9606Z" fill="#696969"/>
<path d="M918.38 98.0089C917.889 98.0089 917.471 97.7059 917.312 97.2298C917.211 96.9412 917.24 96.6382 917.37 96.3785C917.5 96.1044 917.745 95.9168 918.019 95.8158L942.229 87.9526C942.345 87.9093 942.46 87.8949 942.576 87.8949C943.052 87.8949 943.499 88.2123 943.643 88.6596C943.744 88.9481 943.715 89.2511 943.586 89.5108C943.456 89.785 943.225 89.9725 942.936 90.0735L918.726 97.9367C918.611 97.98 918.495 97.9944 918.38 97.9944V98.0089Z" fill="#696969"/>
<path d="M921.02 114.702C920.4 114.702 919.895 114.197 919.895 113.577C919.895 112.956 920.4 112.451 921.02 112.451H946.471C947.092 112.451 947.597 112.956 947.597 113.577C947.597 114.197 947.092 114.702 946.471 114.702H921.02Z" fill="#696969"/>
<path d="M823.343 82.9606C823.112 82.9606 822.882 82.8884 822.694 82.7441L802.105 67.7824C801.86 67.6092 801.701 67.3495 801.658 67.0466C801.615 66.758 801.687 66.455 801.86 66.2097C802.077 65.9212 802.408 65.748 802.769 65.748C802.928 65.748 803.173 65.7913 803.418 65.9645L824.007 80.9262C824.252 81.0993 824.411 81.359 824.454 81.662C824.498 81.9506 824.425 82.2536 824.252 82.4989C824.036 82.8018 823.704 82.9606 823.343 82.9606Z" fill="#696969"/>
<path d="M815.682 98.0089C815.567 98.0089 815.451 97.9944 815.35 97.9512L791.14 90.0735C790.852 89.9869 790.621 89.785 790.491 89.5108C790.361 89.2511 790.332 88.9481 790.419 88.6596C790.563 88.1979 791.01 87.8805 791.486 87.8805C791.602 87.8805 791.717 87.8949 791.818 87.9382L816.028 95.8158C816.317 95.9024 816.548 96.1044 816.678 96.3785C816.807 96.6382 816.836 96.9412 816.735 97.2298C816.591 97.6915 816.158 98.0089 815.668 98.0089H815.682Z" fill="#696969"/>
<path d="M787.591 114.702C786.971 114.702 786.465 114.197 786.465 113.577C786.465 112.956 786.971 112.451 787.591 112.451H813.042C813.662 112.451 814.167 112.956 814.167 113.577C814.167 114.197 813.662 114.702 813.042 114.702H787.591Z" fill="#696969"/>
<path d="M899.811 127.716C899.191 127.716 898.686 127.211 898.686 126.591C898.686 91.8337 868.171 87.3611 866.872 87.1879C866.266 87.1014 865.833 86.5387 865.906 85.9327C865.978 85.37 866.454 84.9516 867.031 84.9516C867.074 84.9516 867.132 84.9516 867.175 84.9516C867.493 84.9949 900.922 89.9869 900.922 126.562C900.922 127.182 900.417 127.687 899.797 127.687L899.811 127.716Z" fill="#696969"/>
<path d="M621.468 308.786C620.848 308.786 620.343 308.281 620.343 307.661V289.424C620.343 288.804 620.848 288.299 621.468 288.299H778.472C779.093 288.299 779.598 288.804 779.598 289.424V307.661C779.598 308.281 779.093 308.786 778.472 308.786H621.468ZM622.593 306.55H777.362V290.549H622.593V306.55Z" fill="#696969"/>
<path d="M650.627 290.549C650.006 290.549 649.501 290.044 649.501 289.424V269.254C649.501 262.949 654.638 257.812 660.943 257.812H738.998C745.303 257.812 750.439 262.949 750.439 269.254V289.424C750.439 290.044 749.934 290.549 749.314 290.549H650.612H650.627ZM660.957 260.063C655.878 260.063 651.752 264.19 651.752 269.268V288.313H748.203V269.268C748.203 264.19 744.076 260.063 738.998 260.063H660.943H660.957Z" fill="#696969"/>
<path d="M606.853 246.717C606.232 246.717 605.727 246.212 605.727 245.592V202.784C605.727 202.164 606.232 201.659 606.853 201.659C607.473 201.659 607.978 202.164 607.978 202.784V245.592C607.978 246.212 607.473 246.717 606.853 246.717Z" fill="#696969"/>
<path d="M585.442 225.321C584.821 225.321 584.316 224.816 584.316 224.195C584.316 223.575 584.821 223.07 585.442 223.07H628.249C628.87 223.07 629.375 223.575 629.375 224.195C629.375 224.816 628.87 225.321 628.249 225.321H585.442Z" fill="#696969"/>
<path d="M398.86 248.708C398.326 248.708 397.864 248.276 397.792 247.713L388.991 173.308L386.134 173.207L378.213 214.572C378.112 215.106 377.651 215.481 377.117 215.481H343.197L342.952 216.606C341.898 221.353 337.599 224.801 332.751 224.801C326.98 224.801 322.291 220.112 322.291 214.341C322.291 208.57 326.98 203.881 332.751 203.881C337.628 203.881 341.927 207.344 342.966 212.119L343.211 213.259H376.193L387.043 156.528C387.144 155.995 387.606 155.62 388.154 155.62C388.746 155.634 389.193 156.052 389.265 156.615L397.806 228.827L400.663 228.884L406.867 188.833C406.939 188.328 407.358 187.938 407.877 187.88C408.44 187.88 408.873 188.183 409.017 188.631L417.27 212.307H450.829L451.074 211.167C452.099 206.377 456.398 202.9 461.304 202.9C467.075 202.9 471.764 207.589 471.764 213.36C471.764 219.131 467.075 223.82 461.304 223.82C456.47 223.82 452.171 220.386 451.103 215.668L450.844 214.543H416.476C416 214.543 415.582 214.24 415.423 213.793L410.287 199.076L407.502 199.336L399.999 247.799C399.913 248.348 399.451 248.752 398.889 248.752H398.845L398.86 248.708ZM332.751 206.117C328.221 206.117 324.527 209.811 324.527 214.341C324.527 218.871 328.221 222.565 332.751 222.565C337.281 222.565 340.975 218.871 340.975 214.341C340.975 209.811 337.281 206.117 332.751 206.117ZM461.304 205.107C456.773 205.107 453.08 208.801 453.08 213.331C453.08 217.862 456.773 221.555 461.304 221.555C465.834 221.555 469.528 217.862 469.528 213.331C469.528 208.801 465.834 205.107 461.304 205.107Z" fill="#696969"/>
<path d="M356.543 52.1136C356.543 61.4918 348.939 69.0808 339.575 69.0808C330.212 69.0808 322.608 61.4773 322.608 52.1136C322.608 42.7499 330.212 35.1464 339.575 35.1464C348.939 35.1464 356.543 42.7499 356.543 52.1136Z" fill="#B9FF66"/>
<path d="M347.179 91.1556C346.558 91.1556 346.053 90.6506 346.053 90.0302C346.053 89.4098 346.558 88.9048 347.179 88.9048H378.415V52.0992C378.415 51.4788 378.92 50.9738 379.541 50.9738C380.161 50.9738 380.666 51.4788 380.666 52.0992V90.0302C380.666 90.6506 380.161 91.1556 379.541 91.1556H347.179Z" fill="#696969"/>
<path d="M339.575 70.2062C329.606 70.2062 321.483 62.0977 321.483 52.1136C321.483 42.1295 329.591 34.021 339.575 34.021C349.559 34.021 357.668 42.1295 357.668 52.1136C357.668 62.0977 349.559 70.2062 339.575 70.2062ZM339.575 36.2718C330.832 36.2718 323.719 43.3847 323.719 52.128C323.719 60.8714 330.832 67.9843 339.575 67.9843C348.319 67.9843 355.417 60.8714 355.417 52.128C355.417 43.3847 348.304 36.2718 339.575 36.2718Z" fill="#696969"/>
<path d="M299.596 53.2246C298.975 53.2246 298.47 52.7196 298.47 52.0992V14.1826C298.47 13.5622 298.975 13.0573 299.596 13.0573H331.957C332.578 13.0573 333.083 13.5622 333.083 14.1826C333.083 14.803 332.578 15.308 331.957 15.308H300.721V52.1136C300.721 52.734 300.216 53.239 299.596 53.239V53.2246Z" fill="#696969"/>
<path d="M815.898 15.6687C815.278 15.6687 814.773 15.1637 814.773 14.5433V1.12538C814.773 0.504977 815.278 0 815.898 0C816.519 0 817.024 0.504977 817.024 1.12538V14.5433C817.024 15.1637 816.519 15.6687 815.898 15.6687Z" fill="#696969"/>
<path d="M815.898 26.2444V31.6548C815.927 33.0111 815.87 34.3673 815.567 35.3484C815.307 36.3295 814.989 36.9355 814.989 36.9355L815.898 26.2444Z" fill="white"/>
<path d="M814.975 38.0608C814.787 38.0608 814.614 38.0176 814.456 37.931C813.907 37.6424 813.691 36.9643 813.979 36.4161C814.023 36.3295 814.268 35.8245 814.47 35.0598C814.701 34.2952 814.802 33.1842 814.773 31.6837V26.2444C814.773 25.624 815.278 25.119 815.898 25.119C816.519 25.119 817.024 25.624 817.024 26.2444V31.6548C817.067 33.3573 816.937 34.6991 816.634 35.6658C816.36 36.6613 816.028 37.3394 815.971 37.4549C815.783 37.8156 815.408 38.0464 814.975 38.0464V38.0608Z" fill="#696969"/>
<path d="M809.29 41.9419C809.29 41.9419 807.833 42.4325 806.304 42.4036H803.274L809.29 41.9419Z" fill="white"/>
<path d="M803.274 43.529C802.654 43.529 802.149 43.024 802.149 42.4036C802.149 41.7832 802.654 41.2783 803.274 41.2783H806.463C807.501 41.2783 808.612 40.9897 808.944 40.8743C809.06 40.831 809.175 40.8166 809.305 40.8166C809.781 40.8166 810.214 41.134 810.358 41.5957C810.546 42.1728 810.243 42.8076 809.666 43.0096C809.637 43.0096 808.136 43.529 806.463 43.529H803.274Z" fill="#696969"/>
<path d="M794.617 42.4036H773.221C762.544 42.4758 751.752 42.1007 751.911 43.125L794.617 42.4036Z" fill="white"/>
<path d="M751.911 44.2504C751.362 44.2504 750.886 43.8464 750.8 43.2982C750.756 42.9808 750.886 42.5191 751.103 42.2594C751.752 41.4947 753.238 41.2494 761.217 41.2494C762.486 41.2494 770.205 41.2783 770.205 41.2783C771.201 41.2783 772.211 41.2783 773.206 41.2783H794.603C795.223 41.2783 795.728 41.7832 795.728 42.4036C795.728 43.024 795.223 43.529 794.603 43.529H773.206C772.124 43.529 771.042 43.529 769.974 43.529H765.502C764.275 43.5146 762.948 43.5146 761.664 43.5146C757.09 43.5146 754.407 43.6012 753.224 43.7743L752.863 43.832L752.574 44.0484C752.43 44.1638 752.257 44.236 752.084 44.2504C752.041 44.2504 751.968 44.2504 751.896 44.2504H751.911Z" fill="#696969"/>
<path d="M746.039 58.1012C745.418 58.1012 744.913 57.5962 744.913 56.9758V53.2967C744.913 52.6763 745.418 52.1713 746.039 52.1713C746.659 52.1713 747.164 52.6763 747.164 53.2967V56.9758C747.164 57.5962 746.659 58.1012 746.039 58.1012Z" fill="#696969"/>
<path d="M746.039 67.9555C745.418 67.9555 744.913 67.4505 744.913 66.8301V63.151C744.913 62.5306 745.418 62.0256 746.039 62.0256C746.659 62.0256 747.164 62.5306 747.164 63.151V66.8301C747.164 67.4505 746.659 67.9555 746.039 67.9555Z" fill="#696969"/>
<path d="M746.039 77.8097C745.418 77.8097 744.913 77.3048 744.913 76.6844V73.0052C744.913 72.3848 745.418 71.8799 746.039 71.8799C746.659 71.8799 747.164 72.3848 747.164 73.0052V76.6844C747.164 77.3048 746.659 77.8097 746.039 77.8097Z" fill="#696969"/>
<path d="M746.039 87.664C745.418 87.664 744.913 87.159 744.913 86.5386V82.8595C744.913 82.2391 745.418 81.7341 746.039 81.7341C746.659 81.7341 747.164 82.2391 747.164 82.8595V86.5386C747.164 87.159 746.659 87.664 746.039 87.664Z" fill="#696969"/>
<path d="M341.552 333.92C323.935 333.92 309.609 319.593 309.609 301.976C309.609 284.36 323.935 270.033 341.552 270.033C359.168 270.033 373.495 284.36 373.495 301.976C373.495 319.593 359.168 333.92 341.552 333.92ZM341.552 272.284C325.176 272.284 311.859 285.601 311.859 301.976C311.859 318.352 325.176 331.669 341.552 331.669C357.928 331.669 371.245 318.352 371.245 301.976C371.245 285.601 357.928 272.284 341.552 272.284Z" fill="#696969"/>
<path d="M341.552 321.743C340.932 321.743 340.427 321.238 340.427 320.617V303.102H322.911C322.291 303.102 321.786 302.597 321.786 301.976C321.786 301.356 322.291 300.851 322.911 300.851H340.427V283.335C340.427 282.715 340.932 282.21 341.552 282.21C342.172 282.21 342.677 282.715 342.677 283.335V300.851H360.193C360.813 300.851 361.318 301.356 361.318 301.976C361.318 302.597 360.813 303.102 360.193 303.102H342.677V320.617C342.677 321.238 342.172 321.743 341.552 321.743Z" fill="#696969"/>
<path d="M185.803 309.421C185.182 309.421 184.677 308.916 184.677 308.296V291.401C184.677 290.78 185.182 290.275 185.803 290.275H202.698C203.318 290.275 203.823 290.78 203.823 291.401V308.296C203.823 308.916 203.318 309.421 202.698 309.421H185.803ZM186.928 307.185H201.572V292.526H186.928V307.185Z" fill="#696969"/>
<path d="M216.289 309.421C215.668 309.421 215.163 308.916 215.163 308.296V291.401C215.163 290.78 215.668 290.275 216.289 290.275H233.184C233.804 290.275 234.309 290.78 234.309 291.401V308.296C234.309 308.916 233.804 309.421 233.184 309.421H216.289ZM217.414 307.185H232.073V292.526H217.414V307.185Z" fill="#696969"/>
<path d="M246.775 309.421C246.155 309.421 245.65 308.916 245.65 308.296V291.401C245.65 290.78 246.155 290.275 246.775 290.275H263.67C264.29 290.275 264.795 290.78 264.795 291.401V308.296C264.795 308.916 264.29 309.421 263.67 309.421H246.775ZM247.9 307.185H262.545V292.526H247.9V307.185Z" fill="#696969"/>
<path d="M277.261 309.421C276.641 309.421 276.136 308.916 276.136 308.296V291.401C276.136 290.78 276.641 290.275 277.261 290.275H294.156C294.777 290.275 295.282 290.78 295.282 291.401V308.296C295.282 308.916 294.777 309.421 294.156 309.421H277.261ZM278.387 307.185H293.045V292.526H278.387V307.185Z" fill="#696969"/>
<path d="M140.456 239.734C136.733 239.734 133.704 236.704 133.704 232.996V106.391C133.704 102.669 136.733 99.6536 140.456 99.6536H267.061C270.783 99.6536 273.813 102.683 273.813 106.391V232.996C273.813 236.719 270.783 239.734 267.061 239.734H140.456ZM140.456 101.89C137.974 101.89 135.954 103.91 135.954 106.391V232.996C135.954 235.478 137.974 237.498 140.456 237.498H267.061C269.542 237.498 271.562 235.478 271.562 232.996V106.391C271.562 103.91 269.542 101.89 267.061 101.89H140.456Z" fill="#696969"/>
<path d="M144.25 230.327C143.63 230.327 143.125 229.822 143.125 229.202V110.186C143.125 109.566 143.63 109.061 144.25 109.061H263.266C263.887 109.061 264.392 109.566 264.392 110.186V229.202C264.392 229.822 263.887 230.327 263.266 230.327H144.25ZM145.376 228.091H262.141V111.311H145.361V228.076L145.376 228.091Z" fill="#696969"/>
<path d="M203.751 194.979C189.814 194.979 178.459 183.638 178.459 169.687C178.459 155.735 189.799 144.395 203.751 144.395C217.703 144.395 229.043 155.735 229.043 169.687C229.043 183.638 217.703 194.979 203.751 194.979ZM203.751 146.645C191.04 146.645 180.71 156.99 180.71 169.687C180.71 182.383 191.055 192.728 203.751 192.728C216.448 192.728 226.793 182.383 226.793 169.687C226.793 156.99 216.448 146.645 203.751 146.645Z" fill="#696969"/>
<path d="M244.568 137.671C239.72 137.671 235.767 133.732 235.767 128.87C235.767 124.008 239.705 120.069 244.568 120.069C249.43 120.069 253.369 124.008 253.369 128.87C253.369 133.732 249.43 137.671 244.568 137.671ZM244.568 122.32C240.961 122.32 238.017 125.263 238.017 128.87C238.017 132.477 240.961 135.42 244.568 135.42C248.175 135.42 251.118 132.477 251.118 128.87C251.118 125.263 248.175 122.32 244.568 122.32Z" fill="#696969"/>
<path d="M162.935 137.671C158.087 137.671 154.134 133.732 154.134 128.87C154.134 124.008 158.072 120.069 162.935 120.069C167.797 120.069 171.736 124.008 171.736 128.87C171.736 133.732 167.797 137.671 162.935 137.671ZM162.935 122.32C159.328 122.32 156.384 125.263 156.384 128.87C156.384 132.477 159.328 135.42 162.935 135.42C166.542 135.42 169.485 132.477 169.485 128.87C169.485 125.263 166.542 122.32 162.935 122.32Z" fill="#696969"/>
<path d="M203.751 251.002C193.262 251.002 184.995 242.1 185.76 231.64L190.218 170.711C190.737 163.613 196.638 158.13 203.751 158.13C210.864 158.13 216.765 163.613 217.285 170.711L221.743 231.64C222.507 242.1 214.226 251.002 203.751 251.002Z" fill="#B9FF66"/>
<path d="M203.751 252.128C198.442 252.128 193.334 249.906 189.713 246.01C186.106 242.129 184.245 236.863 184.634 231.568L189.092 170.653C189.655 163.021 196.09 157.033 203.751 157.033C211.412 157.033 217.847 163.021 218.41 170.653L222.868 231.568C223.258 236.863 221.411 242.129 217.789 246.01C214.183 249.891 209.061 252.128 203.751 252.128ZM203.751 159.27C197.259 159.27 191.805 164.334 191.329 170.812L186.87 231.727C186.524 236.473 188.111 241.004 191.358 244.481C194.604 247.958 199.004 249.877 203.751 249.877C208.498 249.877 212.898 247.958 216.145 244.481C219.391 240.989 220.978 236.459 220.632 231.727L216.174 170.812C215.697 164.334 210.244 159.27 203.751 159.27Z" fill="#696969"/>
<path d="M244.568 219.304C239.72 219.304 235.767 215.365 235.767 210.503C235.767 205.641 239.705 201.702 244.568 201.702C249.43 201.702 253.369 205.641 253.369 210.503C253.369 215.365 249.43 219.304 244.568 219.304ZM244.568 203.953C240.961 203.953 238.017 206.896 238.017 210.503C238.017 214.11 240.961 217.054 244.568 217.054C248.175 217.054 251.118 214.11 251.118 210.503C251.118 206.896 248.175 203.953 244.568 203.953Z" fill="#696969"/>
<path d="M162.935 219.304C158.087 219.304 154.134 215.365 154.134 210.503C154.134 205.641 158.072 201.702 162.935 201.702C167.797 201.702 171.736 205.641 171.736 210.503C171.736 215.365 167.797 219.304 162.935 219.304ZM162.935 203.953C159.328 203.953 156.384 206.896 156.384 210.503C156.384 214.11 159.328 217.054 162.935 217.054C166.542 217.054 169.485 214.11 169.485 210.503C169.485 206.896 166.542 203.953 162.935 203.953Z" fill="#696969"/>
<path d="M159.183 53.2246C158.563 53.2246 158.058 52.7197 158.058 52.0993C158.058 51.4789 158.563 50.9739 159.183 50.9739H172.572C173.192 50.9739 173.697 51.4789 173.697 52.0993C173.697 52.7197 173.192 53.2246 172.572 53.2246H159.183Z" fill="#696969"/>
<path d="M184.821 53.2246C184.201 53.2246 183.696 52.7197 183.696 52.0993C183.696 51.4789 184.201 50.9739 184.821 50.9739H198.211C198.831 50.9739 199.336 51.4789 199.336 52.0993C199.336 52.7197 198.831 53.2246 198.211 53.2246H184.821Z" fill="#696969"/>
<path d="M210.46 53.2246C209.839 53.2246 209.334 52.7197 209.334 52.0993C209.334 51.4789 209.839 50.9739 210.46 50.9739H223.849C224.469 50.9739 224.974 51.4789 224.974 52.0993C224.974 52.7197 224.469 53.2246 223.849 53.2246H210.46Z" fill="#696969"/>
<path d="M236.098 53.2246C235.478 53.2246 234.973 52.7197 234.973 52.0993C234.973 51.4789 235.478 50.9739 236.098 50.9739H249.487C250.108 50.9739 250.613 51.4789 250.613 52.0993C250.613 52.7197 250.108 53.2246 249.487 53.2246H236.098Z" fill="#696969"/>
<path d="M91.0257 151.118C90.8814 151.118 90.7372 151.089 90.5929 151.031C90.5929 151.031 88.7317 150.252 86.7551 149.805C84.7929 149.401 82.7441 149.329 82.7297 149.329C82.1525 149.314 81.6764 148.795 81.6908 148.175C81.7053 147.569 82.1958 147.093 82.8018 147.093C83.2346 147.093 85.2401 147.208 87.2167 147.612C89.2222 148.074 91.0834 148.824 91.4441 148.968C92.0068 149.213 92.2809 149.863 92.0501 150.44C91.877 150.858 91.473 151.132 91.0113 151.132L91.0257 151.118Z" fill="#696969"/>
<path d="M103.044 163.194C102.582 163.194 102.178 162.92 102.005 162.502C102.005 162.502 101.255 160.64 100.13 158.981C99.2352 157.582 98.1098 156.355 97.6626 155.894C97.2009 155.417 97.2009 154.71 97.6481 154.278C97.8645 154.076 98.1387 153.96 98.4417 153.96C98.7447 153.96 99.0332 154.076 99.2352 154.292C99.3939 154.465 100.866 155.98 102.005 157.769C103.232 159.602 104.069 161.665 104.083 161.679C104.314 162.256 104.04 162.906 103.463 163.136C103.333 163.194 103.188 163.223 103.044 163.223V163.194Z" fill="#696969"/>
<path d="M103.188 180.233C103.059 180.233 102.914 180.205 102.799 180.161C102.51 180.046 102.294 179.844 102.164 179.57C102.049 179.296 102.034 178.993 102.135 178.719L102.698 177.175L102.741 177.03C102.914 176.424 103.145 175.66 103.289 174.866C103.693 172.933 103.693 170.956 103.693 170.87C103.693 170.249 104.198 169.744 104.819 169.744C105.439 169.744 105.944 170.249 105.944 170.87C105.944 170.956 105.944 173.164 105.497 175.285C105.338 176.107 105.107 176.958 104.877 177.752L104.242 179.541C104.083 179.945 103.665 180.233 103.203 180.233H103.188Z" fill="#696969"/>
<path d="M91.3864 192.512C90.9391 192.512 90.5352 192.237 90.3476 191.819C90.1023 191.256 90.3764 190.593 90.9391 190.347C90.9391 190.347 92.7859 189.568 94.4018 188.414C96.0611 187.318 97.4606 185.875 97.5616 185.745C97.6914 185.615 97.98 185.485 98.283 185.485C98.5715 185.485 98.8456 185.601 99.0621 185.788C99.5093 186.207 99.5238 186.928 99.1053 187.375C98.9466 187.548 97.4606 189.078 95.6859 190.246C94.0556 191.415 92.1799 192.252 91.8337 192.396C91.6894 192.454 91.5451 192.483 91.4008 192.483L91.3864 192.512Z" fill="#696969"/>
<path d="M82.4988 194.459C82.4988 194.459 82.4844 194.459 82.369 194.459H82.1814C81.3734 194.459 79.8008 194.416 78.2137 194.113C76.2948 193.81 74.4769 193.146 73.9575 192.959C73.7411 192.872 73.5679 192.728 73.4381 192.555L72.9475 191.834L72.0241 191.949L71.851 191.978C71.851 191.978 71.6635 191.949 71.5336 191.891C71.4903 191.877 70.7112 191.559 69.5281 190.766C68.244 190.016 66.6425 188.717 65.1565 187.217C62.0689 184.086 58.7216 178.343 58.5629 171.634C58.2455 164.839 61.3042 158.765 64.0311 155.634C65.6037 153.744 67.1331 152.489 68.143 151.753C69.2396 150.974 69.8888 150.57 69.9177 150.555C70.1052 150.44 70.2928 150.397 70.4948 150.397C70.8843 150.397 71.245 150.599 71.447 150.945C71.7645 151.479 71.6057 152.157 71.0719 152.489C70.9132 152.59 70.3361 152.95 69.4416 153.585C68.5326 154.249 67.1619 155.389 65.7191 157.106C63.2808 159.919 60.4962 165.416 60.7848 171.562C60.9291 177.651 64.0744 182.96 66.7291 185.658C68.0998 187.029 69.5425 188.212 70.6968 188.89C71.6057 189.496 72.1684 189.77 72.3271 189.828C72.5291 189.915 72.6878 190.044 72.8177 190.232L73.3227 190.968L74.2028 190.852C74.2028 190.852 74.3182 190.852 74.3759 190.852C74.5058 190.852 74.6356 190.881 74.751 190.925C74.751 190.925 76.6122 191.66 78.5744 191.963C79.9306 192.223 81.3302 192.281 82.268 192.281H82.3257L82.4122 192.31L82.7152 192.266C83.2779 192.266 83.7108 192.771 83.7396 193.348C83.7685 193.969 83.2779 194.488 82.6575 194.503H82.4844L82.4988 194.459Z" fill="#696969"/>
<path d="M1.12538 172.327C0.504977 172.327 0 171.822 0 171.202C0 170.581 0.504977 170.076 1.12538 170.076H14.5145C15.1349 170.076 15.6399 170.581 15.6399 171.202C15.6399 171.822 15.1349 172.327 14.5145 172.327H1.12538Z" fill="#696969"/>
<path d="M26.7638 172.327C26.1434 172.327 25.6384 171.822 25.6384 171.202C25.6384 170.581 26.1434 170.076 26.7638 170.076H40.1529C40.7733 170.076 41.2783 170.581 41.2783 171.202C41.2783 171.822 40.7733 172.327 40.1529 172.327H26.7638Z" fill="#696969"/>
<path d="M583.133 311.657H448.867C445.656 311.657 443.052 314.261 443.052 317.472V328.755C443.052 331.966 445.656 334.569 448.867 334.569H583.133C586.344 334.569 588.947 331.966 588.947 328.755V317.472C588.947 314.261 586.344 311.657 583.133 311.657Z" fill="#B9FF66"/>
<path d="M448.867 335.68C445.043 335.68 441.941 332.578 441.941 328.755V317.457C441.941 313.634 445.043 310.532 448.867 310.532H469.34V272.24C469.34 271.62 469.845 271.115 470.465 271.115H477.622V243.356C477.622 242.735 478.127 242.23 478.747 242.23H485.889V232.116C485.889 231.496 486.394 230.991 487.014 230.991H545.043C545.664 230.991 546.169 231.496 546.169 232.116V242.23H553.585C554.205 242.23 554.71 242.735 554.71 243.356V271.115H562.126C562.746 271.115 563.251 271.62 563.251 272.24V310.532H583.191C587.014 310.532 590.116 313.648 590.116 317.457V328.755C590.116 332.578 587.014 335.68 583.191 335.68H448.867ZM448.867 312.768C446.284 312.768 444.178 314.875 444.178 317.457V328.755C444.178 331.337 446.284 333.444 448.867 333.444H583.147C585.73 333.444 587.836 331.337 587.836 328.755V317.457C587.836 314.875 585.73 312.768 583.147 312.768H448.867ZM546.14 310.532H560.972V273.351H553.556C552.935 273.351 552.43 272.846 552.43 272.226V244.467H546.14V310.532ZM488.111 310.532H543.889V273.351H488.111V310.532ZM471.576 310.532H485.874V244.481H479.844V272.24C479.844 272.861 479.339 273.366 478.718 273.366H471.562V310.546L471.576 310.532ZM518.958 271.115H543.903V235.42L518.958 271.115ZM499.379 271.115H516.231L542.692 233.242H525.84L499.379 271.115ZM488.125 259.198V271.115H496.638L523.098 233.242H506.247L488.111 259.198H488.125ZM488.125 255.288L503.52 233.256H488.125V255.288Z" fill="#696969"/>
<path d="M400.995 88.371V15.8563H527.124C534.237 15.8563 540.022 21.6419 540.022 28.7548C540.022 61.6216 513.287 88.3565 480.421 88.3565H400.995V88.371Z" fill="#373737"/>
<path d="M514.86 74.1883C512.84 74.1883 510.777 73.7843 508.815 72.9187C501.154 69.5714 497.648 60.6117 500.995 52.9504C502.611 49.2425 505.583 46.3857 509.363 44.8997C513.129 43.428 517.255 43.5001 520.963 45.1305C524.671 46.7464 527.528 49.7186 529.014 53.4987C530.485 57.2644 530.413 61.3908 528.783 65.0987C526.301 70.7833 520.718 74.1883 514.874 74.1883H514.86ZM514.889 48.9828C513.648 48.9828 512.407 49.2136 511.224 49.6753C508.728 50.6564 506.766 52.5464 505.698 54.9992C503.476 60.0634 505.799 65.9933 510.863 68.2152C515.942 70.4371 521.858 68.1142 524.079 63.0355C525.147 60.5828 525.205 57.8559 524.224 55.3599C523.243 52.8639 521.353 50.9017 518.9 49.834C517.616 49.2713 516.245 48.9828 514.874 48.9828H514.889Z" fill="#696969"/>
<path d="M705.871 233.646C696.19 233.646 682.729 215.322 682.7 209.508V181.979L720.443 181.056L721.136 233.602L705.871 233.646Z" fill="#B9FF66"/>
<path d="M710.935 234.785C703.087 234.785 695.685 231.756 690.087 226.244C684.431 220.675 681.286 213.23 681.228 205.295L681.07 183.321C681.07 182.441 681.401 181.604 682.022 180.984C682.642 180.363 683.465 180.017 684.345 180.003L719.015 179.743C720.833 179.743 722.319 181.215 722.333 183.018L722.68 231.409C722.68 232.289 722.348 233.126 721.727 233.747C721.107 234.367 720.285 234.728 719.405 234.728L711.166 234.785H710.935ZM683.306 182.239L683.479 205.266C683.537 212.61 686.437 219.492 691.66 224.643C696.738 229.649 703.649 232.463 711.109 232.549L720.443 232.477L720.083 181.979L683.306 182.253V182.239Z" fill="#696969"/>
<path d="M399.552 89.8138V14.4135H527.124C535.03 14.4135 541.465 20.8483 541.465 28.7548C541.465 62.4151 514.081 89.7993 480.421 89.7993H399.552V89.8138Z" fill="#373737"/>
<path d="M610.95 89.8426L519.924 47.4678C513.547 44.6832 506.117 47.5833 503.332 53.9604C500.548 60.3375 503.448 67.7679 509.825 70.5525L602.74 108.584C607.92 110.85 613.951 108.483 616.216 103.304C618.481 98.1242 616.115 92.0934 610.936 89.8282L610.95 89.8426Z" fill="white"/>
<path d="M399.552 90.9247C398.932 90.9247 398.427 90.4197 398.427 89.7993V14.4135C398.427 13.7931 398.932 13.2881 399.552 13.2881H527.124C535.651 13.2881 542.59 20.2279 542.59 28.7548C542.59 63.0355 514.701 90.9247 480.421 90.9247H399.552ZM400.678 88.6884H480.435C513.475 88.6884 540.369 61.8092 540.369 28.7548C540.369 21.4687 534.439 15.5244 527.138 15.5244H400.678V88.6884Z" fill="#696969"/>
<path d="M606.838 109.465C605.424 109.465 604.053 109.176 602.74 108.613L509.825 70.5813C503.448 67.7968 500.548 60.3519 503.332 53.9892C505.338 49.4012 509.868 46.429 514.889 46.429C516.635 46.429 518.323 46.7897 519.924 47.4823L610.95 89.857C613.446 90.9536 615.379 92.959 616.375 95.4984C617.37 98.0377 617.313 100.822 616.216 103.333C614.586 107.055 610.907 109.465 606.838 109.465Z" fill="#373737"/>
<path d="M606.838 108.022C605.626 108.022 604.443 107.777 603.318 107.286L510.373 69.2396C504.775 66.7868 502.192 60.1932 504.645 54.5664C506.42 50.4977 510.431 47.8718 514.874 47.8718C516.418 47.8718 517.919 48.1892 519.333 48.8096L610.315 91.17C612.494 92.1222 614.153 93.8391 615.004 96.0322C615.855 98.2252 615.812 100.606 614.874 102.756C613.475 105.959 610.315 108.022 606.809 108.022H606.838Z" fill="#373737"/>
<path d="M606.838 110.59C605.28 110.59 603.75 110.273 602.293 109.638L509.406 71.6202C502.481 68.5903 499.278 60.4674 502.308 53.542C504.486 48.5499 509.435 45.3181 514.903 45.3181C516.793 45.3181 518.626 45.7076 520.372 46.4579L611.383 88.8327C617.125 91.3575 619.737 98.0665 617.241 103.78C616.029 106.565 613.807 108.7 610.979 109.796C609.637 110.33 608.252 110.59 606.838 110.59ZM514.889 47.54C510.315 47.54 506.189 50.238 504.357 54.4365C503.13 57.2355 503.072 60.3664 504.183 63.2231C505.294 66.0798 507.459 68.3306 510.272 69.557L603.159 107.575C604.313 108.079 605.554 108.339 606.824 108.339C610.445 108.339 613.72 106.189 615.177 102.885C616.144 100.664 616.202 98.1819 615.307 95.9168C614.413 93.6516 612.696 91.8625 610.474 90.8959L519.434 48.5066C517.962 47.8574 516.447 47.54 514.874 47.54H514.889Z" fill="#696969"/>
<path d="M686.552 50.4111C684.301 49.9061 682.051 49.8773 679.915 50.2524L522.81 11.196C521.381 10.8786 519.939 10.7199 518.496 10.7199C509.363 10.7199 501.298 17.1981 499.307 26.1145C498.153 31.2508 499.076 36.517 501.889 40.9608C504.703 45.4046 509.089 48.4778 514.182 49.6176L672.976 81.2436C674.75 82.4844 676.799 83.4222 679.05 83.9272C688.298 85.9904 697.474 80.1759 699.552 70.9276C701.615 61.6793 695.801 52.5032 686.552 50.4256V50.4111Z" fill="#373737"/>
<path d="M682.83 84.3311C681.56 84.3311 680.305 84.1869 679.064 83.9127L513.908 51.0315C508.382 49.7907 503.707 46.5012 500.677 41.7255C497.648 36.9643 496.666 31.2941 497.893 25.7971C500.028 16.2314 508.699 9.27713 518.496 9.27713C520.054 9.27713 521.612 9.45027 523.127 9.79654L686.552 50.4256C691.01 51.4211 694.848 54.1047 697.301 57.9858C699.754 61.8525 700.562 66.455 699.552 70.9276C697.806 78.7043 690.78 84.3456 682.815 84.3456L682.83 84.3311Z" fill="#373737"/>
<path d="M682.815 85.4565C681.488 85.4565 680.132 85.3122 678.819 85.0092L513.677 52.128C507.877 50.8295 502.899 47.3524 499.725 42.3315C496.537 37.3106 495.498 31.3518 496.796 25.5518C498.095 19.7518 501.572 14.803 506.593 11.6145C510.171 9.33485 514.283 8.13733 518.467 8.13733C520.112 8.13733 521.757 8.32489 523.372 8.68559L686.797 49.3146C696.652 51.5365 702.841 61.333 700.648 71.1585C698.802 79.4401 691.299 85.4565 682.815 85.4565ZM518.481 10.3881C514.716 10.3881 511.008 11.4702 507.79 13.5189C503.274 16.3901 500.144 20.8339 498.989 26.0568C497.821 31.2653 498.758 36.6325 501.615 41.1484C504.472 45.6643 508.93 48.7952 514.139 49.9639L679.281 82.8451C680.406 83.0903 681.603 83.2202 682.772 83.2202C690.361 83.2202 696.81 78.0694 698.47 70.6968C700.403 62.0689 694.949 53.4698 686.321 51.5365L522.853 10.8642C521.381 10.5324 519.924 10.3737 518.481 10.3737V10.3881Z" fill="#696969"/>
<path d="M644.524 101.154C643.167 101.154 641.811 100.938 640.513 100.534L515.682 64.1176C507.098 61.3908 502.351 52.2002 505.063 43.63C507.228 36.82 513.475 32.2464 520.617 32.2464C522.29 32.2464 523.95 32.5061 525.551 33.0111L648.52 75.256C651.882 76.3237 654.652 78.6465 656.282 81.7918C657.913 84.9371 658.216 88.5297 657.148 91.8914C655.388 97.4173 650.324 101.14 644.524 101.14V101.154Z" fill="#373737"/>
<path d="M644.524 99.7113C643.312 99.7113 642.114 99.5237 640.946 99.1486L516.086 62.7326C508.295 60.2654 503.967 51.8828 506.449 44.0628C508.425 37.8588 514.11 33.6892 520.617 33.6892C522.146 33.6892 523.661 33.92 525.118 34.3961L648.059 76.6411C651.103 77.6077 653.556 79.6709 654.998 82.4699C656.456 85.269 656.73 88.472 655.763 91.473C654.205 96.4073 649.674 99.7113 644.509 99.7113H644.524Z" fill="#373737"/>
<path d="M644.538 102.279C643.067 102.279 641.595 102.049 640.167 101.601L515.365 65.1997C510.936 63.8002 507.3 60.7271 505.15 56.5863C503 52.4455 502.596 47.7275 503.996 43.2982C505.41 38.8544 508.454 35.233 512.595 33.0832C515.105 31.7847 517.803 31.121 520.588 31.121C522.377 31.121 524.166 31.3951 525.897 31.9434L648.867 74.1883C656.427 76.6122 660.611 84.6918 658.216 92.2376C657.062 95.9023 654.537 98.8889 651.132 100.649C649.054 101.731 646.832 102.265 644.538 102.265V102.279ZM520.617 33.3573C518.207 33.3573 515.783 33.9489 513.634 35.0742C510.027 36.9354 507.372 40.0952 506.146 43.9618C503.606 51.9549 508.05 60.5107 516.029 63.05L640.83 99.4516C642.028 99.8267 643.297 100.029 644.553 100.029C646.5 100.029 648.362 99.567 650.107 98.6725C652.978 97.1864 655.114 94.6615 656.095 91.574C658.115 85.1968 654.58 78.3724 648.203 76.3381L525.205 34.0787C523.704 33.6026 522.175 33.3718 520.631 33.3718L520.617 33.3573Z" fill="#696969"/>
<path d="M526.417 64.0744C523.632 70.4515 516.202 73.3659 509.825 70.5669C503.448 67.7679 500.548 60.352 503.332 53.9748C506.117 47.5977 513.547 44.6977 519.924 47.4823C526.301 50.2668 529.216 57.6972 526.417 64.0744Z" fill="#696969"/>
<path d="M521.194 61.7803C519.665 65.2719 515.61 66.8589 512.119 65.3296C508.627 63.8002 507.04 59.746 508.569 56.2544C510.099 52.7629 514.153 51.1758 517.645 52.7052C521.136 54.2345 522.723 58.2888 521.194 61.7803Z" fill="#373737"/>
<path d="M514.874 68.4893C513.59 68.4893 512.306 68.2152 511.094 67.6958C506.319 65.6037 504.126 60.0201 506.218 55.2445C508.295 50.4688 513.893 48.2902 518.669 50.3678C520.977 51.3778 522.767 53.239 523.69 55.5907C524.613 57.9425 524.556 60.5107 523.546 62.8191C522.536 65.1276 520.689 66.9167 518.337 67.84C517.226 68.2729 516.058 68.5037 514.889 68.5037L514.874 68.4893ZM514.874 54.6962C513.201 54.6962 511.614 55.6629 510.907 57.2932C509.955 59.4863 510.95 62.04 513.143 62.9923C514.196 63.454 515.365 63.4828 516.447 63.0644C517.515 62.646 518.366 61.8236 518.828 60.7704C519.289 59.7027 519.318 58.534 518.885 57.4519C518.467 56.3843 517.645 55.5186 516.591 55.0713C516.029 54.8261 515.452 54.7106 514.874 54.7106V54.6962Z" fill="#373737"/>
<path d="M536.17 53.4987C533.443 62.0833 524.267 66.8445 515.682 64.1176C507.098 61.3908 502.337 52.2146 505.063 43.63C507.79 35.0454 516.967 30.2842 525.551 33.0111C534.136 35.7379 538.897 44.9141 536.17 53.4987Z" fill="#373737"/>
<path d="M529.129 51.2624C527.643 55.9659 522.622 58.5629 517.919 57.0624C513.215 55.5763 510.618 50.5554 512.119 45.8519C513.605 41.1484 518.626 38.5514 523.329 40.0519C528.033 41.538 530.63 46.5589 529.129 51.2624Z" fill="#696969"/>
<path d="M701.168 164.622C694.776 164.622 689.135 160.092 687.764 153.845L669.484 82.4988C669.383 82.1237 669.484 81.7341 669.758 81.4456C669.975 81.2147 670.263 81.0993 670.566 81.0993C670.638 81.0993 670.71 81.0993 670.783 81.1137L679.309 82.8162C680.464 83.0759 681.632 83.2058 682.801 83.2058C690 83.2058 696.349 78.3291 698.239 71.346C698.369 70.8699 698.787 70.5092 699.205 70.5092H699.364C699.884 70.5381 700.316 70.9132 700.417 71.4326L714.571 147.973C716.202 155.36 711.498 162.66 704.111 164.291C703.144 164.507 702.149 164.608 701.168 164.608V164.622ZM689.943 153.325C691.111 158.635 695.728 162.386 701.153 162.386C701.976 162.386 702.812 162.3 703.635 162.112C709.81 160.756 713.734 154.61 712.378 148.42L699.004 76.1217L697.027 78.5888C693.55 82.9461 688.37 85.4565 682.815 85.4565C681.488 85.4565 680.146 85.3122 678.848 85.0237L672.095 83.6819L689.943 153.34V153.325Z" fill="#696969"/>
<path d="M529.793 32.9245C528.393 39.1573 522.218 43.0673 515.985 41.6822C509.753 40.2827 505.843 34.1076 507.228 27.8747C508.627 21.6419 514.802 17.7319 521.035 19.117C527.268 20.5165 531.178 26.6916 529.793 32.9245Z" fill="white"/>
<path d="M518.539 44.539C517.5 44.539 516.462 44.4235 515.423 44.1927C511.744 43.3703 508.598 41.1628 506.578 37.9743C504.558 34.7857 503.895 31.0056 504.717 27.3265C506.42 19.7229 513.98 14.9329 521.583 16.6354C529.187 18.3379 533.977 25.8981 532.289 33.5016C531.467 37.1807 529.259 40.326 526.071 42.3459C523.776 43.8031 521.179 44.5534 518.539 44.5534V44.539ZM518.51 21.411C514.398 21.411 510.661 24.2677 509.738 28.4374C509.219 30.7747 509.637 33.1842 510.921 35.2185C512.205 37.2384 514.211 38.6524 516.548 39.1718C518.9 39.7056 521.309 39.2872 523.329 37.9887C525.364 36.7046 526.763 34.6991 527.282 32.3618C528.365 27.5284 525.306 22.7095 520.472 21.613C519.809 21.4687 519.16 21.3966 518.51 21.3966V21.411Z" fill="#696969"/>
<path d="M691.443 69.0953C690.376 73.8709 685.643 76.8719 680.868 75.8043C676.092 74.7366 673.091 70.0042 674.159 65.2286C675.226 60.4529 679.959 57.4519 684.734 58.5196C689.51 59.5873 692.511 64.3196 691.443 69.0953Z" fill="#696969"/>
<path d="M692.525 192.988L690.087 150.844C690.044 144.553 695.094 139.431 701.384 139.388C707.675 139.345 712.797 144.395 712.84 150.685L711.008 192.858C711.051 197.965 706.939 202.135 701.831 202.164C696.724 202.207 692.554 198.095 692.525 192.988Z" fill="#373737"/>
<path d="M500.216 123.979L488.991 109.075L496.609 103.333L507.834 118.237L515.466 112.48L544.986 151.652L522.117 168.879L492.598 129.721L500.216 123.979Z" fill="#373737"/>
<path d="M555.446 197.287L564.752 189.323C568.575 186.438 568.402 172.558 565.516 168.734L550.771 147.266L516.49 173.106L532.621 194.503C535.506 198.326 551.608 200.173 555.431 197.287H555.446Z" fill="#B9FF66"/>
<path d="M701.774 203.289C699.032 203.289 696.45 202.236 694.502 200.303C692.54 198.369 691.443 195.801 691.414 193.06L688.976 150.916C688.947 147.598 690.231 144.409 692.583 142.014C694.92 139.619 698.051 138.292 701.384 138.263C704.789 138.263 707.891 139.547 710.257 141.855C712.638 144.193 713.965 147.323 713.98 150.671L712.147 192.901C712.176 195.614 711.08 198.254 709.161 200.187C707.227 202.164 704.63 203.26 701.86 203.275H701.774V203.289ZM701.399 140.499C698.657 140.513 696.089 141.61 694.17 143.558C692.251 145.506 691.198 148.088 691.212 150.829L693.651 192.916C693.665 195.138 694.531 197.172 696.075 198.701C697.604 200.216 699.638 201.039 701.774 201.039C703.996 201.024 706.03 200.158 707.559 198.615C709.089 197.071 709.911 195.022 709.897 192.858L711.729 150.627C711.7 147.929 710.589 145.347 708.67 143.457C706.737 141.552 704.183 140.499 701.471 140.499H701.399Z" fill="#696969"/>
<path d="M682.801 77.1316C682.08 77.1316 681.344 77.0451 680.622 76.8863C675.255 75.6888 671.865 70.3361 673.077 64.9689C674.087 60.4529 678.184 57.1778 682.83 57.1778C683.551 57.1778 684.273 57.25 684.994 57.4087C687.591 57.9858 689.799 59.544 691.241 61.7947C692.67 64.0455 693.131 66.7147 692.554 69.3117C691.544 73.8276 687.447 77.1028 682.815 77.1028L682.801 77.1316ZM682.801 59.4286C679.208 59.4286 676.034 61.9679 675.255 65.4739C674.317 69.6291 676.958 73.7699 681.113 74.7077C681.661 74.8232 682.224 74.8809 682.772 74.8809C686.379 74.8809 689.568 72.3416 690.347 68.85C690.794 66.8301 690.433 64.7525 689.322 63.0211C688.211 61.2753 686.495 60.0634 684.489 59.6161C683.926 59.5007 683.364 59.4286 682.801 59.4286Z" fill="#696969"/>
<path d="M644.538 95.7869C644.322 95.7869 644.105 95.7869 643.889 95.7581C641.782 95.5849 639.878 94.6038 638.507 93.0023C635.694 89.6839 636.098 84.6918 639.402 81.8784C640.816 80.6665 642.634 80.0028 644.509 80.0028C646.832 80.0028 649.025 81.0127 650.526 82.7729C651.896 84.3744 652.546 86.4232 652.387 88.5152C652.214 90.6217 651.233 92.5262 649.631 93.8969C648.188 95.1232 646.428 95.7725 644.538 95.7725V95.7869Z" fill="#696969"/>
<path d="M520.617 58.6062C519.592 58.6062 518.568 58.4475 517.587 58.1301C515.033 57.3221 512.941 55.5619 511.715 53.1813C510.474 50.8007 510.243 48.0738 511.051 45.5201C511.859 42.9663 513.619 40.8743 516 39.6335C517.443 38.8832 519.001 38.5081 520.602 38.5081C521.627 38.5081 522.666 38.6668 523.661 38.9842C526.215 39.7922 528.307 41.5524 529.533 43.933C530.774 46.3136 531.005 49.0405 530.197 51.5942L530.154 51.7529C528.783 55.8649 524.974 58.6062 520.617 58.6062ZM520.617 40.7588C519.39 40.7588 518.15 41.0618 517.039 41.6389C515.177 42.6056 513.821 44.2215 513.186 46.2126C511.888 50.3101 514.167 54.7106 518.265 56.0092C519.03 56.2544 519.823 56.3698 520.617 56.3698C524.036 56.3698 527.023 54.1912 528.062 50.9305C529.36 46.833 527.08 42.4325 522.983 41.134C522.204 40.8887 521.41 40.7588 520.617 40.7588ZM529.129 52.7052H529.158V49.8196L529.129 52.7052Z" fill="#696969"/>
<path d="M520.646 66.0077C518.857 66.0077 517.082 65.7336 515.351 65.1853C506.189 62.2709 501.096 52.4455 504.01 43.2837C506.319 36.0121 513.013 31.121 520.646 31.121C522.42 31.121 524.195 31.3951 525.912 31.9434C530.341 33.3573 533.963 36.4016 536.112 40.5424C538.262 44.6832 538.666 49.4012 537.252 53.8305C535.838 58.2743 532.794 61.8957 528.653 64.0455C526.143 65.344 523.445 66.0077 520.66 66.0077H520.646ZM520.646 33.3573C513.994 33.3573 508.166 37.6136 506.16 43.9618C503.621 51.9549 508.065 60.5107 516.043 63.05C517.544 63.5261 519.102 63.7714 520.66 63.7714C523.07 63.7714 525.479 63.1798 527.629 62.0689C531.236 60.2077 533.89 57.048 535.117 53.1813C537.656 45.1882 533.212 36.6325 525.234 34.0931C523.733 33.617 522.189 33.3718 520.646 33.3718V33.3573Z" fill="#696969"/>
<path d="M518.539 51.5365C516.981 51.5365 515.423 51.3634 513.908 51.0171C508.396 49.7907 503.707 46.4867 500.677 41.7111C497.648 36.9499 496.666 31.2797 497.893 25.7827C500.028 16.217 508.699 9.26271 518.496 9.26271C520.054 9.26271 521.612 9.43584 523.127 9.78211C528.639 11.0085 533.328 14.3125 536.358 19.0881C539.387 23.8493 540.369 29.5195 539.142 35.0165C537.007 44.5822 528.336 51.5365 518.539 51.5365Z" fill="#373737"/>
<path d="M518.539 50.0937C517.096 50.0937 515.639 49.935 514.225 49.6176C509.089 48.4634 504.717 45.3902 501.904 40.9464C499.09 36.5026 498.167 31.2364 499.321 26.1001C501.312 17.1836 509.392 10.7055 518.51 10.7055C519.953 10.7055 521.41 10.8642 522.824 11.1816C527.961 12.3359 532.332 15.409 535.146 19.8528C537.959 24.2966 538.883 29.5628 537.728 34.6991C535.737 43.6156 527.658 50.0937 518.539 50.0937Z" fill="#373737"/>
<path d="M518.51 52.6619C516.88 52.6619 515.25 52.4743 513.648 52.128C507.848 50.8295 502.899 47.3524 499.711 42.3315C496.522 37.3106 495.483 31.3518 496.782 25.5518C498.08 19.7518 501.557 14.803 506.578 11.6145C510.157 9.33485 514.268 8.13733 518.453 8.13733C520.097 8.13733 521.742 8.32489 523.358 8.68559C535.333 11.3692 542.893 23.2866 540.224 35.2618C537.974 45.3469 528.841 52.6619 518.51 52.6619ZM518.481 10.3881C514.716 10.3881 511.008 11.4702 507.79 13.5045C503.274 16.3757 500.144 20.8195 498.989 26.0424C497.821 31.2508 498.758 36.618 501.615 41.134C504.472 45.6499 508.93 48.7808 514.139 49.9494C515.581 50.2668 517.053 50.44 518.51 50.44C527.802 50.44 536.011 43.8608 538.031 34.7857C540.441 24.0225 533.645 13.3025 522.868 10.8931C521.425 10.5756 519.939 10.4025 518.467 10.4025L518.481 10.3881ZM539.142 36.4593H539.171V33.5737L539.142 36.4593Z" fill="#696969"/>
<path d="M606.838 109.465C605.424 109.465 604.053 109.176 602.74 108.613C597.575 106.348 595.209 100.303 597.46 95.1377C599.09 91.4153 602.769 89.0058 606.838 89.0058C608.252 89.0058 609.623 89.2943 610.936 89.8715C613.446 90.968 615.365 92.9735 616.36 95.5128C617.356 98.0521 617.298 100.837 616.202 103.347C614.571 107.07 610.892 109.479 606.824 109.479L606.838 109.465Z" fill="#696969"/>
<path d="M606.838 108.022C605.626 108.022 604.443 107.777 603.318 107.286C598.874 105.338 596.839 100.144 598.787 95.7148C600.187 92.5118 603.346 90.4486 606.838 90.4486C608.05 90.4486 609.233 90.6939 610.358 91.1844C612.508 92.1222 614.167 93.8391 615.019 96.0322C615.87 98.2252 615.827 100.606 614.889 102.756C613.489 105.959 610.33 108.022 606.824 108.022L606.838 108.022Z" fill="#696969"/>
<path d="M606.838 110.59C605.28 110.59 603.75 110.273 602.293 109.638C596.551 107.127 593.925 100.418 596.435 94.6904C598.239 90.564 602.336 87.8948 606.852 87.8948C608.411 87.8948 609.94 88.2123 611.383 88.8471C617.111 91.3575 619.737 98.0665 617.24 103.794L617.197 103.881C615.971 106.622 613.763 108.729 610.979 109.811C609.637 110.345 608.252 110.604 606.838 110.604L606.838 110.59ZM606.852 90.1167C603.231 90.1167 599.941 92.2665 598.499 95.5849C596.479 100.187 598.6 105.569 603.202 107.589C604.371 108.094 605.597 108.354 606.852 108.354C607.992 108.354 609.103 108.137 610.171 107.719C612.436 106.824 614.225 105.122 615.192 102.885C616.158 100.664 616.216 98.1819 615.322 95.9168C614.427 93.6516 612.71 91.8625 610.488 90.8958C609.334 90.3909 608.108 90.1312 606.852 90.1312V90.1167ZM616.216 104.776H616.245V101.89L616.216 104.776Z" fill="#696969"/>
<path d="M591.371 156.557C590.491 156.557 589.611 156.427 588.76 156.153C584.229 154.711 581.705 149.848 583.133 145.318L594.358 105.309C594.444 105.006 594.661 104.747 594.949 104.602C595.094 104.53 595.267 104.487 595.44 104.487C595.584 104.487 595.728 104.516 595.858 104.574L600.172 106.363C602.351 107.243 604.89 108.137 607.372 108.137C609.724 108.137 611.686 107.315 613.23 105.699C613.446 105.482 613.735 105.353 614.038 105.353C614.24 105.353 614.441 105.41 614.629 105.511C615.076 105.785 615.278 106.348 615.105 106.839L599.595 150.584C598.47 154.133 595.094 156.572 591.371 156.572V156.557ZM585.283 145.953C584.215 149.314 586.076 152.95 589.438 154.018C590.058 154.22 590.708 154.321 591.357 154.321C594.156 154.321 596.609 152.532 597.46 149.863L611.642 109.84L609.247 110.215C608.656 110.301 608.035 110.359 607.401 110.359C604.126 110.359 600.98 109.118 599.408 108.483L599.162 108.339H599.047L596.147 107.142L585.254 145.982L585.283 145.953Z" fill="#696969"/>
<path d="M578.458 125.884L596.666 143.269C599.234 145.996 599.119 150.281 596.407 152.864C593.68 155.432 589.395 155.316 586.812 152.604L570.465 133.473C568.373 131.265 568.474 127.774 570.682 125.682C572.889 123.59 576.381 123.69 578.473 125.898L578.458 125.884Z" fill="#373737"/>
<path d="M587.072 142.995C584.345 145.563 584.229 149.863 586.812 152.59C589.38 155.316 593.68 155.432 596.407 152.849C599.133 150.281 599.249 145.982 596.666 143.255C594.084 140.528 589.799 140.412 587.072 142.995Z" fill="#696969"/>
<path d="M549.66 120.387L570.523 142.432C570.725 142.649 571.071 142.663 571.302 142.447L587.404 127.211C587.62 127.009 587.634 126.663 587.418 126.432L572.687 113.779C569.96 110.893 557.494 113.836 554.609 116.578L549.675 119.607C549.458 119.809 549.444 120.156 549.66 120.387Z" fill="#B9FF66"/>
<path d="M618.02 158.029C616.505 158.029 615.033 157.697 613.648 157.062C608.367 154.61 606.03 148.232 608.454 142.865L629.677 91.0546C629.822 90.7083 630.139 90.4486 630.5 90.3909C630.586 90.3764 630.644 90.362 630.702 90.362C630.99 90.362 631.293 90.4919 631.495 90.7371L635.853 95.7148C638.089 98.3695 641.321 99.8844 644.755 99.8844C647.395 99.8844 649.891 99.0043 651.997 97.3451C652.185 97.1864 652.43 97.1143 652.661 97.1143C652.834 97.1143 653.094 97.1576 653.354 97.3596C653.743 97.6914 653.873 98.2397 653.642 98.7158L627.6 151.796C625.897 155.591 622.146 158.014 618.034 158.014L618.02 158.029ZM610.445 143.745C608.526 148.002 610.358 153.095 614.557 155.042C615.653 155.547 616.822 155.807 618.02 155.807C621.295 155.807 624.281 153.859 625.638 150.844L649.891 101.399L647.164 101.875C646.37 102.02 645.577 102.092 644.769 102.092C640.7 102.092 636.848 100.288 634.193 97.1431L631.019 93.5217L610.445 143.731V143.745Z" fill="#696969"/>
<path d="M617.414 156.904C614.326 156.904 611.513 155.331 609.911 152.691L594.343 124.051C593.362 122.45 593.045 120.502 593.492 118.655C593.939 116.794 595.079 115.236 596.71 114.24C597.835 113.548 599.119 113.187 600.418 113.187C602.928 113.187 605.208 114.471 606.521 116.606L624.902 143.529C627.441 147.684 626.114 153.08 621.987 155.605C620.602 156.442 619.03 156.889 617.414 156.889V156.904Z" fill="#373737"/>
<path d="M617.414 155.461C614.831 155.461 612.479 154.148 611.138 151.94L595.613 123.359C594.791 122.002 594.545 120.473 594.906 118.987C595.267 117.501 596.176 116.26 597.474 115.467C598.369 114.918 599.393 114.63 600.432 114.63C602.438 114.63 604.255 115.654 605.294 117.357L623.704 144.337C625.782 147.727 624.685 152.258 621.223 154.379C620.068 155.086 618.741 155.461 617.399 155.461H617.414Z" fill="#373737"/>
<path d="M617.428 158.029C616.649 158.029 615.855 157.928 615.076 157.755C612.508 157.134 610.33 155.547 608.944 153.282L593.348 124.585C592.194 122.695 591.862 120.516 592.396 118.381C592.929 116.231 594.242 114.428 596.118 113.274C597.417 112.48 598.903 112.062 600.403 112.062C601.052 112.062 601.716 112.134 602.365 112.292C604.486 112.812 606.29 114.11 607.444 115.972L625.825 142.894C627.196 145.13 627.629 147.828 627.023 150.425C626.417 153.008 624.83 155.187 622.579 156.557C621.021 157.51 619.246 158.015 617.443 158.015L617.428 158.029ZM600.432 114.312C599.335 114.312 598.253 114.615 597.301 115.192C594.473 116.924 593.579 120.632 595.31 123.46L610.907 152.157C611.96 153.874 613.662 155.086 615.625 155.562C616.231 155.706 616.837 155.778 617.443 155.778C618.842 155.778 620.227 155.389 621.425 154.653C625.032 152.445 626.171 147.727 623.964 144.106L605.612 117.241C604.746 115.813 603.419 114.846 601.86 114.485C601.399 114.37 600.923 114.312 600.446 114.312H600.432Z" fill="#696969"/>
<path d="M617.414 156.904C614.326 156.904 611.513 155.331 609.911 152.691C608.685 150.7 608.324 148.333 608.872 146.054C609.421 143.774 610.835 141.841 612.826 140.614C614.211 139.778 615.783 139.33 617.399 139.33C620.487 139.33 623.3 140.903 624.902 143.543C626.128 145.534 626.489 147.901 625.941 150.18C625.392 152.46 623.978 154.393 621.987 155.619C620.602 156.456 619.03 156.904 617.414 156.904Z" fill="#373737"/>
<path d="M617.414 155.461C614.831 155.461 612.479 154.148 611.138 151.94C609.031 148.492 610.128 143.962 613.576 141.841C614.73 141.134 616.057 140.759 617.399 140.759C619.982 140.759 622.334 142.072 623.675 144.279C625.782 147.727 624.685 152.258 621.237 154.379C620.083 155.086 618.755 155.461 617.414 155.461Z" fill="#373737"/>
<path d="M617.428 158.029C616.649 158.029 615.855 157.928 615.076 157.755C612.508 157.134 610.33 155.547 608.944 153.282C607.574 151.031 607.155 148.362 607.776 145.794C608.396 143.226 609.983 141.047 612.234 139.662C613.792 138.71 615.567 138.205 617.385 138.205C620.876 138.205 624.036 139.98 625.854 142.952C628.696 147.612 627.225 153.729 622.564 156.572C621.006 157.524 619.232 158.029 617.428 158.029ZM617.399 140.456C616 140.456 614.615 140.845 613.417 141.567C609.81 143.774 608.67 148.507 610.863 152.113C611.931 153.859 613.619 155.086 615.61 155.562C616.216 155.706 616.822 155.778 617.428 155.778C618.828 155.778 620.213 155.389 621.41 154.653C625.017 152.445 626.157 147.727 623.949 144.106C622.55 141.812 620.097 140.441 617.399 140.441V140.456Z" fill="#696969"/>
<path d="M571.908 102.265L582.397 94.979C583.638 94.2287 590.722 93.5217 592.165 93.5217C594.935 93.5217 604.284 98.3984 605.727 100.765L617.399 120.992L592.857 134.064L571.908 102.265Z" fill="#B9FF66"/>
<path d="M592.944 136.546C592.728 136.546 592.497 136.517 592.28 136.459C591.559 136.286 590.938 135.839 590.549 135.204L571.071 103.304C570.682 102.669 570.566 101.919 570.739 101.183C570.912 100.462 571.36 99.8412 572.009 99.4516L577.448 96.1332C581.084 93.9113 585.254 92.7426 589.496 92.7426C597.676 92.7426 605.092 96.8979 609.334 103.838L618.178 118.323C618.568 118.958 618.683 119.708 618.51 120.444C618.337 121.166 617.89 121.786 617.255 122.176L594.416 136.127C593.968 136.401 593.478 136.546 592.958 136.546H592.944ZM593.694 134.728H593.723V133.92L616.548 119.983L607.415 105.021C603.577 98.7446 596.883 94.9934 589.496 94.9934C585.658 94.9934 581.892 96.0466 578.603 98.0521L572.687 101.659L592.742 134.497L593.694 133.92V134.728Z" fill="#696969"/>
<path d="M591.732 157.264C589.539 157.264 587.49 156.384 585.99 154.797L574.996 141.942L572.601 144.207C572.153 144.625 571.562 144.871 570.941 144.871C570.263 144.871 569.643 144.611 569.196 144.12L549.357 123.157C548.91 122.695 548.679 122.075 548.693 121.425C548.708 120.776 548.982 120.185 549.444 119.737L553.022 116.361C556.398 113.158 560.842 111.398 565.502 111.398C570.552 111.398 575.241 113.418 578.704 117.068L587.707 126.59C588.616 127.557 588.572 129.087 587.62 130.01L585.225 132.275L597.359 143.861L597.402 143.904L597.503 143.991C600.461 147.121 600.317 152.128 597.157 155.129C595.685 156.514 593.752 157.279 591.732 157.279V157.264ZM591.732 143.702C590.275 143.702 588.89 144.25 587.836 145.246C585.615 147.352 585.485 150.902 587.533 153.152L587.634 153.268C588.702 154.393 590.145 154.999 591.703 154.999C592.468 154.999 593.204 154.855 593.911 154.552C594.56 154.278 595.123 153.917 595.613 153.455C596.71 152.416 597.344 151.017 597.388 149.502C597.431 147.987 596.883 146.544 595.844 145.448C594.776 144.322 593.276 143.673 591.732 143.673V143.702ZM576.626 140.398L583.537 148.492L584.446 146.328C584.879 145.304 585.499 144.395 586.293 143.63C587.101 142.88 588.038 142.303 589.092 141.927L591.314 141.148L583.609 133.79L576.626 140.398ZM565.516 113.62C561.419 113.62 557.538 115.164 554.58 117.977L550.872 121.469L570.941 142.692L586.206 128.25L577.073 118.597C574.043 115.394 569.931 113.62 565.502 113.62H565.516Z" fill="#696969"/>
<path d="M442.36 86.3366C439.041 82.6431 437.57 77.7809 438.104 72.3127C438.868 64.4783 443.745 56.4708 451.161 50.8872C457.192 46.3424 464.204 43.8464 470.913 43.8464C478.228 43.8464 484.345 46.8907 487.678 52.1857L516.014 97.2441L507.343 103.78L495.166 87.6351L474.375 103.304L486.552 119.449L477.881 125.985L442.36 86.3366Z" fill="#373737"/>
<path d="M443.427 85.37C440.383 81.9794 439.041 77.5067 439.532 72.4425C440.253 65.0122 444.928 57.3798 452.012 52.027C457.783 47.6698 464.492 45.2748 470.884 45.2748C477.694 45.2748 483.364 48.0738 486.423 52.9504L514.052 96.8834L507.588 101.76L495.411 85.6152L472.327 103.015L484.504 119.16L478.04 124.037L443.413 85.37H443.427Z" fill="#373737"/>
<path d="M477.881 127.095C477.564 127.095 477.261 126.966 477.045 126.72L441.523 87.0724C438.046 83.1913 436.43 77.8963 436.993 72.1828C437.786 64.0455 442.836 55.735 450.483 49.9783C456.615 45.3614 464.074 42.7066 470.956 42.7066C472.529 42.7066 474.072 42.8365 475.558 43.1106C481.2 44.1494 485.846 47.1504 488.63 51.5654L516.967 96.6237C517.284 97.1143 517.169 97.7635 516.692 98.1098L508.021 104.646C507.819 104.79 507.588 104.877 507.343 104.877C507.285 104.877 507.242 104.877 507.184 104.877C506.896 104.833 506.636 104.675 506.449 104.444L494.95 89.1934L475.948 103.506L487.447 118.771C487.62 119.001 487.707 119.304 487.663 119.607C487.62 119.91 487.461 120.17 487.231 120.343L478.559 126.879C478.314 127.067 478.054 127.11 477.881 127.11V127.095ZM470.913 44.9429C464.449 44.9429 457.668 47.3668 451.839 51.7673C444.668 57.1634 439.965 64.8823 439.229 72.4137C438.724 77.5645 440.095 82.1237 443.197 85.5864L478.026 124.47L484.98 119.232L473.481 103.968C473.308 103.737 473.221 103.434 473.264 103.145C473.308 102.842 473.466 102.582 473.697 102.409L494.488 86.7406C494.733 86.553 494.993 86.5098 495.152 86.5098C495.512 86.5098 495.83 86.6685 496.046 86.957L507.545 102.207L514.499 96.97L486.711 52.7773C484.23 48.8385 480.233 46.2703 475.14 45.3325C473.769 45.0872 472.355 44.9574 470.898 44.9574L470.913 44.9429Z" fill="#696969"/>
<path d="M546.428 200.274C545.418 200.274 544.38 200.202 543.37 200.057C537.627 199.249 532.563 196.263 529.072 191.632L515.61 173.77C515.437 173.525 515.351 173.236 515.394 172.933C515.437 172.63 515.596 172.37 515.827 172.197L520.545 168.633L491.703 130.371C491.53 130.125 491.444 129.837 491.487 129.534C491.53 129.231 491.689 128.971 491.92 128.798L498.643 123.734L488.082 109.724C487.909 109.493 487.822 109.19 487.865 108.887C487.909 108.584 488.067 108.325 488.298 108.152L495.916 102.409C496.161 102.222 496.421 102.178 496.594 102.178C496.955 102.178 497.272 102.337 497.489 102.626L508.036 116.621L514.759 111.557C514.961 111.398 515.192 111.326 515.423 111.326C515.48 111.326 515.524 111.326 515.581 111.326C515.884 111.369 516.144 111.528 516.332 111.759L545.173 150.021L550.079 146.328C550.281 146.169 550.511 146.097 550.742 146.097C550.8 146.097 550.843 146.097 550.901 146.097C551.204 146.14 551.464 146.299 551.651 146.53L565.112 164.392C568.604 169.023 570.076 174.722 569.268 180.45C568.46 186.178 565.473 191.256 560.856 194.748L559.413 195.844C555.619 198.701 551.117 200.216 546.414 200.216L546.428 200.274ZM518.077 173.323L530.861 190.29C534.569 195.195 540.224 198.023 546.399 198.023C550.641 198.023 554.681 196.667 558.072 194.113L559.514 193.017C563.655 189.886 566.339 185.341 567.06 180.205C567.782 175.068 566.454 169.946 563.338 165.806L550.555 148.838L518.077 173.323ZM490.563 109.291L501.125 123.301C501.298 123.532 501.384 123.835 501.341 124.138C501.298 124.441 501.139 124.7 500.908 124.874L494.185 129.938L522.348 167.306L543.413 151.421L515.25 114.053L508.526 119.117C508.324 119.261 508.093 119.348 507.848 119.348C507.79 119.348 507.747 119.348 507.689 119.348C507.401 119.304 507.141 119.146 506.954 118.915L496.407 104.92L490.578 109.32L490.563 109.291Z" fill="#696969"/>
<path d="M548.333 197.258C542.143 197.258 535.218 195.527 533.789 193.637L518.525 173.395L550.439 149.343L564.333 169.571C566.844 172.904 566.974 185.875 563.901 188.198L554.522 196.205C553.657 196.854 551.334 197.273 548.347 197.273L548.333 197.258Z" fill="#B9FF66"/>
<path d="M710.099 153.181C709.031 157.957 704.299 160.958 699.523 159.89C694.747 158.822 691.746 154.09 692.814 149.314C693.882 144.539 698.614 141.538 703.39 142.605C708.165 143.673 711.166 148.406 710.099 153.181Z" fill="#696969"/>
<path d="M708.555 192.944C707.732 196.609 704.097 198.918 700.446 198.095C696.782 197.273 694.473 193.637 695.296 189.987C696.118 186.322 699.754 184.014 703.404 184.836C707.069 185.658 709.377 189.294 708.555 192.944Z" fill="#696969"/>
<path d="M518.525 43.8608C518.15 43.8608 517.774 43.8464 517.399 43.8176C513.72 43.5146 510.387 41.8121 508.007 39.0131C503.087 33.2275 503.779 24.4986 509.579 19.5787C512.061 17.4578 515.235 16.3035 518.496 16.3035C522.565 16.3035 526.388 18.0637 529.014 21.1513C531.394 23.9648 532.549 27.5284 532.26 31.1931C531.957 34.8723 530.255 38.2051 527.456 40.5857C524.931 42.7355 521.843 43.8753 518.539 43.8753L518.525 43.8608Z" fill="#696969"/>
</g>
</g>
<defs>
<clipPath id="clip0_6_18">
<rect width="1348" height="343.63" fill="white"/>
</clipPath>
<clipPath id="clip1_6_18">
<rect width="1348" height="343.63" fill="white"/>
</clipPath>
</defs>
</svg>
